<svg width="225" height="225" viewBox="0 0 225 225" fill="none" xmlns="http://www.w3.org/2000/svg">
<circle cx="112.5" cy="112.5" r="112.5" fill="white"/>
<path d="M55 163.5H168" stroke="#F07995" stroke-width="9" stroke-linecap="round"/>
<path d="M117 65C117 62.2386 114.761 60 112 60C109.239 60 107 62.2386 107 65H117ZM108.464 146.536C110.417 148.488 113.583 148.488 115.536 146.536L147.355 114.716C149.308 112.763 149.308 109.597 147.355 107.645C145.403 105.692 142.237 105.692 140.284 107.645L112 135.929L83.7157 107.645C81.7631 105.692 78.5973 105.692 76.6447 107.645C74.692 109.597 74.692 112.763 76.6447 114.716L108.464 146.536ZM107 65V143H117V65H107Z" fill="#F07995"/>
</svg>
