<svg width="697" height="1674" viewBox="0 0 697 1674" fill="none" xmlns="http://www.w3.org/2000/svg">
<g id="avatar 1" clip-path="url(#clip0_33_180)">
<path id="body-shape" fill-rule="evenodd" clip-rule="evenodd" d="M269.938 82.675L182.685 98.8765L141.786 158.282L163.599 268.992L188.139 314.896L160.872 328.397L139.059 347.299L106.339 355.4L62.7129 393.203L54.5329 463.41V557.918L24.5398 622.724L21.8132 660.528L24.5398 809.041L21.8132 865.747L0 903.55L24.5398 946.754L65.4395 989.958L100.886 1103.37L122.699 1178.98L114.519 1230.28L133.606 1351.79L169.052 1486.8L158.145 1508.41L125.426 1548.91L98.1593 1570.51V1597.51L95.4326 1629.92H117.246L158.145 1621.82L177.232 1608.31L199.045 1557.01H223.585L248.125 1548.91V1516.51L229.038 1467.9L234.492 1384.19L242.671 1251.88L234.492 1208.68L223.585 1181.68L239.945 1133.07L226.312 1068.27L234.492 984.557V898.15L242.671 919.751L283.571 1019.66L329.924 1168.17L379.004 1243.78L365.37 1295.09L381.73 1327.49L438.99 1416.6L488.07 1532.71L479.89 1578.61L482.616 1584.01L518.063 1594.81L523.516 1605.61L528.969 1619.12L548.056 1646.12L561.689 1651.52L588.955 1667.72L605.315 1670.42L616.222 1662.32L621.675 1629.92L618.948 1597.51L572.596 1554.31L528.969 1484.1L518.063 1346.39L493.523 1254.58L468.983 1232.98L466.256 1178.98L447.17 1122.27V998.059L444.443 890.049L428.083 836.044L458.076 752.336L463.53 652.427L452.623 587.621L447.17 509.314L436.263 409.405L408.997 352.7L335.377 312.196L340.831 244.69L269.938 82.675ZM368.097 544.417L373.55 563.319L387.184 593.022L395.364 620.024L392.637 695.631L349.011 625.425L351.737 609.223L368.097 544.417ZM122.699 549.818L130.879 571.42V590.321L128.152 620.024L106.339 649.727L111.792 611.923L122.699 549.818Z" fill="#F4BAA3"/>
<path id="body" d="M584.886 1669.01C580.388 1667.1 573.184 1662.24 568.871 1658.41C564.574 1654.43 559.968 1651.34 558.654 1651.34C553.753 1651.34 544.989 1645.75 540.459 1639.71C537.893 1636.32 531.617 1626.01 526.516 1616.74C516.948 1599.51 513.129 1595.68 503.221 1593.47C493.343 1591.26 480.451 1581.99 476.184 1574.18C473.402 1569.03 473.464 1556.95 476.293 1547.97C479.369 1538.4 479.106 1526.18 475.659 1517.79C474.082 1513.96 470.959 1505.42 468.734 1498.64C459.675 1471.55 437.292 1429 400.687 1368.93C379.849 1334.77 375.304 1325.32 368.889 1302.7C366.014 1292.58 365.674 1288.12 365.983 1265.3L366.339 1239.38L359.274 1228.22C355.394 1222.08 349.752 1213.2 346.738 1208.51C334.479 1189.36 320.15 1154.57 312.374 1125.07C299.621 1076.63 284.982 1034.16 271.58 1006.72C264.052 991.299 253.309 968.254 249.985 960.362C243.694 945.519 241.993 942.368 240.679 943.134C239.984 943.546 239.01 952.734 238.515 963.542C238.021 974.35 236.892 990.238 236.011 998.867C231.806 1040.04 231.698 1055.73 235.424 1087.29C239.891 1125 239.86 1127.97 234.944 1147.9C232.703 1156.92 230.972 1166.54 231.064 1169.29C231.374 1177.67 234.465 1192.25 238.314 1203.51C246.77 1228.3 248.47 1263.69 242.813 1297.63C241.128 1307.71 240.138 1324.29 239.767 1348.26C239.458 1367.87 238.021 1399.6 236.567 1418.84L233.924 1453.59L238.5 1470.08C241.004 1479.21 245.904 1494.96 249.382 1505.12C260.141 1536.78 258.023 1541.35 226.334 1556.22C215.096 1561.37 204.198 1567.56 202.08 1569.62C197.474 1574.33 193.192 1582.13 189.389 1592.59C183.299 1609.52 175.029 1618.8 163.373 1621.74C159.261 1622.77 152.877 1625.28 149.167 1627.34C145.457 1629.4 137.614 1632.49 131.727 1634.11L121.024 1637.21L111.516 1632.94C97.9372 1626.9 93.7481 1622.33 93.8114 1613.35C93.8377 1609.52 93.762 1604.52 93.6398 1602.16C93.2178 1593.91 96.3435 1574.92 98.9729 1569.62C102.109 1563.29 108.248 1558.13 117.353 1554.01C125.76 1550.18 136.536 1540.32 143.641 1529.71C146.678 1525.15 149.167 1521.17 149.167 1520.88C149.167 1520.44 152.46 1515.14 156.494 1509.1C160.529 1502.91 164.27 1495.99 164.795 1493.64C166.094 1487.75 163.404 1467.87 158.782 1449.02C154.005 1429.73 134.626 1354.21 132.675 1347.38C131.863 1344.55 131.202 1340.34 131.202 1338.03C131.202 1335.71 129.781 1328.72 128.045 1322.51C121.189 1297.91 117.136 1275.49 113.114 1239.87C111.445 1225.09 112.51 1207.98 116.167 1190.78C117.925 1182.52 118.344 1176.95 117.506 1172.96C116.835 1169.76 114.559 1158 112.451 1146.82C109.908 1133.35 106.646 1121.76 102.78 1112.47C99.5727 1104.77 88.7473 1075.08 78.7258 1046.53C58.5699 989.075 60.8577 993.331 37.0939 969.093C27.3244 959.125 22.9157 953.205 17.8609 943.281C14.2545 936.213 9.04355 926.362 6.28118 921.4C-1.53725 907.337 -1.55162 902.007 6.19925 891.199C11.4658 883.866 18.6554 862.014 21.2539 845.463C23.1939 833.109 23.2944 824.598 21.9341 787.3C18.1654 683.932 20.9525 632.704 31.6434 608.849C39.8671 590.488 47.7307 569.343 49.8577 559.86C51.589 552.129 52.4114 534.459 53.2508 486.913C54.2602 429.692 54.6451 423.007 57.6193 410.903C61.7157 394.234 69.2871 379.775 78.1461 371.691C85.2955 365.168 101.675 355.832 113.236 351.709C128.798 346.158 133.117 341.092 136.995 323.879C137.926 319.741 139.804 314.308 141.171 311.79C143.165 308.123 143.635 303.161 143.557 286.551C143.449 263.316 141.659 254.451 131.426 226.43C123.638 205.108 122.882 199.159 125.878 182.815C127.207 175.57 129.291 160.492 130.508 149.301C132.961 126.772 135.766 119.601 148.193 104.125C163.636 84.909 173.266 78.5273 224.278 53.7335C240.061 46.0692 268.782 46.0928 282.308 53.7806C292.109 59.3614 307.52 75.3909 318.944 91.9033C324.37 99.737 330.754 108.719 333.119 111.856C335.5 114.992 340.323 122.693 343.832 128.981C347.356 135.253 350.788 141.349 351.468 142.527C355.224 149.065 360.403 167.898 361.686 179.737C362.505 187.217 363.17 212.647 363.17 236.237C363.185 277.113 363.371 279.911 367.081 296.034C369.214 305.326 371.873 317.106 372.97 322.2C375.892 335.718 375.969 335.821 388.274 342.241C404.072 350.502 411.152 357.304 423.333 375.887C435.375 394.264 440.059 406.706 442.486 426.703C446.35 458.612 446.829 465.032 446.999 486.751C447.278 522.356 450.709 554.456 457.511 585.054C459.119 592.255 461.097 602.636 461.932 608.128C462.767 613.62 464.235 622.602 465.194 628.095C467.42 640.743 467.481 687.583 465.317 707.241C463.509 723.527 460.479 736.19 451.343 765.566C447.819 776.86 444.217 792.896 442.501 804.779C440.909 815.837 438.621 828.265 437.431 832.402C435.452 839.25 435.514 840.825 438.142 850.352C443.614 870.26 446.675 893.746 445.5 906.896C444.882 913.949 445.067 921.974 445.948 926.097C446.783 929.999 447.061 938.363 446.551 944.68C445.902 952.764 446.443 961.039 448.375 972.539C450.57 985.526 451.204 998.263 451.467 1034.52C451.992 1106.03 453.554 1127.12 459.83 1147.9C463.71 1160.71 465.07 1166.57 466.739 1177.85C472.351 1215.57 473.603 1220.51 479.925 1229.75C488.35 1242.08 500.5 1268.46 503.824 1281.64C505.354 1287.7 507.982 1297.13 509.698 1302.63C513.176 1313.8 516.762 1333.22 518.122 1348.26C519.73 1365.96 522.157 1385.17 528.108 1427.38C531.602 1452.11 535.667 1475.67 537.739 1483.18C541.882 1498.2 551.419 1517.93 561.328 1531.92C575.317 1551.8 577.435 1554.16 597.902 1573.45C621.244 1595.39 624.552 1601.42 623.933 1620.57C622.898 1652.67 621.352 1660.03 614.55 1665.62C609.557 1669.75 601.782 1672.69 596.047 1672.69C594.393 1672.69 589.369 1671.07 584.886 1669.01ZM608.599 1662.09C613.731 1657.23 612.092 1654.73 600.174 1649.13C585.953 1642.51 576.771 1632.49 582.877 1630.28C584.422 1629.7 586.957 1631.46 590.374 1635.44C594.037 1639.56 596.696 1641.33 599.479 1641.33C603.374 1641.33 603.359 1641.33 597.299 1635.29C589.415 1627.49 587.854 1620.86 593.094 1617.62C595.119 1616.3 596.789 1614.09 596.789 1612.61C596.789 1611.29 598.134 1609.38 599.788 1608.49C601.504 1607.61 602.787 1605.55 602.787 1603.49C602.787 1597.89 605.94 1597.6 610.531 1602.9C613.654 1606.43 614.751 1607.02 614.751 1605.25C614.751 1601.13 610.346 1593.91 603.807 1587.44C596.294 1580.07 593.419 1579.63 594.084 1586.11C594.47 1589.94 594.006 1590.82 591.147 1591.12C588.241 1591.56 587.097 1590.23 583.217 1581.84C574.993 1564.17 570.927 1557.1 565.316 1550.33C557.293 1540.61 548.869 1527.65 549.951 1526.62C550.461 1526.18 550.059 1525.74 549.039 1525.74C546.936 1525.74 537.213 1506.74 532.529 1493.34C527.335 1478.62 517.86 1419.28 512.31 1366.8C509.095 1336.42 505.879 1317.72 501.659 1304.76C499.743 1298.89 497.702 1291.49 497.099 1288.36C494.44 1274.16 478.348 1238.5 475.087 1239.55C474.097 1239.85 472.706 1243.14 471.98 1246.85C470.867 1252.61 470.218 1253.52 467.497 1253.15C464.421 1252.72 464.266 1251.81 463.292 1227.04C462.751 1212.92 461.576 1199.13 460.68 1196.39C459.783 1193.65 459.057 1188.16 459.057 1184.18C459.057 1177.6 457.882 1172.47 450.756 1147.9C445.175 1128.7 443.908 1112.47 443.197 1050.92C442.578 997.336 441.233 972.495 438.59 965.928C436.519 960.803 430.907 965.427 422.498 979.165C419.546 984.024 415.851 988.368 414.321 988.839C412.79 989.296 409.127 991.917 406.174 994.626C403.237 997.35 399.806 999.589 398.553 999.589C397.301 999.589 393.931 997.336 391.041 994.597C388.166 991.843 385.151 989.605 384.363 989.605C383.575 989.605 381.859 988.589 380.576 987.367C376.819 983.789 377.67 973.143 382.663 961.083C387.47 949.495 388.568 936.61 385.63 926.494C383.126 917.925 380.174 920.119 375.892 933.739C372.12 945.769 361.825 952.764 355.703 947.477C353.06 945.21 352.766 943.045 352.828 926.274C352.844 915.554 353.787 903.656 355.008 898.341C356.198 893.231 357.172 884.705 357.203 879.36C357.296 862.382 362.088 846.803 371.533 832.771C373.388 830.002 375.629 824.539 376.51 820.608C377.994 814.07 380.777 770.47 380.808 753.595C380.808 749.663 381.256 737 381.797 725.441L382.786 704.429L377.639 689.615C372.058 673.536 365.504 659.871 355.271 642.923C341.188 619.599 341.25 618.376 360.094 561.2C364.391 548.139 366.277 533.252 363.618 533.281C363 533.281 358.718 536.374 354.08 540.158C336.721 554.309 319.114 557.327 295.88 550.097C283.297 546.18 265.351 534.666 261.069 527.774C255.967 519.543 263.016 515.376 268.86 523.18C273.59 529.512 288.461 538.288 301.476 542.411C307.876 544.443 314.198 546.092 315.543 546.092C318.573 546.092 332.13 542.278 339.704 539.304C345.563 536.992 357.249 526.125 357.28 522.959C357.28 521.958 358.95 517.938 360.975 514.007C367.684 501.004 365.334 481.141 355.518 468.197C348.469 458.906 347.743 456.535 350.602 452.383C352.395 449.762 352.705 447.421 351.854 442.959C349.891 432.725 351.576 430.266 359.831 431.223C367.39 432.107 367.885 432.902 367.637 443.901C367.39 454.547 369.91 478.078 371.564 480.625C372.089 481.435 373.078 494.408 373.759 509.457C374.532 526.699 375.815 539.201 377.206 543.25C378.427 546.769 380.158 553.867 381.055 559.006C383.482 572.832 386.635 581.888 390.979 587.469C397.611 595.995 407.751 620.276 405.881 623.162C404.706 624.958 399.605 624.929 398.43 623.103C395.245 618.185 394.735 624.252 395.647 656.308C396.343 680.53 396.111 693.709 394.874 700.158C393.916 705.238 392.834 715.796 392.494 723.645C392.154 731.478 391.211 741.108 390.392 745.04C389.572 748.957 388.537 766.288 388.073 783.531C387.114 819.518 385.213 829.737 377.469 840.56C371.27 849.233 366.246 865.931 366.246 877.829C366.246 882.703 364.515 892.877 362.366 900.667C359.228 912.064 358.61 917.1 359.089 927.172C359.723 940.616 360.511 942.545 364.437 940.218C368.487 937.803 377.159 909.899 379.586 891.39C380.344 885.736 381.75 880.17 382.74 879.036C386.295 874.972 387.408 878.594 386.45 890.993C385.6 902.022 385.909 904.451 389.433 914.022C392.03 921.046 393.669 929.116 394.225 937.553C395.014 949.259 394.72 951.232 390.979 960.155C386.635 970.478 384.425 981.124 386.635 980.947C387.949 980.829 399.234 959.817 402.263 951.807C403.16 949.465 404.474 940.586 405.2 932.105C406.576 916.025 409.977 906.174 414.151 906.174C415.82 906.174 416.361 907.75 416.269 912.241C416.191 915.569 416.33 918.293 416.578 918.293C416.81 918.293 418.819 916.57 421.03 914.464L425.049 910.636L427.692 913.757C430.691 917.277 432.886 917.704 434.602 915.097C436.673 911.932 437.864 894.983 436.534 887.635C435.823 883.719 434.169 874.457 432.855 867.065C431.541 859.673 428.481 849.174 426.054 843.741C420.442 831.21 420.442 828.707 425.992 826.866C431.077 825.173 431.51 823.921 433.767 804.013C434.834 794.545 438.265 779.761 443.32 762.857C454.512 725.456 455.718 719.492 457.712 691.883C460.448 654.143 457.944 623.383 448.746 581.697C443.552 558.137 441.172 535.269 438.868 486.707C436.441 435.67 434.988 421.932 430.567 408.105C427.182 397.518 426.656 396.517 415.928 379.966C405.479 363.828 399.589 357.849 388.336 351.886C383.435 349.294 377.979 346.334 376.201 345.304C372.197 343.007 359.182 343.964 349.768 347.247C332.408 353.314 321.742 355.155 299.281 355.994C274.888 356.892 270.467 356.009 273.404 350.752C274.641 348.573 277.763 348.146 296.963 347.542C314.461 346.997 322.36 346.055 334.804 342.992C343.445 340.872 351.53 338.177 352.766 336.999C355.023 334.849 353.756 333.332 342.703 324.969C336.814 320.522 322.267 313.542 316.146 312.232C306.284 310.126 302.033 307.785 293.763 299.848C284.472 290.939 281.705 284.843 278.722 266.585C277.362 258.353 275.414 250.799 274.394 249.813C272.879 248.355 270.776 249.283 263.619 254.598C244.884 268.484 222.315 277.01 200.813 278.335L194.83 278.718L193.717 290.836C190.765 323.04 190.811 322.863 185.865 323.408C183.314 323.673 178.831 326.147 175.384 329.151C172.076 332.051 164.502 337.603 158.535 341.505C152.568 345.392 147.683 349.382 147.683 350.34C147.668 351.665 155.52 352.195 179.465 352.475C208.341 352.828 211.309 353.093 211.757 355.361C212.607 359.528 206.718 360.397 174.039 360.927L142.922 361.427L139.379 357.496C135.933 353.682 130.698 352.313 129.082 354.816C128.643 355.493 122.709 358.144 115.895 360.721C85.2152 372.324 73.6957 384.722 66.6375 413.745C63.6665 425.967 63.3759 431.518 63.0018 483.349C62.5566 545.091 60.918 562.51 53.9 580.136C51.8271 585.334 48.5283 593.904 46.5698 599.16C44.6112 604.432 42.0436 610.528 40.8657 612.707C30.9586 631.084 29.0325 667.646 30.9617 800.656C31.5614 841.915 31.3234 849.027 29.0309 858.407C25.879 871.306 16.5593 894.733 12.4753 900.019C8.44687 905.246 9.75463 910.43 18.691 924.654C22.656 930.956 27.1775 939.335 28.7419 943.251C30.6293 947.978 35.0859 953.839 42.022 960.715C47.7631 966.414 52.9633 971.067 53.5785 971.067C56.0487 971.067 49.6336 960.023 43.2478 953.279C34.97 944.547 33.1258 940.542 29.3741 923.181C27.7665 915.731 25.7662 908.412 24.9314 906.925C21.0746 900.063 25.3318 894.247 30.7762 898.944C33.5741 901.359 36.5498 910.312 39.9243 926.494C40.9461 931.383 42.6527 936.522 43.7177 937.906C47.6055 942.927 47.9749 935.447 44.6112 919.854C41.2011 904.039 40.4452 881.23 42.8134 865.533C43.812 858.922 50.5224 828 56.126 804.219C58.0799 795.914 59.0646 784.444 60.8979 748.603C61.9506 728.003 63.3079 715.782 65.4952 707.241C68.7136 694.666 78.8665 674.699 89.4244 660.18C93.5595 654.497 95.7607 649.402 97.4302 641.642C98.6962 635.767 100.749 627.418 101.989 623.103C107.325 604.55 113.425 574.246 114.334 561.759C115.051 551.894 114.816 550.686 111.448 546.784C105.632 540.04 97.2957 526.037 94.6786 518.601C89.9732 505.231 93.3523 479.477 101.933 463.309C105.472 456.638 105.955 454.312 105.346 446.846C104.561 437.261 105.943 433.432 110.197 433.432C113.112 433.432 113.732 435.111 115.573 447.921C116.387 453.576 115.754 456.197 111.273 465.738C104.672 479.801 100.587 498.398 101.95 508.19C103.045 516.053 109.33 528.407 116.385 536.55C121.82 542.838 128.935 544.973 144.762 545.106C154.361 545.179 157.561 544.531 165.723 540.879C171.025 538.509 179.882 533.252 185.416 529.217C196.361 521.192 197.783 520.677 199.19 524.196C200.596 527.657 196.531 532.604 186.483 539.643C172.014 549.788 163.188 553.248 148.982 554.382L136.44 555.369L136.918 576.764C137.315 594.611 136.896 599.956 134.389 609.085C128.996 628.728 121.301 641.598 103.317 661.093C97.4271 667.469 89.8588 677.114 86.4982 682.503C73.7777 702.897 72.3833 710.407 68.4214 779.967C67.6841 792.91 66.3748 805.25 65.5106 807.385C64.6465 809.52 62.9029 816.897 61.6368 823.788C60.3693 830.665 57.6363 843.358 55.5618 851.987C50.3864 873.529 49.3553 893.894 52.5706 911.166C53.9572 918.617 55.9884 929.852 57.0829 936.125C59.5268 950.128 61.1453 956.106 65.979 968.932C68.0504 974.409 69.7616 981.816 69.7817 985.364C69.8312 993.655 71.0307 997.571 89.0024 1048.08C106.632 1097.61 113.765 1115.08 122.571 1130.29C133.786 1149.64 135.023 1155.02 128.254 1155.02C125.736 1155.02 125.215 1155.95 125.224 1160.37C125.242 1168.91 130.517 1183.15 135.947 1189.33C138.69 1192.47 143.846 1197.89 147.405 1201.38C155.381 1209.23 155.35 1212.97 147.328 1212.38C141.872 1211.97 141.854 1211.98 142.679 1216.82C144.36 1226.68 137.465 1225 130.934 1213.98C127.254 1207.77 125.974 1206.59 124.296 1207.92C121.414 1210.2 121.486 1235.69 124.428 1254.14C125.678 1261.99 127.694 1274.81 128.911 1282.66C130.126 1290.51 132.506 1302.38 134.202 1309.05C135.898 1315.7 138.295 1325.98 139.532 1331.86C143.775 1352.04 154.253 1395.67 157.499 1406.76C158.658 1410.59 160.915 1419.28 162.507 1426.05C164.115 1432.68 167.284 1445.49 169.572 1454.47C173.096 1468.46 173.715 1473.91 173.699 1490.84C173.653 1514.84 172.586 1521.47 168.737 1521.47C167.238 1521.47 165.151 1520.58 164.115 1519.41C161.595 1516.46 159.54 1518.23 152.661 1529.12C143.585 1543.7 135.482 1551.65 122.672 1558.87C115.314 1562.99 110.083 1567.11 108.962 1569.47C107.042 1573.45 106.767 1573.3 113.83 1570.65C116.122 1569.77 123.715 1576.69 123.715 1579.63C123.715 1583.46 119.106 1591.85 113.256 1598.77C105.269 1608.34 105.614 1611.14 113.663 1602.16C127.54 1586.55 129.399 1584.93 131.364 1586.7C133.707 1588.91 131.958 1592.88 124.4 1602.31C121.148 1606.28 119.611 1609.38 120.63 1609.67C123.072 1610.41 131.746 1604.52 135.105 1599.66C138.101 1595.53 141.099 1593.77 143.248 1594.94C146.864 1597.15 137.731 1608.79 127.591 1614.97C118.296 1620.57 115.6 1623.36 116.778 1626.31C118.991 1631.9 127.821 1630.28 145.612 1621.16C151.47 1618.06 157.437 1615.71 158.875 1615.71C163.775 1615.71 172.478 1609.82 176.42 1603.78C180.578 1597.45 184.566 1587.73 190.178 1570.06C192.033 1564.17 194.97 1556.81 196.685 1553.57C200.72 1546.21 208.619 1538.7 212.267 1538.7C215.993 1538.7 217.508 1542.52 215.173 1546.06C214.153 1547.68 213.705 1549.3 214.153 1549.74C215.436 1550.92 228.498 1545.91 236.506 1541.05C248.316 1533.98 248.841 1528.24 239.86 1504.39C234.558 1490.1 231.544 1486.72 231.451 1494.67C231.389 1500.41 227.988 1516.02 226.195 1518.82C225.484 1519.85 225.082 1522.79 225.299 1525.15C225.53 1527.8 224.773 1530.3 223.459 1531.33C221.619 1532.81 220.831 1532.51 218.976 1529.86C216.982 1526.92 216.967 1525.15 218.883 1515.14C221.759 1500.12 221.743 1487.75 218.868 1478.62C215.328 1467.28 215.776 1460.8 220.414 1456.68C224.093 1453.44 224.417 1451.97 226.396 1430.03C228.282 1408.97 231.064 1342.78 230.972 1321.17C230.956 1316.45 232.1 1305.22 233.522 1296.21C237.665 1269.85 238.252 1249.41 235.377 1230.87C233.043 1215.87 227.03 1196.09 223.799 1192.82C221.187 1190.2 219.579 1195.44 219.548 1206.61C219.517 1219.45 218.729 1222.05 214.833 1222.05C210.737 1222.05 209.408 1217.38 209.748 1204.22C209.964 1195.71 211.031 1190.47 213.968 1183.55C216.116 1178.45 219.996 1167.22 222.593 1158.59C229.225 1136.47 229.75 1122.64 225.438 1082.92C221.975 1051.04 221.975 1050.74 224.526 1022.03C228.607 976.044 230.415 937.538 229.256 921.4L228.189 906.439L215.993 894.188C209.299 887.444 201.447 879.478 198.571 876.474C193.006 870.672 174.147 845.198 167.933 835.082C165.893 831.769 156.463 821.197 146.987 811.596C127.11 791.453 125.436 789.126 128.651 786.063C130.099 784.694 131.684 784.37 133.156 785.165C139.564 788.625 171.767 823.818 183.144 839.809C190.147 849.645 197.768 860.262 200.086 863.398C206.641 872.248 226.968 891.523 228.978 890.787C229.967 890.433 231.636 887.12 232.657 883.439C236.552 869.612 259.106 843.402 266.263 844.403C271.828 845.198 270.823 847.878 260.991 858.421C245.719 874.795 241.854 881.863 240.911 895.145C240.231 904.495 240.618 907.455 243.199 913.021C244.899 916.688 248.408 926.833 251.005 935.55C253.602 944.267 259.028 958.388 263.078 966.929C267.113 975.469 270.436 982.817 270.436 983.274C270.436 983.73 273.744 990.636 277.81 998.617C286.327 1015.36 299.235 1047.09 303.455 1061.61C305.047 1067.1 307.752 1076.1 309.453 1081.58C312.807 1092.38 314.137 1097.05 321.17 1122.63C331.712 1160.96 346.753 1194.9 363.463 1218.08C364.994 1220.2 366.246 1222.43 366.246 1223.07C366.246 1223.69 368.735 1226.75 371.78 1229.9C377.608 1235.92 388.629 1257.58 388.676 1263.09C388.707 1267.86 384.317 1268.85 380.916 1264.84C376.108 1259.19 374.81 1262.91 375.583 1280.04C376.727 1305.19 385.553 1328.01 407.226 1361.81C410.997 1367.68 417.552 1378.92 421.787 1386.76C426.023 1394.6 430.676 1402.62 432.129 1404.58C435.483 1409.12 460.077 1455.79 467.033 1470.96C469.924 1477.15 475.01 1489.96 478.333 1499.38C488.798 1529.12 489.958 1531.92 497.037 1545.32C504.009 1558.43 505.122 1561.96 502.618 1563.58C499.789 1565.2 496.234 1562.26 492.555 1555.33C489.076 1548.86 488.551 1548.41 486.356 1550.48C484.887 1551.95 483.712 1556.22 483.295 1561.52C482.692 1569.47 482.97 1570.5 486.897 1574.48C491.751 1579.19 502.664 1585.67 505.988 1585.67C509.296 1585.67 509.79 1582.72 507.271 1577.57C503.035 1569.03 508.708 1565.2 514.397 1572.71C518.478 1578.31 521.647 1585.52 525.187 1597.74C528.34 1608.49 542.685 1633.82 549.147 1639.86C551.373 1642.06 556.273 1644.57 560.029 1645.45C564.914 1646.63 568.98 1649.13 574.313 1654.14C588.38 1667.39 600.112 1670.19 608.599 1662.09ZM448.607 1241.34C447.216 1239.72 447.463 1237.68 449.766 1231.79C453.26 1222.86 456.413 1220.34 459.907 1223.67C462.102 1225.76 462.025 1226.57 458.979 1233.33C455.239 1241.62 451.42 1244.57 448.607 1241.34ZM412.512 1233.15C400.919 1221.77 393.761 1201.25 399.744 1196.52C403.33 1193.69 406.654 1196.96 406.684 1203.34C406.7 1210.51 412.62 1221.7 419.963 1228.4C427.089 1234.92 428.048 1239.16 422.375 1239.16C419.948 1239.16 416.5 1237.06 412.512 1233.15ZM156.602 1225.03C152.985 1222.11 152.97 1222.01 155.814 1219.92C157.406 1218.74 160.251 1217.77 162.121 1217.77C167.377 1217.77 168.706 1213.48 168.273 1197.93C167.949 1186.09 168.304 1183.27 170.422 1181.23C175.199 1176.67 177.069 1180.69 178.167 1197.83C178.939 1210.05 178.692 1214.4 177.038 1217.44C172.061 1226.62 162.832 1230.03 156.602 1225.03ZM273.883 838.955C272.523 835.568 275.367 832.093 279.943 831.578C283.236 831.195 283.9 831.681 283.9 834.493C283.9 840.604 275.97 844.138 273.883 838.955ZM305.866 773.665C305.403 772.546 306.407 768.202 308.061 764.035C309.731 759.853 311.725 754.42 312.498 751.96C314.43 745.761 317.615 743.391 320.706 745.85C322.36 747.16 322.824 749.045 322.206 752.078C321.155 757.232 315.466 771.368 313.41 773.915C311.478 776.315 306.871 776.168 305.866 773.665ZM119.92 759.721C114.42 753.536 105.444 734.998 106.036 731.037C106.367 728.813 107.54 727.915 110.109 727.915C113.15 727.915 114.403 729.461 118.084 737.736C120.486 743.14 124.143 750.002 126.209 752.976C132.927 762.651 127.605 768.349 119.92 759.721ZM195.698 719.242C190.21 714.839 189.7 709.759 194.415 706.608C198.604 703.81 202.02 703.81 207.631 706.564C212.995 709.214 213.676 715.678 209.054 720.081C205.034 723.91 201.216 723.674 195.698 719.242ZM311 636.061C309.377 635.074 309.13 632.733 309.887 625.798C311.309 612.84 319.626 598.866 325.917 598.866C330.307 598.866 330.292 602.606 325.871 609.247C323.537 612.766 320.785 619.392 319.734 624.001C316.843 636.827 315.452 638.741 311 636.061ZM118.886 525.065C116.64 523.74 114.513 521.943 114.159 521.06C113.108 518.453 115.699 515.715 119.461 515.45C122.426 515.243 122.894 514.537 122.5 510.87C121.959 505.849 124.8 504.126 130.321 506.114C134.808 507.748 135.861 509.353 136.025 514.846C136.11 517.702 134.908 520.353 132.554 522.518C127.546 527.141 123.649 527.863 118.886 525.065ZM325.453 521.737C324 520.942 322.826 519.514 322.841 518.571C322.856 514.139 326.304 505.834 329.751 501.932C336.506 494.305 342.349 497.397 342.241 508.573C342.195 514.257 339.196 518.851 333.724 521.649C329.859 523.607 328.854 523.622 325.453 521.737ZM220.925 363.459C218.375 361.045 218.158 360.132 219.72 358.35C220.925 356.981 223.043 356.465 225.547 356.936C228.33 357.466 231.437 356.45 236.105 353.505C243.834 348.617 251.594 347.925 253.836 351.93C255.521 354.919 253.388 357.864 249.554 357.864C248.271 357.864 243.525 359.763 238.996 362.075C229.18 367.111 225.084 367.42 220.925 363.459ZM227.433 346.423C224.002 345.112 221.497 339.208 223.213 336.542C223.754 335.718 226.274 335.04 228.809 335.04C235.502 335.04 237.79 331.639 246.617 308.653C252.244 293.958 256.108 287.98 259.926 287.98C263.945 287.98 263.806 291.455 259.416 300.997C257.484 305.208 254.408 312.938 252.599 318.18C247.853 331.889 240.975 343.286 235.951 345.76C233.586 346.923 231.452 347.836 231.205 347.777C230.958 347.733 229.257 347.115 227.433 346.423ZM207.183 319.712C205.916 318.342 202.994 311.245 200.722 303.956C196.842 291.573 196.733 290.542 199.068 288.318C201.247 286.242 201.819 286.198 203.566 288.024C205.776 290.336 208.992 298.464 212.779 311.363C214.804 318.254 214.897 319.992 213.274 320.963C210.476 322.657 209.811 322.524 207.183 319.712ZM602.263 1626.46C601.783 1625.13 600.686 1624.25 599.82 1624.25C598.831 1624.25 598.939 1625.28 600.098 1627.05C602.154 1630.14 603.607 1629.7 602.263 1626.46ZM609.312 1616.3C608.399 1614.09 605.772 1613.35 605.772 1615.41C605.772 1616.88 607.41 1618.5 608.971 1618.5C609.636 1618.5 609.791 1617.47 609.312 1616.3ZM113.244 1584.2C113.244 1581.55 110.517 1582.87 106.629 1587.29C101.306 1593.33 103.516 1595.98 108.991 1590.23C111.33 1587.73 113.244 1585.08 113.244 1584.2ZM403.007 980.932C403.904 976.691 406.841 969.55 409.499 965.074C412.653 959.787 414.647 954.177 415.203 949.038C416.193 939.879 413.426 937.803 411.772 946.461C410.612 952.557 403.192 971.067 400.039 975.764C398.88 977.501 397.798 980.196 397.628 981.757C396.53 992.462 400.673 991.829 403.007 980.932ZM421.634 965.191C421.634 964.411 420.969 964.161 420.135 964.647C419.315 965.132 418.635 966.163 418.635 966.958C418.635 967.739 419.315 967.989 420.135 967.503C420.969 967.017 421.634 965.972 421.634 965.191ZM438.082 939.246C438.097 935.477 437.525 932.738 436.799 933.15C435.021 934.21 433.398 944.635 434.573 947.536C436.165 951.483 438.051 947.006 438.082 939.246ZM426.689 932.105C427.338 926.612 427.153 924.109 426.148 924.698C425.313 925.199 424.633 929.204 424.633 933.592C424.633 943.531 425.406 942.972 426.689 932.105ZM385.06 624.958C383.267 604.55 381.798 596.098 377.547 581.874C374.641 572.14 371.874 563.821 371.411 563.379C369.927 561.965 367.948 566.354 361.564 585.187C357.9 596.024 355.04 607.524 354.608 613.134C353.927 622.308 354.159 623.147 360.729 634.809C364.485 641.494 369.54 649.77 371.952 653.215C374.363 656.646 376.852 661.079 377.47 663.037C378.104 664.995 380.376 669.81 382.525 673.727L386.451 680.854L386.884 665.599C387.116 657.206 386.297 638.918 385.06 624.958ZM119.412 622.234C125.307 610.101 128.184 597.305 128.034 583.891C127.898 571.669 126.3 563.732 124.732 567.487C124.241 568.665 121.446 580.887 118.521 594.64C115.597 608.408 112.536 621.881 111.721 624.59C110.907 627.285 110.24 630.716 110.24 632.188C110.24 636.783 114.675 631.982 119.412 622.234ZM160.666 328.974C176.743 316.605 182.107 309.596 182.107 300.967C182.107 297.242 182.818 290.512 183.699 286.007C184.565 281.486 184.827 275.832 184.271 273.417C183.73 271.017 178.861 262.889 173.481 255.349C155.426 230.067 147.311 208.112 150.619 193.446C151.469 189.662 151.763 184.169 151.268 181.239C149.892 173.037 153.2 146.636 156.725 137.668C159.492 130.63 161.238 128.671 170.884 121.883C183.529 112.975 188.847 105.524 191.196 93.4053C193.376 82.1408 192.526 80.4238 186.25 83.4954C183.56 84.806 181.009 86.3079 180.607 86.838C180.19 87.3681 176.727 89.8419 172.894 92.3156C165.799 96.9245 160.697 102.358 151.206 115.522C143.084 126.757 141.828 130.792 139.356 153.571C138.101 165.145 136.069 180.223 134.842 187.07C132.295 201.294 133.18 206.345 142.396 230.229C150.572 251.403 152.752 263.286 152.829 287.273C152.906 307.225 152.628 309.36 148.795 319.079C144.173 330.77 143.448 337.897 146.878 337.897C148.083 337.897 154.298 333.877 160.666 328.974ZM360.046 304.869L355.006 284.416L354.898 237.356C354.79 184.582 354.032 174.893 348.854 159.77C344.912 148.226 332.453 124.902 325.96 116.906C323.704 114.138 317.412 105.45 311.971 97.6019C301.289 82.1997 287.315 67.6029 277.7 61.8175C259.599 50.9358 227.662 56.9185 213.858 73.7726C208.556 80.2324 200.054 96.0705 200.085 99.4278C200.116 104.184 207.149 116.214 212.529 120.72C218.279 125.52 222.87 127.081 239.302 129.746C253.091 131.999 260.712 138.89 265.117 153.085C268.874 165.174 273.65 171.123 284.115 176.763C295.307 182.785 303.917 192.725 306.375 202.472C307.488 206.919 307.751 219.862 307.163 241.758C306.22 276.892 307.673 290.601 313.208 298.626C314.954 301.173 320.009 304.486 326.532 307.358C332.314 309.905 342.779 315.545 349.766 319.889C356.923 324.321 363.06 327.236 363.787 326.544C364.513 325.852 362.875 316.355 360.046 304.869ZM297.919 260.533C297.533 226.194 297.796 229.507 295.508 229.537C290.53 229.596 289.557 232.099 289.093 246.088C288.397 266.275 289.788 279.94 293.065 285.064C294.58 287.45 296.374 289.408 297.038 289.408C297.688 289.408 298.089 276.406 297.919 260.533ZM216.718 270.236C229.131 267.733 242.579 261.387 256.553 251.447C268.518 242.936 270.883 239.564 274.145 226.371C277.02 214.782 277.175 215.504 271.563 214.989C264.823 214.37 264.7 211.19 270.991 201.368C279.153 188.631 279.169 187.144 271.13 179.192C267.219 175.334 262.288 168.208 259.753 162.789C249.334 140.54 249.412 140.613 232.531 137.536C216.455 134.605 208.355 130.571 201.244 121.972C197.951 117.981 194.659 114.506 193.932 114.241C193.221 113.991 186.605 118.349 179.263 123.945C164.655 135.062 161.919 139.244 160.203 153.188C159.059 162.465 160.836 165.336 167.684 165.351C173.234 165.351 182.107 170.122 182.107 173.096C182.107 174.245 180.978 175.776 179.618 176.498C177.377 177.705 177.423 177.97 180.128 179.354C182.401 180.518 183.9 180.37 186.296 178.78C189.202 176.836 189.65 176.954 191.846 180.12C195.277 185.126 194.442 204.328 190.763 204.99C189.048 205.3 187.873 204.254 187.239 201.854C185.863 196.597 182.632 194.698 175.769 195.081C170.946 195.36 168.844 194.654 165.582 191.679C162.877 189.205 161.115 188.469 160.435 189.515C155.72 196.789 157.142 212.191 163.804 225.664C170.328 238.916 190.81 267.777 195.339 270.119C200.363 272.725 204.336 272.74 216.718 270.236ZM194.381 253.465C190.284 249.577 192.479 248.37 203.315 248.576C215.079 248.782 218.202 250.991 210.395 253.597C204.119 255.673 196.622 255.615 194.381 253.465ZM181.133 242.45C179.355 241.714 177.547 240.566 177.114 239.888C173.172 233.807 201.074 226.636 208.741 231.745C211.045 233.292 213.58 233.689 216.749 233.027C222.252 231.878 228.512 234.587 228.512 238.121C228.512 239.829 226.843 240.801 222.901 241.376C211.586 243.039 184.256 243.746 181.133 242.45ZM185.09 222.852C181.118 221.35 177.609 217.727 177.609 215.121C177.609 211.057 180.546 210.424 184.178 213.678C188.182 217.256 194.303 217.536 199.358 214.385C201.661 212.942 204.444 212.426 206.824 212.986C209.669 213.663 210.813 213.266 211.446 211.366C214.105 203.326 215.079 202.104 217.321 203.871C220.01 206.006 220.227 215.268 217.661 218.434C216.579 219.745 212.575 221.07 208.293 221.512C204.181 221.953 197.781 222.616 194.071 222.999C190.377 223.382 186.327 223.323 185.09 222.852ZM214.213 192.327C213.688 191.502 213.657 188.69 214.183 186.084C214.847 182.653 216.238 180.93 219.191 179.87C226.008 177.396 233.443 176.748 239.549 178.103C251.653 180.768 250.602 185.303 236.705 190.236C226.997 193.682 215.775 194.727 214.213 192.327ZM205.109 173.199C203.764 169.857 205.789 168.473 215.558 166.043C231.202 162.17 243.476 163.584 243.476 169.253C243.476 170.77 241.559 170.976 234.711 170.24C226.735 169.386 217.645 170.932 207.922 174.819C206.902 175.217 205.634 174.495 205.109 173.199ZM294.859 213.516C296.683 209.938 297.131 207.449 296.219 205.903C295.06 203.915 294.302 204.239 290.886 208.112C286.233 213.369 285.414 219.995 289.51 219.273C290.963 219.023 293.359 216.432 294.859 213.516ZM172.925 177.234L176.48 176.321L172.925 174.451C170.977 173.42 167.607 172.551 165.443 172.522C161.439 172.463 157.358 175.526 159.152 177.234C160.404 178.427 168.272 178.412 172.925 177.234Z" fill="#E49271"/>
<path id="underw" fill-rule="evenodd" clip-rule="evenodd" d="M65.7704 735.833C114.923 770.182 142.415 825.675 179.002 864.087C198.345 873.827 226.651 914.478 244.732 887.021C253.739 867.553 263.471 847.86 282.706 836.247C308.161 818.867 333.538 801.322 359.366 784.503C383.078 772.708 389.23 749.925 386.092 725.894C387.505 711.882 384.82 683.758 362.839 698.975C335.505 707.704 309.8 720.797 282.326 728.844C248.744 734.955 213.89 743.756 179.875 738.592C153.736 731.952 127.623 725.703 103.376 713.516C88.4538 703.298 69.2358 685.356 69.7875 717.065C68.6728 723.481 64.1809 729.887 65.7704 735.833Z" fill="#F4BAA3" stroke="#C66C49" stroke-width="5.08652" stroke-linecap="round" stroke-linejoin="round"/>
<path id="hair-out" d="M186.813 149C186.813 149 192.329 150.945 196.975 170.217C201.62 189.489 199.685 211.59 199.104 226.972C198.523 242.354 197.168 290.623 188.555 315.022C179.941 339.422 175.877 340.836 165.908 347.555C155.94 354.097 130.583 352.152 119.84 334.471C109.098 316.614 113.55 286.91 116.259 276.125C118.969 265.163 186.813 149 186.813 149Z" fill="#221B23"/>
<g id="left-ear">
<path id="Vector" d="M151.668 161.087C151.668 161.087 146.145 155.779 139.662 153.124C133.18 150.47 125.976 154.813 123.815 161.328C121.655 167.843 126.697 195.109 135.1 205.001C143.504 214.894 149.027 215.618 154.549 210.551C160.071 205.725 169.916 186.663 151.668 161.087Z" fill="#F4BAA3"/>
<path id="Vector_2" d="M154.549 164.948C155.51 166.395 156.23 167.843 157.19 169.291C158.151 170.738 158.871 172.427 159.591 173.875C160.312 175.564 161.032 177.012 161.512 178.701C161.993 180.39 162.713 182.079 162.953 184.009C163.193 184.974 163.193 185.94 163.433 186.663L163.673 189.559C163.673 193.419 163.193 197.039 162.233 200.658C161.032 204.277 159.591 207.414 157.19 210.068C156.71 210.792 155.99 211.275 155.51 211.999C154.789 212.481 154.309 212.964 153.589 213.446C152.148 214.412 150.708 215.135 149.027 215.135C147.346 215.377 145.665 215.135 144.225 214.412C142.784 213.688 141.343 212.723 140.143 211.757C138.942 210.792 137.742 209.586 136.541 208.138C135.341 206.932 134.38 205.484 133.42 204.036C129.818 198.004 127.657 191.248 125.736 184.492C124.776 181.114 124.056 177.736 123.335 174.116C122.615 170.497 122.135 167.119 122.375 163.258C122.375 162.293 122.615 161.328 122.855 160.122C123.095 159.639 123.095 159.157 123.335 158.674L124.056 157.468C125.016 155.779 126.217 154.572 127.417 153.366C130.058 151.194 133.18 150.229 136.301 150.712C137.742 150.953 139.423 151.435 140.623 152.159C142.064 152.883 143.264 153.607 144.705 154.572C147.346 156.261 149.747 158.191 152.148 160.363L154.549 164.948ZM143.985 155.779C142.544 155.055 141.343 154.572 139.903 154.09C138.462 153.607 137.262 153.366 135.821 153.366C133.18 153.607 130.539 154.572 128.378 156.502C127.417 157.468 126.457 158.433 125.736 159.88C125.496 160.604 125.016 161.087 124.776 161.811C124.536 162.535 124.296 163.017 124.296 163.982C123.816 167.119 124.056 170.738 124.536 174.116C125.016 177.494 125.496 181.114 126.217 184.492C127.897 191.248 130.298 198.004 134.14 203.071C136.061 205.484 138.462 207.655 140.623 209.586C143.024 211.275 145.665 212.481 148.066 211.999C149.267 211.757 150.467 211.275 151.668 210.551C152.868 209.827 153.829 208.862 154.789 207.655C156.47 205.243 158.151 202.588 158.871 199.452C159.832 196.315 160.312 193.178 160.552 189.8C160.552 186.422 160.312 183.044 159.591 179.666C158.151 172.91 155.27 166.637 151.428 161.328C149.267 158.915 146.626 157.226 143.985 155.779Z" fill="#E59E82"/>
<path id="Vector_3" d="M132.219 160.122C139.423 161.328 144.225 173.875 145.665 182.32C145.905 182.562 145.905 182.803 146.145 183.044C146.866 184.251 145.185 185.698 144.465 184.492C143.504 182.803 142.064 180.873 140.383 180.149C137.262 178.942 135.581 182.562 136.301 186.181C137.262 190.283 139.903 192.937 142.304 196.074C142.544 196.315 142.304 196.798 142.064 196.556C138.222 194.143 132.459 185.698 135.101 180.39C137.021 176.529 140.143 177.253 142.784 179.425C141.103 174.599 139.663 169.773 136.061 166.154C134.86 164.948 132.7 163.017 131.019 163.258C128.138 163.741 128.138 168.084 127.897 170.738C127.657 174.358 128.138 178.218 128.618 182.079C128.618 182.562 128.138 182.562 128.138 182.32C126.697 176.529 123.816 158.674 132.219 160.122Z" fill="#D58464"/>
</g>
<g id="right-ear">
<path id="Vector_4" d="M324.544 161.087C324.544 161.087 330.067 155.779 336.55 153.124C343.032 150.47 350.236 154.813 352.397 161.328C354.558 167.843 349.515 195.108 341.112 205.001C332.708 214.894 327.185 215.618 321.663 210.551C316.141 205.725 306.296 186.663 324.544 161.087Z" fill="#F4BAA3"/>
<path id="Vector_5" d="M324.544 160.846C326.945 158.674 329.346 156.744 331.988 155.055C333.188 154.09 334.629 153.366 336.069 152.642C337.51 151.918 338.951 151.435 340.391 151.194C343.513 150.953 346.634 151.677 349.275 153.848C350.476 154.813 351.676 156.261 352.637 157.95L353.357 159.157C353.597 159.639 353.597 160.122 353.837 160.604C354.077 161.569 354.317 162.776 354.317 163.741C354.558 167.602 353.837 171.221 353.357 174.599C352.637 178.218 351.916 181.596 350.956 184.974C349.035 191.73 346.874 198.487 343.273 204.519C342.312 205.966 341.352 207.173 340.151 208.621C339.191 209.827 337.99 211.034 336.55 212.24C335.349 213.205 333.908 214.17 332.468 214.894C331.027 215.618 329.346 215.859 327.666 215.618C325.985 215.377 324.544 214.653 323.104 213.929C322.383 213.446 321.663 212.964 321.183 212.481C320.462 211.999 319.982 211.275 319.502 210.551C317.341 207.897 315.66 204.519 314.46 201.141C313.499 197.521 312.779 193.902 313.019 190.041L313.259 187.146C313.259 186.181 313.499 185.216 313.739 184.492C313.98 182.562 314.7 180.872 315.18 179.183C315.9 177.494 316.381 175.805 317.101 174.358C317.821 172.91 318.542 171.221 319.502 169.773C320.462 168.326 321.183 166.878 322.143 165.43L324.544 160.846ZM324.544 161.087C320.703 166.395 317.821 172.91 316.381 179.425C315.66 182.803 315.42 186.181 315.42 189.559C315.42 192.937 315.9 196.074 317.101 199.21C318.061 202.347 319.502 205.001 321.183 207.414C322.143 208.621 323.104 209.586 324.304 210.31C325.505 211.033 326.465 211.757 327.906 211.757C330.307 212.24 332.948 211.033 335.349 209.344C337.75 207.414 339.911 205.243 341.832 202.83C345.674 197.763 348.075 191.007 349.755 184.251C350.716 180.872 351.196 177.494 351.436 173.875C351.916 170.497 351.916 166.878 351.676 163.741C351.676 163.017 351.436 162.293 351.196 161.569C350.956 160.846 350.716 160.122 350.236 159.639C349.515 158.433 348.555 157.226 347.594 156.261C345.434 154.572 343.032 153.366 340.151 153.124C338.711 153.124 337.51 153.366 336.069 153.848C334.629 154.331 333.428 154.813 331.988 155.537C329.586 157.226 326.945 158.915 324.544 161.087Z" fill="#E59E82"/>
<path id="Vector_6" d="M343.993 160.122C336.789 161.328 331.987 173.875 330.547 182.32C330.307 182.561 330.307 182.803 330.066 183.044C329.346 184.25 331.027 185.698 331.747 184.492C332.708 182.803 334.148 180.872 335.829 180.149C338.95 178.942 340.631 182.561 339.911 186.181C338.95 190.283 336.309 192.937 333.908 196.074C333.668 196.315 333.908 196.797 334.148 196.556C337.99 194.143 343.753 185.698 341.111 180.39C339.19 176.529 336.069 177.253 333.428 179.425C335.109 174.599 336.549 169.773 340.151 166.154C341.351 164.947 343.512 163.017 345.193 163.258C348.074 163.741 348.074 168.084 348.315 170.738C348.555 174.358 348.074 178.218 347.594 182.079C347.594 182.561 348.074 182.561 348.074 182.32C349.515 176.529 352.396 158.674 343.993 160.122Z" fill="#D58464"/>
</g>
<path id="shape-face" d="M339.997 141.238C337.071 72.5808 291.95 35 240 35C187.806 35 142.93 72.5808 140.003 141.238C140.003 141.238 139.759 173.76 143.905 200.259C148.051 226.999 161.441 241.261 181.197 264.869C200.952 288.477 217.464 299.318 228.439 297.873C228.439 297.873 237.415 296.307 240.098 296.307C242.781 296.307 252.146 297.294 252.146 297.294C263.121 298.74 279.048 288.285 298.803 264.676C318.559 241.068 331.949 226.999 336.095 200.259C340.241 173.76 339.997 141.238 339.997 141.238Z" fill="#F4BAA3"/>
<path id="head" d="M179.538 268.103C200.282 291.887 217.184 302.323 228.708 300.867C228.708 300.867 238.183 299.41 241 299.41C243.817 299.41 253.292 300.867 253.292 300.867C264.817 302.323 281.719 291.887 302.462 268.103C323.205 244.319 337.546 228.301 341.9 201.362C346.253 174.423 345.997 141.902 345.997 141.902C342.924 72.734 295.624 34 241.077 34C186.53 34 139.076 72.734 136.003 141.659C136.003 141.659 135.747 174.423 140.1 201.119C144.454 228.058 158.795 244.319 179.538 268.103ZM138.308 153.284L138.052 147.387V141.465C138.564 125.981 141.637 110.497 148.039 96.4938C151.112 89.3586 155.21 82.733 160.075 76.5928C162.38 73.632 165.197 70.6954 167.758 68.0015L169.807 66.0356C170.575 65.3076 171.087 64.7979 171.856 64.0698C173.392 62.8321 174.673 61.6186 176.465 60.3809C182.611 55.7211 189.27 51.7895 196.44 48.5859C203.611 45.6251 211.038 43.1738 218.464 41.6934C233.573 38.7325 249.451 38.9995 264.56 42.1788C268.402 43.1738 271.987 43.9019 275.572 45.1397C279.158 46.3774 282.743 47.8336 286.328 49.314C293.243 52.5176 299.901 56.4492 306.047 61.1089C312.193 65.7687 317.571 71.4235 322.437 77.3209C323.717 78.8014 324.742 80.5245 326.022 81.9807C326.534 82.7087 327.047 83.7038 327.559 84.4319L329.095 86.8831C330.12 88.6062 331.144 90.3293 331.912 92.0525C332.681 93.7756 333.705 95.4987 334.473 97.2218C341.132 111.225 344.461 126.976 344.973 142.46C344.973 146.392 344.973 150.323 344.717 154.255C344.461 158.187 344.461 162.118 343.949 166.05L343.436 171.947C343.18 173.913 343.18 175.879 342.924 177.845C342.412 181.777 341.9 185.708 341.388 189.397L340.875 192.358L340.363 195.319C340.107 197.285 339.595 199.251 339.339 200.974C339.083 202.939 338.571 204.663 338.058 206.628C337.802 207.623 337.546 208.352 337.29 209.322L336.522 212.016C333.961 219.151 330.632 226.02 326.278 232.427C321.925 238.81 317.059 244.707 311.937 250.605L308.096 255.022L303.998 259.439L296.06 268.297C290.938 273.952 285.304 279.607 279.67 284.509C278.133 285.747 276.853 286.96 275.316 287.955C273.78 289.193 272.243 290.164 270.707 291.159C267.634 293.125 264.56 294.848 261.487 296.086C259.951 296.571 258.414 297.081 257.134 297.323C256.366 297.566 253.036 297.566 253.036 297.566L246.89 296.838C245.866 296.595 241 296.352 240.744 296.352H239.72C238.439 296.352 234.342 296.838 233.317 297.081L227.427 297.809C225.123 298.051 222.049 297.566 218.976 296.086C215.903 294.848 212.574 292.882 209.757 290.916C206.684 288.708 203.611 286.499 200.794 284.024C195.16 279.097 189.526 273.442 184.404 267.545C179.026 261.647 173.904 255.75 168.783 249.61C164.48 244.416 158.846 237.523 153.315 227.84C151.932 225.437 148.731 218.181 147.86 215.584L143.174 199.954C142.405 196.265 141.893 192.334 141.381 188.402C140.357 180.781 139.588 172.918 138.82 165.298C138.82 161.148 138.564 157.216 138.308 153.284Z" fill="#C66C49"/>
<g id="mouth">
<path id="Vector_7" d="M209.782 251.6C209.782 251.6 215.547 250.876 218.927 249.187C222.306 247.498 229.065 244.12 234.234 243.879C239.403 243.638 243.975 244.844 250.138 247.257C256.3 249.67 262.463 251.6 265.445 251.118C265.445 251.118 263.06 254.013 258.487 257.391C253.915 260.769 246.957 264.388 239.005 264.63C231.053 264.871 224.493 263.423 218.927 259.804C212.963 256.185 210.18 253.289 209.782 251.6Z" fill="#DA7C87"/>
<path id="Vector_8" d="M208.788 252.324C217.933 258.597 228.469 253.048 238.21 253.53C246.957 253.772 258.885 258.115 266.837 251.841C267.632 251.359 267.036 250.152 266.24 250.152C261.469 251.117 257.096 252.324 252.325 252.083C247.553 251.841 242.981 250.876 238.21 250.876C228.469 250.635 218.728 255.219 209.186 251.117C208.589 250.635 208.192 251.841 208.788 252.324Z" fill="#CB5F6C"/>
<path id="Vector_9" d="M219.921 258.115C229.264 262.699 241.987 263.665 250.933 257.15C251.331 256.908 251.132 255.943 250.734 255.943C245.565 256.185 240.595 257.632 235.427 258.115C230.258 258.356 225.089 257.874 220.119 257.391C219.722 257.15 219.722 257.874 219.921 258.115Z" fill="#E99CA5"/>
<path id="Vector_10" d="M232.047 247.257C236.222 247.257 240.198 248.463 244.373 249.67C244.969 249.911 245.367 248.946 244.77 248.463C240.794 246.051 236.222 245.809 232.047 246.533C231.65 246.533 231.65 247.016 232.047 247.257Z" fill="#E99CA5"/>
</g>
<g id="eye-left">
<path id="Vector_11" d="M218.897 174.599C218.897 174.599 215.056 170.015 208.573 166.154C202.09 162.293 192.966 159.398 184.322 160.363C175.918 161.328 168.715 163.5 168.955 163.741C169.195 163.982 171.596 169.291 177.119 172.427C182.641 175.564 188.884 178.701 196.808 178.942C204.731 178.942 211.214 177.977 214.816 176.529C218.417 175.082 218.897 174.599 218.897 174.599Z" fill="white"/>
<path id="Vector_12" d="M194.887 155.055C201.85 155.055 207.373 160.604 207.373 167.602C207.373 174.599 201.85 180.149 194.887 180.149C187.924 180.149 182.401 174.599 182.401 167.602C182.401 160.604 187.924 155.055 194.887 155.055Z" fill="#3E4442"/>
<path id="Vector_13" d="M194.887 180.631C187.684 180.631 181.921 174.84 181.921 167.602C181.921 160.363 187.684 154.572 194.887 154.572C202.09 154.572 207.852 160.363 207.852 167.602C207.852 174.84 202.09 180.631 194.887 180.631ZM194.887 155.778C188.404 155.778 183.122 161.087 183.122 167.602C183.122 174.116 188.404 179.425 194.887 179.425C201.37 179.425 206.652 174.116 206.652 167.602C206.652 161.087 201.37 155.778 194.887 155.778Z" fill="#1B2522"/>
<path id="Vector_14" d="M194.887 160.846C198.489 160.846 201.61 163.982 201.61 167.602C201.61 171.221 198.489 174.358 194.887 174.358C191.285 174.358 188.164 171.221 188.164 167.602C188.164 163.982 191.285 160.846 194.887 160.846Z" fill="black"/>
<path id="Vector_15" d="M191.765 160.846C192.966 160.846 194.166 161.811 194.166 163.258C194.166 164.706 193.206 165.671 191.765 165.671C190.325 165.671 189.364 164.706 189.364 163.258C189.364 161.811 190.565 160.846 191.765 160.846ZM199.449 171.462C199.929 171.462 200.409 171.945 200.409 172.427C200.409 172.91 199.929 173.393 199.449 173.393C198.969 173.393 198.488 172.91 198.488 172.427C198.488 171.945 198.969 171.462 199.449 171.462Z" fill="white"/>
<path id="Vector_16" d="M167.827 171.535C167.827 188.184 179.664 201.696 194.287 201.696C208.909 201.696 220.746 188.184 220.746 171.535C220.746 154.886 208.909 141.374 194.287 141.374C179.664 141.374 167.827 154.862 167.827 171.535ZM168.835 163.838C168.667 163.572 175.798 161.594 184.298 160.556C192.798 159.519 201.922 162.462 208.453 166.251C214.984 170.063 218.85 174.647 218.85 174.647C218.85 174.647 218.009 175.058 214.576 176.529C211.142 178.001 204.443 179.111 196.616 179.039C188.788 178.942 182.617 175.757 177.023 172.572C171.405 169.363 169.003 164.079 168.835 163.838Z" fill="#F4BAA3"/>
<path id="Vector_17" d="M219.234 173.634C215.296 163.355 207.901 154.837 196.76 152.449C185.307 150.012 175.919 155.127 167.755 162.607C167.611 162.752 167.323 162.559 167.467 162.366C180.961 142.17 214.6 150.832 219.45 173.537C219.474 173.706 219.282 173.754 219.234 173.634Z" fill="#E59E82"/>
<path id="Vector_18" d="M150.587 165.213C155.701 165.913 160.215 164.923 164.681 163.548C160.288 163.355 155.99 161.98 152.268 159.229C151.884 158.964 152.1 158.191 152.628 158.409C158.511 160.821 164.417 162.124 170.516 161.666C172.485 161.014 174.502 160.411 176.591 159.929C181.681 158.746 187.011 158.481 192.15 159.301C202.21 160.894 213.687 166.25 219.45 175.033C219.546 175.202 219.33 175.323 219.21 175.226C208.861 166.878 198.993 161.328 185.283 161.642C180.096 161.762 175.03 163.331 169.94 164.754C180.961 179.232 201.634 182.175 217.769 175.082C217.841 175.033 217.913 175.154 217.841 175.202C202.042 183.092 179.28 180.704 168.859 165.044C162.713 166.733 156.59 168.084 150.323 166.25C149.651 166.033 149.939 165.116 150.587 165.213Z" fill="#594108"/>
</g>
<g id="eye-right">
<path id="Vector_19" d="M257.315 174.599C257.315 174.599 261.157 170.015 267.639 166.154C274.122 162.293 283.246 159.398 291.89 160.363C300.294 161.328 307.497 163.5 307.257 163.741C307.017 163.982 304.616 169.291 299.093 172.427C293.571 175.564 287.328 178.701 279.405 178.942C271.481 178.942 264.998 177.977 261.397 176.529C257.795 175.082 257.315 174.599 257.315 174.599Z" fill="white"/>
<path id="Vector_20" d="M281.325 155.055C288.288 155.055 293.811 160.604 293.811 167.602C293.811 174.599 288.288 180.149 281.325 180.149C274.362 180.149 268.84 174.599 268.84 167.602C268.84 160.604 274.362 155.055 281.325 155.055Z" fill="#3E4442"/>
<path id="Vector_21" d="M281.325 180.631C274.122 180.631 268.359 174.84 268.359 167.602C268.359 160.363 274.122 154.572 281.325 154.572C288.528 154.572 294.291 160.363 294.291 167.602C294.291 174.84 288.528 180.631 281.325 180.631ZM281.325 155.778C274.842 155.778 269.56 161.087 269.56 167.602C269.56 174.116 274.842 179.425 281.325 179.425C287.808 179.425 293.09 174.116 293.09 167.602C293.09 161.087 287.808 155.778 281.325 155.778Z" fill="#1B2522"/>
<path id="Vector_22" d="M281.325 160.846C284.927 160.846 288.048 163.982 288.048 167.602C288.048 171.221 284.927 174.358 281.325 174.358C277.723 174.358 274.602 171.221 274.602 167.602C274.602 163.982 277.723 160.846 281.325 160.846Z" fill="black"/>
<path id="Vector_23" d="M278.444 160.846C279.645 160.846 280.845 161.811 280.845 163.258C280.845 164.706 279.885 165.671 278.444 165.671C277.003 165.671 276.043 164.706 276.043 163.258C276.043 161.811 277.003 160.846 278.444 160.846ZM286.127 171.462C286.608 171.462 287.088 171.945 287.088 172.427C287.088 172.91 286.608 173.393 286.127 173.393C285.647 173.393 285.167 172.91 285.167 172.427C285.167 171.945 285.647 171.462 286.127 171.462Z" fill="white"/>
<path id="Vector_24" d="M281.95 141.374C267.351 141.374 255.49 154.886 255.49 171.535C255.49 188.184 267.327 201.696 281.95 201.696C296.572 201.696 308.409 188.184 308.409 171.535C308.409 154.886 296.548 141.374 281.95 141.374ZM299.213 172.548C293.619 175.733 287.448 178.942 279.621 179.015C271.793 179.111 265.094 177.977 261.661 176.505C258.227 175.033 257.387 174.623 257.387 174.623C257.387 174.623 261.228 170.039 267.783 166.226C274.314 162.414 283.438 159.494 291.938 160.532C300.438 161.569 307.593 163.548 307.401 163.813C307.209 164.079 304.808 169.363 299.213 172.548Z" fill="#F4BAA3"/>
<path id="Vector_25" d="M256.978 173.634C260.916 163.355 268.311 154.837 279.452 152.449C290.905 150.012 300.294 155.127 308.457 162.607C308.601 162.752 308.889 162.559 308.745 162.366C295.251 142.17 261.612 150.832 256.762 173.537C256.738 173.706 256.93 173.754 256.978 173.634Z" fill="#E59E82"/>
<path id="Vector_26" d="M325.625 165.213C320.511 165.913 315.997 164.923 311.531 163.548C315.925 163.355 320.223 161.98 323.944 159.229C324.328 158.964 324.112 158.191 323.584 158.409C317.701 160.821 311.795 162.124 305.696 161.666C303.727 161.014 301.71 160.411 299.621 159.929C294.531 158.746 289.201 158.481 284.063 159.301C274.002 160.894 262.525 166.25 256.762 175.033C256.666 175.202 256.883 175.323 257.003 175.226C267.351 166.878 277.219 161.328 290.93 161.642C296.116 161.762 301.182 163.331 306.272 164.754C295.251 179.232 274.578 182.175 258.443 175.082C258.371 175.033 258.299 175.154 258.371 175.202C274.17 183.092 296.932 180.704 307.353 165.044C313.5 166.733 319.622 168.084 325.889 166.25C326.561 166.033 326.273 165.116 325.625 165.213Z" fill="#594108"/>
</g>
<g id="left-eyebrown">
<path id="Vector_27" d="M173.037 138.165C173.277 137.682 173.998 137.441 174.478 137.199C174.958 136.958 175.438 136.717 175.918 136.717C176.879 136.234 177.839 135.752 178.8 135.51C180 135.269 181.681 134.304 182.881 135.028C186.723 133.58 191.765 134.545 195.127 136.476C199.689 136.958 204.491 138.406 207.852 140.819C208.093 141.06 208.333 141.301 208.333 141.543C209.053 141.784 209.533 142.025 210.254 142.267C212.655 143.232 215.296 143.956 217.697 145.162C217.937 145.162 218.177 145.403 218.417 145.403C219.137 145.645 219.378 147.092 218.897 147.334C218.657 147.575 218.657 147.816 218.417 148.057C216.496 149.505 214.095 148.54 212.174 147.816C210.494 147.092 208.573 146.368 207.372 144.921C205.451 144.197 204.011 143.232 202.33 142.267C202.09 142.267 201.85 142.025 201.61 142.025C198.728 141.543 195.607 140.336 192.726 138.888C191.045 138.647 189.604 138.165 187.924 138.165C185.763 137.923 183.602 138.647 181.201 137.923H180.961C180.48 138.165 180 138.165 179.52 138.406C177.599 138.888 175.918 139.371 173.998 139.371C173.757 139.371 173.517 139.13 173.517 138.888H173.277C173.277 138.888 172.797 138.647 173.037 138.165Z" fill="#2A232B"/>
<path id="Vector_28" d="M183.842 133.58C191.285 133.097 198.729 137.199 205.452 139.853C209.533 141.542 217.937 142.025 219.618 147.092C219.858 147.816 218.897 148.057 218.417 147.575C216.256 144.679 212.655 144.197 209.293 143.231C206.412 142.266 203.771 141.301 200.89 140.095C195.127 137.682 189.364 136.234 183.362 134.786C183.122 134.545 183.362 133.821 183.842 133.58Z" fill="#3A353A"/>
<path id="Vector_29" d="M222.019 147.092C222.739 143.714 217.697 142.508 215.296 141.542C209.533 139.13 203.531 136.475 197.528 134.786C193.926 133.821 190.085 133.097 186.483 133.097C183.602 133.097 180.961 133.339 178.079 134.304C173.277 135.752 168.715 138.647 164.633 141.784C162.472 142.99 160.311 144.679 158.631 146.368C158.391 146.61 158.631 147.092 159.111 146.851C159.111 146.851 159.351 146.851 159.351 146.61C159.351 146.851 159.591 146.851 159.831 146.851C163.433 145.162 166.554 142.99 170.156 141.542C173.757 140.095 177.599 139.13 181.441 138.888H183.122C187.684 138.888 192.005 139.853 196.087 141.784C201.85 144.438 207.132 148.057 212.895 150.229C213.855 150.711 215.056 150.711 216.256 150.711C218.897 150.711 221.539 149.746 222.019 147.092ZM186.483 135.269C190.325 135.269 194.166 136.234 198.008 137.441C202.81 139.13 207.612 141.301 212.415 143.232C213.375 143.714 218.177 144.921 218.657 146.127C219.137 147.575 218.177 148.057 216.736 148.299C216.016 148.299 215.296 148.057 214.816 148.057C213.375 147.575 211.934 146.61 210.734 145.886C203.29 142.025 195.607 137.441 187.203 136.958H184.802C182.161 136.958 179.28 137.199 176.399 137.682C177.599 137.199 178.8 136.717 180.24 136.234C182.161 135.51 184.322 135.269 186.483 135.269Z" fill="#1B141C"/>
</g>
<g id="right-eyebrown">
<path id="Vector_30" d="M303.175 138.165C302.935 137.682 302.214 137.441 301.734 137.199C301.254 136.958 300.774 136.717 300.294 136.717C299.333 136.234 298.373 135.752 297.412 135.51C296.212 135.269 294.531 134.304 293.331 135.028C289.489 133.58 284.447 134.545 281.085 136.476C276.523 136.958 271.721 138.406 268.36 140.819C268.119 141.06 267.879 141.301 267.879 141.543C267.159 141.784 266.679 142.025 265.958 142.267C263.557 143.232 260.916 143.956 258.515 145.162C258.275 145.162 258.035 145.403 257.795 145.403C257.075 145.645 256.834 147.092 257.315 147.334C257.555 147.575 257.555 147.816 257.795 148.057C259.716 149.505 262.117 148.54 264.038 147.816C265.718 147.092 267.639 146.368 268.84 144.921C270.761 144.197 272.201 143.232 273.882 142.267C274.122 142.267 274.362 142.025 274.602 142.025C277.484 141.543 280.605 140.336 283.486 138.888C285.167 138.647 286.608 138.165 288.288 138.165C290.449 137.923 292.61 138.647 295.011 137.923H295.251C295.732 138.165 296.212 138.165 296.692 138.406C298.613 138.888 300.294 139.371 302.214 139.371C302.455 139.371 302.695 139.13 302.695 138.888H302.935C302.935 138.888 303.415 138.647 303.175 138.165Z" fill="#2A232B"/>
<path id="Vector_31" d="M292.37 133.58C284.927 133.097 277.484 137.199 270.761 139.853C266.679 141.542 258.275 142.025 256.594 147.092C256.354 147.816 257.315 148.057 257.795 147.575C259.956 144.679 263.557 144.197 266.919 143.231C269.8 142.266 272.441 141.301 275.323 140.095C281.085 137.682 286.848 136.234 292.85 134.786C293.09 134.545 292.85 133.821 292.37 133.58Z" fill="#3A353A"/>
<path id="Vector_32" d="M259.716 150.47C260.916 150.47 262.117 150.229 263.077 149.988C268.84 147.816 274.362 144.197 279.885 141.543C284.207 139.612 288.529 138.647 292.85 138.647H294.531C298.373 138.888 302.215 139.853 305.576 141.301C309.178 142.749 312.539 145.162 315.901 146.61C316.141 146.61 316.381 146.61 316.381 146.368C316.381 146.368 316.621 146.368 316.621 146.61C317.101 146.851 317.341 146.368 317.101 146.127C315.42 144.438 313.259 142.749 311.099 141.543C307.017 138.406 302.455 135.752 297.653 134.063C295.011 133.097 292.13 132.856 289.249 132.856C285.407 132.856 281.806 133.58 278.204 134.545C272.201 136.234 266.199 138.888 260.436 141.301C258.275 142.266 252.993 143.473 253.713 146.851C254.674 149.746 257.315 150.711 259.716 150.47ZM296.212 136.234C297.412 136.717 298.853 136.958 300.054 137.682C297.172 137.199 294.531 136.958 291.65 136.958H289.249C280.845 137.441 272.922 142.266 265.718 145.886C264.278 146.61 263.077 147.575 261.637 148.057C261.156 148.299 260.436 148.299 259.716 148.299C258.515 148.299 257.315 147.816 257.795 146.127C258.275 144.921 263.077 143.714 264.038 143.232C268.84 141.301 273.642 139.13 278.444 137.441C282.286 136.234 286.127 135.269 289.969 135.269C291.89 135.269 294.051 135.51 296.212 136.234Z" fill="#1B141C"/>
</g>
<g id="nose">
<path id="Vector_33" d="M232.631 155.465C230.71 163.5 230.446 172.089 229.582 180.293C228.67 189.076 226.989 198.149 227.109 206.98C227.109 207.679 228.189 207.872 228.357 207.149C230.134 199.09 230.35 190.476 231.191 182.272C232.079 173.489 233.712 164.392 233.424 155.585C233.424 155.127 232.751 155.006 232.631 155.465Z" fill="#C66C49"/>
<path id="Vector_34" d="M225.404 202.347C223.051 205.508 221.082 208.934 219.354 212.481C218.249 214.773 216.857 217.476 217.601 220.106C218.801 224.449 224.3 225.8 227.877 223.749C228.934 223.122 228.454 221.457 227.253 221.457C225.164 221.433 222.715 222.109 221.058 220.323C219.042 218.176 221.034 214.291 221.923 212.119C223.243 208.934 224.852 205.87 226.101 202.661C226.269 202.202 225.644 202.033 225.404 202.347Z" fill="#C66C49"/>
<path id="Vector_35" d="M225.068 220.226C231.551 219.744 232.776 227.948 238.946 228.141C244.229 228.31 244.637 220.323 249.655 220.564C250.231 220.588 250.423 219.768 249.943 219.478C244.253 216.1 243.196 226.041 237.962 225.414C234.865 225.052 232.656 220.468 229.87 219.141C227.973 218.248 226.605 218.32 224.756 219.165C224.3 219.43 224.54 220.275 225.068 220.226Z" fill="#C66C49"/>
<path id="Vector_36" d="M247.878 223.942C252.152 224.907 257.122 223.58 258.131 218.803C258.635 216.414 257.843 214.049 256.594 212.023C254.577 208.717 251.96 205.918 250.039 202.492C249.727 201.913 248.911 202.202 248.887 202.805C248.647 206.642 251.48 209.296 253.497 212.264C255.37 214.99 256.978 218.755 253.833 221.457C252.392 222.688 249.655 222.47 247.878 222.808C247.302 222.929 247.326 223.822 247.878 223.942Z" fill="#C66C49"/>
</g>
<g id="hair">
<path id="Vector_37" d="M341.592 126.341C339.431 144.921 334.869 162.535 330.067 171.221C330.067 171.221 329.346 136.717 321.183 120.309C313.019 103.902 289.009 85.0811 286.127 71.3276C286.127 71.3276 289.729 79.2901 295.251 82.6682C300.774 86.0462 319.982 101.006 324.544 106.073C329.106 111.14 336.55 123.687 339.671 125.376C339.911 125.617 340.872 125.859 341.592 126.341ZM158.631 262.428C158.631 263.876 158.151 267.736 157.43 273.286C155.75 257.361 152.388 239.747 152.388 239.747C152.388 239.747 79.8761 347.12 89.4803 382.589C99.0846 418.059 118.533 442.67 120.454 444.6C122.375 446.531 130.058 449.185 133.42 455.458C134.62 457.871 158.631 434.225 146.866 405.753C135.341 377.281 132.699 357.978 142.304 343.018C143.984 340.364 145.425 337.468 146.866 334.573C144.945 344.948 143.264 353.152 142.784 355.565C140.623 364.01 140.623 376.074 146.386 389.345C152.148 402.616 161.032 403.34 161.032 403.34C156.95 396.825 156.71 385.726 160.552 374.144C164.393 362.562 170.636 351.222 173.998 339.157C177.599 326.61 179.28 311.651 167.515 286.798C161.032 272.079 158.631 262.428 158.631 262.428Z" fill="#221B23"/>
<path id="Vector_38" d="M286.127 71.3278C286.127 71.3278 242.428 87.7354 207.373 75.4297C172.317 63.124 149.747 111.864 152.628 140.819C155.51 169.773 144.865 204.438 163.673 254.465C152.148 301.275 118.533 336.986 108.929 357.737C99.3247 378.487 99.3247 399.721 108.929 414.922C118.533 430.123 123.335 440.981 125.977 456.906C125.977 456.906 122.375 448.22 108.209 437.603C85.8788 420.954 101.719 405.833 103.16 374.949C129.258 374.949 102.446 318.568 114.211 293.715C125.736 268.862 122.375 234.197 114.211 213.446C106.048 192.696 96.6836 163.982 100.045 112.829C103.407 61.9175 131.499 34.652 166.554 13.9012C201.61 -6.84956 252.272 -2.98896 284.447 17.038C316.621 37.0649 311.819 54.9202 311.819 54.9202C311.819 54.9202 321.423 50.0944 335.829 72.0516C350.236 94.0088 340.631 152.642 330.307 171.221C330.307 171.221 329.587 136.717 321.423 120.309C313.259 103.902 289.009 85.0812 286.127 71.3278Z" fill="#2A232B"/>
<path id="Vector_39" d="M304.375 56.1267C298.853 59.746 293.09 59.746 289.729 58.057C279.885 53.7138 271.961 38.7539 263.797 29.8263C250.111 14.8664 246.51 7.14522 215.056 5.4562C192.726 4.24976 174.958 10.0407 164.634 14.6251C130.538 35.1346 111.57 62.4002 108.209 112.588C104.847 163.5 109.649 222.294 118.053 243.044C126.457 263.795 110.474 296.932 110.61 293.554C110.745 290.176 93.8823 344.868 92.4417 375.753C91.001 406.638 86.1188 420.713 108.209 437.362C122.375 447.978 125.976 456.665 125.976 456.665C122.135 445.807 116.372 441.464 105.087 431.088C93.5621 420.713 90.4146 391.919 92.8157 369.721C95.2168 347.522 108.209 308.997 118.053 293.554C127.897 278.112 135.821 251.57 139.182 237.334C142.544 223.098 139.663 211.275 129.818 186.905C119.974 162.535 114.691 98.8347 116.372 87.9767C119.013 67.9498 125.976 54.679 138.942 38.2714C163.193 20.6573 190.805 11.0058 208.333 10.7645C236.665 10.5232 256.354 29.3437 259.956 34.6521C263.557 39.9604 285.167 63.3653 290.689 64.3305C296.212 65.2956 309.898 56.1267 309.898 56.1267L311.579 54.679C311.579 54.679 312.299 52.2661 311.579 48.4055C310.378 50.5771 307.977 53.7138 304.375 56.1267ZM243.388 79.7729C244.109 79.7729 245.069 79.7729 245.789 79.5316C246.27 79.5316 246.99 79.5316 247.71 79.2903C248.671 79.2903 249.871 79.0491 250.832 79.0491C251.312 79.0491 252.032 78.8078 252.753 78.8078C253.473 78.8078 254.433 78.5665 255.154 78.5665C255.874 78.5665 256.594 78.3252 257.315 78.3252C258.035 78.3252 258.755 78.0839 259.476 78.0839C259.956 78.0839 260.436 77.8426 260.916 77.8426C261.877 77.6013 262.837 77.36 263.797 77.36C264.278 77.36 264.758 77.1187 265.238 77.1187C266.199 76.8775 267.159 76.6362 267.879 76.6362C268.359 76.6362 268.6 76.3949 268.84 76.3949C269.56 76.1536 270.28 75.9123 271.001 75.9123C271.241 75.9123 271.481 75.9123 271.721 75.671C272.681 75.4297 273.642 75.1884 274.362 74.9472C274.602 74.9472 274.842 74.9472 275.082 74.7059C276.043 74.4646 276.763 74.2233 277.724 73.982C283.006 72.5343 286.127 71.3278 286.127 71.3278C286.127 71.3278 274.122 72.7756 259.956 58.057C254.433 49.1293 245.309 32.7217 231.143 27.1721C214.816 20.6573 160.312 17.7619 141.823 57.3331C123.335 96.9044 135.341 130.926 143.264 147.575C151.188 164.224 153.108 191.731 152.628 212.481C152.148 233.473 157.67 267.495 152.148 280.525C146.626 293.554 124.056 348.246 116.372 369.721C108.449 392.16 91.6413 398.514 110.61 429.158C117.813 440.981 122.615 444.359 124.536 448.702C121.655 436.638 117.093 426.986 108.929 414.439C99.3247 399.238 99.3247 378.005 108.929 357.254C118.533 336.503 142.83 297.897 154.355 251.087C152.628 200.504 155.029 141.543 152.148 112.588C149.267 83.6335 172.557 62.6415 207.372 74.9472C211.935 76.6362 216.737 77.6013 221.299 78.3252H221.539C222.019 78.3252 222.499 78.5665 223.22 78.5665C224.18 78.5665 225.14 78.8078 226.101 78.8078C226.821 78.8078 227.541 78.8078 228.022 79.0491C228.982 79.0491 229.942 79.2903 231.143 79.2903H240.987C241.708 80.0142 242.668 80.0142 243.388 79.7729Z" fill="#221B23"/>
<path id="Vector_40" d="M149.987 293.554C149.987 293.554 143.744 309.479 127.657 329.023C106.288 354.841 101.966 371.007 109.889 391.276C117.813 411.544 128.618 422.161 132.219 431.088C135.821 440.016 134.86 449.426 134.86 449.426C134.86 449.426 139.422 439.533 137.502 432.053C135.821 424.573 119.734 398.514 117.333 383.796C114.932 369.077 117.573 352.67 127.417 338.675C135.821 326.852 145.665 310.685 149.987 293.554ZM154.549 297.173C154.549 297.173 148.546 325.163 140.143 339.157C131.739 353.152 129.098 370.525 135.341 385.243C141.583 399.962 153.589 419.265 152.628 432.053C152.628 432.053 160.792 416.611 153.108 400.686C145.425 384.761 142.784 361.115 149.027 344.948C155.269 329.023 155.99 308.273 154.549 297.173Z" fill="#2A232B"/>
<path id="Vector_41" d="M221.539 79.049C222.259 79.049 222.739 79.2903 223.219 79.2903C224.18 79.2903 225.14 79.5316 226.101 79.5316C226.821 79.5316 227.541 79.5316 228.022 79.7729C228.982 79.7729 229.942 80.0142 231.143 80.0142H234.744C228.982 77.6013 222.259 73.7407 216.496 66.9846C204.971 52.7486 196.087 46.2338 177.599 48.1642C159.111 50.0945 139.662 75.1884 140.863 101.489C142.063 127.548 150.467 144.197 155.75 158.433C154.309 152.159 153.108 146.368 152.628 140.819C149.987 111.864 172.557 63.124 207.372 75.4297C212.174 77.1187 216.737 78.0839 221.539 79.049Z" fill="#1B141C"/>
<path id="Vector_42" d="M273.018 41.9117C273.018 41.9117 288.916 41.8327 273.018 62.5187C310.542 50.1071 325.252 110.573 322.168 139.777C319.084 168.981 291.058 275.245 303.395 322.458C315.731 369.671 325.38 363.059 335.661 383.988C345.942 404.918 379.226 400.908 368.945 416.24C358.664 431.572 372.543 411.201 369.716 427.263C369.716 427.263 354.552 449.824 369.716 439.116C393.619 422.324 403.385 402.368 401.843 371.217C400.301 340.067 385.908 315.73 373.314 290.664C369.5 263 358.761 241.429 367.5 220.5C376.239 199.571 366.889 162.745 363.291 111.151C359.693 59.8012 330.057 43.8827 292.533 22.9533C255.008 2.02383 301.176 21.7124 266.736 41.9117C232.296 62.111 278.614 40.5976 278.614 40.5976C278.614 40.5976 282.157 19.7655 266.736 41.9117C251.315 64.058 268.415 23.1726 279.467 41.9117C288.205 25.3629 269.933 55.7835 273.018 41.9117Z" fill="#2A232B"/>
<path id="Vector_43" d="M308.262 254.746C308.262 254.746 304.142 268.587 302.45 268.5C300.758 268.413 295.4 275.753 294.736 276.5C294.072 277.247 290.809 277.851 290.987 280.5C291.166 283.149 289.722 282.975 290.987 285.15C292.262 287.318 296.417 292.063 299.007 293.375C301.605 294.681 302.353 292.604 302.45 291.642C302.555 290.673 308.262 254.746 308.262 254.746Z" fill="#221B23"/>
</g>
<g id="shirt">
<path d="M386.987 635.383C381.491 604.586 377.846 578.897 375.429 558.369C375.883 547.346 375.532 536.047 374.857 526.159C374.158 515.931 373.109 507.186 372.234 501.776C371.799 499.089 371.4 497.182 371.098 496.336C371.03 496.144 370.938 495.92 370.806 495.775C370.747 495.71 370.555 495.525 370.263 495.581C369.992 495.633 369.875 495.853 369.841 495.924C369.758 496.097 369.723 496.338 369.703 496.568C369.68 496.822 369.669 497.15 369.669 497.549H370.169C369.669 497.549 369.669 497.548 369.669 497.549V497.552V497.558V497.584L369.67 497.688C369.67 497.779 369.671 497.916 369.673 498.099C369.677 498.463 369.685 499.008 369.701 499.735C369.733 501.187 369.797 503.363 369.925 506.259C370.18 512.051 370.691 520.724 371.713 532.256C372.377 539.763 373.259 548.482 374.426 558.407C373.948 569.919 372.588 581.097 369.802 590.003C364.266 590.114 360.253 592.73 357.858 597.186C355.431 601.704 354.687 608.072 355.589 615.562C357.374 630.389 365.636 649.832 380.612 668.687C355.572 674.332 341.769 679.219 331.543 682.842L331.522 682.85C321.215 686.502 314.597 688.847 303.742 689.412C193.869 693.66 147.751 689.051 93.3734 678.988C95.559 672.363 98.5414 664.131 101.775 655.205C104.087 648.825 106.527 642.09 108.896 635.334C109.953 632.321 110.995 629.304 112.005 626.313C123.27 617.422 128.271 607.617 129.126 597.262C129.876 588.183 127.432 578.738 123.335 569.193C122.911 563.719 121.856 558.772 120.345 554.231C117.081 544.423 111.698 536.541 105.999 529.368C104.139 527.026 102.25 524.766 100.392 522.541C96.5361 517.927 92.8063 513.463 89.7096 508.731C88.4246 506.767 87.2528 504.763 86.2322 502.69C83.7084 496.517 82.1268 490.59 82.0014 484.988L81.0015 484.999C81.0015 491.817 82.6649 497.7 85.3188 503.099C87.6617 508.825 90.7902 514.723 94.2831 520.72C97.1934 525.717 100.367 530.798 103.564 535.917C104.392 537.241 105.22 538.568 106.046 539.897C110.068 546.364 114.031 552.876 117.473 559.36C119.264 562.734 120.911 566.097 122.351 569.436C122.818 575.661 122.46 582.59 121.01 590.408L121.009 590.416C119.409 599.867 115.61 612.498 111.153 625.712C109.039 627.365 106.7 628.989 104.121 630.581L103.982 630.667L103.921 630.817C97.4846 646.525 94.822 662.982 92.2335 679.25C92.0114 679.844 91.5479 680.444 90.8296 681.139C90.1872 681.761 89.3804 682.423 88.4282 683.204C88.2921 683.316 88.153 683.43 88.011 683.547C85.7517 685.405 82.8479 687.865 79.8236 691.67C73.7706 699.286 67.2836 712.227 64.341 736.447L64.3403 736.453C64.2951 736.867 64.3479 737.228 64.4552 737.539C64.4044 737.524 64.3524 737.508 64.299 737.492C60.407 736.341 49.3021 733.73 20.2218 730.086C21.8325 726.194 21.8403 723.382 21.3375 719.332C21.2203 718.388 21.0756 717.376 20.9169 716.267C20.3638 712.402 19.6399 707.343 19.3127 699.771C18.4706 680.284 20.2643 644.188 34.4922 569.597C39.3638 545.84 54.983 436.655 64.7764 367.94C65.3185 366.997 65.7183 366.164 66.0539 365.43C66.1505 365.218 66.2407 365.018 66.327 364.826C66.5531 364.323 66.7513 363.882 66.9625 363.476C67.5227 362.4 68.1356 361.65 69.4712 361.027C70.8528 360.383 73.013 359.873 76.6921 359.371C80.3585 358.871 85.4814 358.384 92.7559 357.764C122.413 355.998 140.361 349.499 151.886 342.698C157.648 339.299 161.793 335.831 164.984 332.859C166.133 331.79 167.162 330.781 168.093 329.868C168.452 329.516 168.797 329.179 169.128 328.857C170.327 327.693 171.35 326.745 172.294 326.058L172.304 326.051L172.313 326.044C178.034 321.451 178.463 316.261 178.835 311.762C178.899 310.994 178.961 310.245 179.047 309.523C179.344 307.039 179.916 304.883 181.7 303.13C183.496 301.366 186.594 299.939 192.116 299.12L192.12 299.119C200.074 297.875 207.944 301.263 216.049 305.244C216.913 305.668 217.779 306.099 218.649 306.532C225.876 310.127 233.292 313.817 240.952 314.498C256.241 316.079 271.768 308.741 283.517 302.806C284.283 302.418 285.033 302.037 285.765 301.665C290.681 299.168 294.801 297.074 297.863 296.179C299.632 295.662 300.923 295.586 301.781 295.949C302.57 296.283 303.127 297.056 303.265 298.656C303.422 302.541 305.203 305.86 308.194 308.829C311.18 311.792 315.389 314.426 320.452 316.962C326.643 320.062 334.192 323.051 342.449 326.32C347.672 328.388 353.179 330.568 358.804 332.96L358.812 332.963C369.826 337.42 379.894 340.739 388.893 343.706C390.302 344.171 391.684 344.626 393.04 345.077C403.07 348.407 411.623 351.424 418.582 355.351C425.528 359.27 430.866 364.085 434.477 371.002C438.092 377.929 440 387.01 440 399.5V399.515L440.001 399.53C443.723 460.614 450.711 516.049 456.795 564.313C459.701 587.366 462.401 608.783 464.44 628.397C467.596 658.753 469.169 684.787 467.494 705.924C465.826 726.963 460.944 743.071 451.279 753.767C439.772 753.768 432.959 753.883 427.52 753.974C419.383 754.111 414.321 754.197 401.216 753.773C381.623 733.818 379.369 708.865 381.383 686.563C382.191 677.619 383.682 669.125 385.011 661.555C385.344 659.661 385.666 657.825 385.965 656.054C386.711 651.637 387.312 647.621 387.554 644.142C387.795 640.685 387.686 637.712 386.987 635.383ZM370.701 499.713C370.693 499.365 370.688 499.058 370.683 498.794C370.856 499.643 371.046 500.696 371.246 501.936C372.116 507.31 373.162 516.024 373.859 526.227C374.389 533.988 374.717 542.595 374.615 551.24C373.836 544.192 373.21 537.834 372.709 532.168C371.689 520.65 371.179 511.992 370.924 506.215C370.797 503.326 370.733 501.158 370.701 499.713ZM119.396 554.547C120.601 558.169 121.513 562.059 122.038 566.283C120.901 563.822 119.665 561.357 118.356 558.891C114.897 552.375 110.919 545.839 106.896 539.369C106.067 538.036 105.237 536.706 104.408 535.38C101.212 530.263 98.049 525.199 95.1472 520.217C93.3828 517.187 91.7189 514.195 90.2063 511.247C93.0513 515.316 96.3306 519.241 99.6721 523.241C101.522 525.456 103.391 527.693 105.216 529.99C110.886 537.127 116.187 544.901 119.396 554.547ZM104.785 631.346C106.866 630.056 108.795 628.744 110.578 627.41C109.721 629.93 108.842 632.467 107.953 635.003C105.592 641.733 103.156 648.459 100.845 654.838C98.3969 661.594 96.0901 667.961 94.1645 673.533C96.4944 659.257 99.2085 645.011 104.785 631.346Z" fill="#535353"/>
<path d="M369.669 497.549C369.669 497.15 369.68 496.822 369.703 496.568C369.723 496.338 369.758 496.097 369.841 495.924C369.875 495.853 369.992 495.633 370.263 495.581C370.555 495.525 370.747 495.71 370.806 495.775C370.938 495.92 371.03 496.144 371.098 496.336C371.4 497.182 371.799 499.089 372.234 501.776C373.109 507.186 374.158 515.931 374.857 526.159C375.532 536.047 375.883 547.346 375.429 558.369C377.846 578.897 381.491 604.586 386.987 635.383C387.686 637.712 387.795 640.685 387.554 644.142C387.312 647.621 386.711 651.637 385.965 656.054C385.666 657.825 385.344 659.661 385.011 661.555C383.682 669.125 382.191 677.619 381.383 686.563C379.369 708.865 381.623 733.818 401.216 753.773C414.321 754.197 419.383 754.111 427.52 753.974C432.959 753.883 439.772 753.768 451.279 753.767C460.944 743.071 465.826 726.963 467.494 705.924C469.169 684.787 467.596 658.753 464.44 628.397C462.401 608.783 459.701 587.366 456.795 564.313C450.711 516.049 443.723 460.614 440.001 399.53L440 399.515V399.5C440 387.01 438.092 377.929 434.477 371.002C430.866 364.085 425.528 359.27 418.582 355.351C411.623 351.424 403.07 348.407 393.04 345.077C391.684 344.626 390.302 344.171 388.893 343.706C379.894 340.739 369.826 337.42 358.812 332.963L358.804 332.96C353.179 330.568 347.672 328.388 342.449 326.32C334.192 323.051 326.643 320.062 320.452 316.962C315.389 314.426 311.18 311.792 308.194 308.829C305.203 305.86 303.422 302.541 303.265 298.656C303.127 297.056 302.57 296.283 301.781 295.949C300.923 295.586 299.632 295.662 297.863 296.179C294.801 297.074 290.681 299.168 285.765 301.665C285.033 302.037 284.283 302.418 283.517 302.806C271.768 308.741 256.241 316.079 240.952 314.498C233.292 313.817 225.876 310.127 218.649 306.532C217.779 306.099 216.913 305.668 216.049 305.244C207.944 301.263 200.074 297.875 192.12 299.119L192.116 299.12C186.594 299.939 183.496 301.366 181.7 303.13C179.916 304.883 179.344 307.039 179.047 309.523C178.961 310.245 178.899 310.994 178.835 311.762C178.463 316.261 178.034 321.451 172.313 326.044L172.304 326.051L172.294 326.058C171.35 326.745 170.327 327.693 169.128 328.857C168.797 329.179 168.452 329.516 168.093 329.868C167.162 330.781 166.133 331.79 164.984 332.859C161.793 335.831 157.648 339.299 151.886 342.698C140.361 349.499 122.413 355.998 92.7559 357.764C85.4814 358.384 80.3585 358.871 76.6921 359.371C73.013 359.873 70.8528 360.383 69.4712 361.027C68.1356 361.65 67.5227 362.4 66.9625 363.476C66.7513 363.882 66.5531 364.323 66.327 364.826C66.2407 365.018 66.1505 365.218 66.0539 365.43C65.7183 366.164 65.3185 366.997 64.7764 367.94C54.983 436.655 39.3638 545.84 34.4922 569.597C20.2643 644.188 18.4706 680.284 19.3127 699.771C19.6399 707.343 20.3638 712.402 20.9169 716.267C21.0756 717.376 21.2203 718.388 21.3375 719.332C21.8403 723.382 21.8325 726.194 20.2218 730.086C49.3021 733.73 60.407 736.341 64.299 737.492C64.3524 737.508 64.4044 737.524 64.4552 737.539C64.3479 737.228 64.2951 736.867 64.3403 736.453L64.341 736.447C67.2836 712.227 73.7706 699.286 79.8236 691.67C82.8479 687.865 85.7517 685.405 88.011 683.547C88.153 683.43 88.2921 683.316 88.4282 683.204C89.3804 682.423 90.1872 681.761 90.8296 681.139C91.5479 680.444 92.0114 679.844 92.2335 679.25C94.822 662.982 97.4846 646.525 103.921 630.817L103.982 630.667L104.121 630.581C106.7 628.989 109.039 627.365 111.153 625.712C115.61 612.498 119.409 599.867 121.009 590.416L121.01 590.408C122.46 582.59 122.818 575.661 122.351 569.436C120.911 566.097 119.264 562.734 117.473 559.36C114.031 552.876 110.068 546.364 106.046 539.897C105.22 538.568 104.392 537.241 103.564 535.917C100.367 530.798 97.1934 525.717 94.2831 520.72C90.7902 514.723 87.6617 508.825 85.3188 503.099C82.6649 497.7 81.0015 491.817 81.0015 484.999L82.0014 484.988C82.1268 490.59 83.7084 496.517 86.2322 502.69C87.2528 504.763 88.4246 506.767 89.7096 508.731C92.8063 513.463 96.5361 517.927 100.392 522.541C102.25 524.766 104.139 527.026 105.999 529.368C111.698 536.541 117.081 544.423 120.345 554.231C121.856 558.772 122.911 563.719 123.335 569.193C127.432 578.738 129.876 588.183 129.126 597.262C128.271 607.617 123.27 617.422 112.005 626.313C110.995 629.304 109.953 632.321 108.896 635.334C106.527 642.09 104.087 648.825 101.775 655.205C98.5414 664.131 95.559 672.363 93.3734 678.988C147.751 689.051 193.869 693.66 303.742 689.412C314.597 688.847 321.215 686.502 331.522 682.85L331.543 682.842C341.769 679.219 355.572 674.332 380.612 668.687C365.636 649.832 357.374 630.389 355.589 615.562C354.687 608.072 355.431 601.704 357.858 597.186C360.253 592.73 364.266 590.114 369.802 590.003C372.588 581.097 373.948 569.919 374.426 558.407C373.259 548.482 372.377 539.763 371.713 532.256C370.691 520.724 370.18 512.051 369.925 506.259C369.797 503.363 369.733 501.187 369.701 499.735C369.685 499.008 369.677 498.463 369.673 498.099C369.671 497.916 369.67 497.779 369.67 497.688L369.669 497.584V497.558V497.552V497.549ZM369.669 497.549H370.169C369.669 497.549 369.669 497.548 369.669 497.549ZM370.701 499.713C370.693 499.365 370.688 499.058 370.683 498.794C370.856 499.643 371.046 500.696 371.246 501.936C372.116 507.31 373.162 516.024 373.859 526.227C374.389 533.988 374.717 542.595 374.615 551.24C373.836 544.192 373.21 537.834 372.709 532.168C371.689 520.65 371.179 511.992 370.924 506.215C370.797 503.326 370.733 501.158 370.701 499.713ZM119.396 554.547C120.601 558.169 121.513 562.059 122.038 566.283C120.901 563.822 119.665 561.357 118.356 558.891C114.897 552.375 110.919 545.839 106.896 539.369C106.067 538.036 105.237 536.706 104.408 535.38C101.212 530.263 98.049 525.199 95.1472 520.217C93.3828 517.187 91.7189 514.195 90.2063 511.247C93.0513 515.316 96.3306 519.241 99.6721 523.241C101.522 525.456 103.391 527.693 105.216 529.99C110.886 537.127 116.187 544.901 119.396 554.547ZM104.785 631.346C106.866 630.056 108.795 628.744 110.578 627.41C109.721 629.93 108.842 632.467 107.953 635.003C105.592 641.733 103.156 648.459 100.845 654.838C98.3969 661.594 96.0901 667.961 94.1645 673.533C96.4944 659.257 99.2085 645.011 104.785 631.346Z" stroke="black"/>
</g>
<path id="right-shoe" d="M514.817 1473.38C570.541 1481 555.399 1472.03 555.774 1487.53C556.148 1503.04 596.357 1449.35 588.978 1471.21C581.337 1489.76 572.451 1511.32 584.766 1535.06C633.9 1618.77 613.152 1599.04 655.107 1617.3C662.011 1620.76 669.911 1621.28 677.507 1621.57C681.244 1621.81 685.629 1620.42 688.782 1623.13C695.713 1629.28 695.032 1646.38 695.993 1657.41C697.385 1671.25 596.457 1679.82 565.959 1666.58C554.186 1661.12 552.242 1659.19 536.857 1635.9C531.252 1626.88 513.15 1620.84 508.979 1626.48C507.255 1633.03 505.852 1639.72 503.426 1646.08C475.132 1653.14 438.527 1639.67 412.874 1625.82C411.607 1625.36 412.44 1623.8 412.449 1622.89C425.061 1554.27 430.123 1552.01 439.689 1537.68C441.286 1535.11 443.692 1532.88 444.193 1529.77C476.026 1395.66 434.984 1499.81 461.736 1472.99C470.335 1486.84 460.918 1470.28 482.617 1470.44C480.837 1497.44 482.714 1468.98 514.817 1473.38Z" fill="black"/>
<path id="left-shoe" d="M205.229 1479.51C151.405 1478.67 167.031 1472.59 164.429 1486.72C161.827 1500.84 131.569 1446.11 135.381 1467.13C139.921 1485.16 145.203 1506.13 130.109 1526.11C71.4882 1595.77 93.9779 1580.64 51.6386 1591.45C44.6048 1593.65 37.0554 1593.01 29.8277 1592.21C26.2566 1591.91 22.3101 1590.02 18.9341 1592.05C11.4845 1596.71 9.64994 1612.44 7.1421 1622.39C3.81903 1634.85 98.0617 1656.85 128.835 1649.01C140.765 1645.67 142.885 1644.18 160.816 1625.04C167.426 1617.58 185.428 1614.6 188.557 1620.34C189.237 1626.57 189.596 1632.88 190.969 1639.04C216.713 1649.47 253.298 1642.28 279.575 1633.22C280.84 1632.97 280.279 1631.43 280.402 1630.59C278.418 1566.08 273.956 1563.3 266.983 1548.86C265.846 1546.28 263.893 1543.9 263.87 1540.99C253.196 1413.89 276.926 1514.88 255.504 1486.61C245.36 1498.07 256.671 1484.25 236.118 1481.35C233.889 1506.29 236.239 1480 205.229 1479.51Z" fill="black"/>
<path id="pants" d="M386.5 681C482.751 1206.63 520.835 1303.98 541 1456C526.383 1459.67 473.461 1464.24 459.5 1470.16C443.952 1476.48 392.174 1330.03 376 1331.5C358 1287.5 345.368 1187.62 328 1190C321.744 1140.45 241.297 994.327 241.088 992.777C239.066 975.08 242.269 1014.27 241.088 1023.5C242.152 1020.22 250 1269 241.088 1481C232 1436.5 207.329 1469.42 157.5 1470.16C118.5 1305 37.5833 977.423 46.5002 847C45.8466 827.108 66.5002 725.5 66.5002 691.5C114.46 697.372 121.734 739.956 222.832 733.5C245.093 732.812 365.241 688.306 386.5 681Z" fill="black"/>
</g>
<defs>
<clipPath id="clip0_33_180">
<rect width="697" height="1674" fill="white"/>
</clipPath>
</defs>
<style>
#left-eyebrown, #right-eyebrown {
  animation: appears 2s ease-in-out infinite alternate;
  transform-origin: center;
  transform-box: fill-box;
  animation-delay: 1s;
}

#mouth {
  animation: appearSmile 2s ease-in-out infinite alternate;
  transform-origin: center;
  transform-box: fill-box;
  animation-delay: 1s;
}

#Vector_8 {
  animation: appearSmile 2s ease-in-out infinite alternate;
  transform-origin: center;
  transform-box: fill-box;
  animation-delay: 0s;
}

@keyframes appears {
  from {
    transform: translateY(0%);
  }
  to{
    transform: translateY(40%);
  }
}

@keyframes appearSmile {
  from {
    transform: translateY(-22%);
  }
  to{
    transform: translateY(0%);
  }
}
</style>
</svg>
