<svg width="550" height="712" viewBox="0 0 550 712" fill="none" xmlns="http://www.w3.org/2000/svg">
<g id="avatar 1" clip-path="url(#clip0_33_180)">
<path id="body-shape" fill-rule="evenodd" clip-rule="evenodd" d="M327.938 97.675L240.685 113.876L199.786 173.282L221.599 283.992L246.139 329.896L218.872 343.397L197.059 362.299L164.339 370.4L120.713 408.203L112.533 478.41V572.918L82.5398 637.724L79.8132 675.528L82.5398 824.041L79.8132 880.747L58 918.55L82.5398 961.754L123.439 1004.96L158.886 1118.37L180.699 1193.98L172.519 1245.28L191.606 1366.79L227.052 1501.8L216.145 1523.41L183.426 1563.91L156.159 1585.51V1612.51L153.433 1644.92H175.246L216.145 1636.82L235.232 1623.31L257.045 1572.01H281.585L306.125 1563.91V1531.51L287.038 1482.9L292.492 1399.19L300.671 1266.88L292.492 1223.68L281.585 1196.68L297.945 1148.07L284.312 1083.27L292.492 999.557V913.15L300.671 934.751L341.571 1034.66L387.924 1183.17L437.004 1258.78L423.37 1310.09L439.73 1342.49L496.99 1431.6L546.07 1547.71L537.89 1593.61L540.616 1599.01L576.063 1609.81L581.516 1620.61L586.969 1634.12L606.056 1661.12L619.689 1666.52L646.955 1682.72L663.315 1685.42L674.222 1677.32L679.675 1644.92L676.948 1612.51L630.596 1569.31L586.969 1499.1L576.063 1361.39L551.523 1269.58L526.983 1247.98L524.256 1193.98L505.17 1137.27V1013.06L502.443 905.049L486.083 851.044L516.076 767.336L521.53 667.427L510.623 602.621L505.17 524.314L494.263 424.405L466.997 367.7L393.377 327.196L398.831 259.69L327.938 97.675ZM426.097 559.417L431.55 578.319L445.184 608.022L453.364 635.024L450.637 710.631L407.011 640.425L409.737 624.223L426.097 559.417ZM180.699 564.818L188.879 586.42V605.321L186.152 635.024L164.339 664.727L169.792 626.923L180.699 564.818Z" fill="#F4BAA3"/>
<path id="body" d="M642.886 1684.01C638.388 1682.1 631.184 1677.24 626.871 1673.41C622.574 1669.43 617.968 1666.34 616.654 1666.34C611.753 1666.34 602.989 1660.75 598.459 1654.71C595.893 1651.32 589.617 1641.01 584.516 1631.74C574.948 1614.51 571.129 1610.68 561.221 1608.47C551.343 1606.26 538.451 1596.99 534.184 1589.18C531.402 1584.03 531.464 1571.95 534.293 1562.97C537.369 1553.4 537.106 1541.18 533.659 1532.79C532.082 1528.96 528.959 1520.42 526.734 1513.64C517.675 1486.55 495.292 1444 458.687 1383.93C437.849 1349.77 433.304 1340.32 426.889 1317.7C424.014 1307.58 423.674 1303.12 423.983 1280.3L424.339 1254.38L417.274 1243.22C413.394 1237.08 407.752 1228.2 404.738 1223.51C392.479 1204.36 378.15 1169.57 370.374 1140.07C357.621 1091.63 342.982 1049.16 329.58 1021.72C322.052 1006.3 311.309 983.254 307.985 975.362C301.694 960.519 299.993 957.368 298.679 958.134C297.984 958.546 297.01 967.734 296.515 978.542C296.021 989.35 294.892 1005.24 294.011 1013.87C289.806 1055.04 289.698 1070.73 293.424 1102.29C297.891 1140 297.86 1142.97 292.944 1162.9C290.703 1171.92 288.972 1181.54 289.064 1184.29C289.374 1192.67 292.465 1207.25 296.314 1218.51C304.77 1243.3 306.47 1278.69 300.813 1312.63C299.128 1322.71 298.138 1339.29 297.767 1363.26C297.458 1382.87 296.021 1414.6 294.567 1433.84L291.924 1468.59L296.5 1485.08C299.004 1494.21 303.904 1509.96 307.382 1520.12C318.141 1551.78 316.023 1556.35 284.334 1571.22C273.096 1576.37 262.198 1582.56 260.08 1584.62C255.474 1589.33 251.192 1597.13 247.389 1607.59C241.299 1624.52 233.029 1633.8 221.373 1636.74C217.261 1637.77 210.877 1640.28 207.167 1642.34C203.457 1644.4 195.614 1647.49 189.727 1649.11L179.024 1652.21L169.516 1647.94C155.937 1641.9 151.748 1637.33 151.811 1628.35C151.838 1624.52 151.762 1619.52 151.64 1617.16C151.218 1608.91 154.344 1589.92 156.973 1584.62C160.109 1578.29 166.248 1573.13 175.353 1569.01C183.76 1565.18 194.536 1555.32 201.641 1544.71C204.678 1540.15 207.167 1536.17 207.167 1535.88C207.167 1535.44 210.46 1530.14 214.494 1524.1C218.529 1517.91 222.27 1510.99 222.795 1508.64C224.094 1502.75 221.404 1482.87 216.782 1464.02C212.005 1444.73 192.626 1369.21 190.675 1362.38C189.863 1359.55 189.202 1355.34 189.202 1353.03C189.202 1350.71 187.781 1343.72 186.045 1337.51C179.189 1312.91 175.136 1290.49 171.114 1254.87C169.445 1240.09 170.51 1222.98 174.167 1205.78C175.925 1197.52 176.344 1191.95 175.506 1187.96C174.835 1184.76 172.559 1173 170.451 1161.82C167.908 1148.35 164.646 1136.76 160.78 1127.47C157.573 1119.77 146.747 1090.08 136.726 1061.53C116.57 1004.08 118.858 1008.33 95.0939 984.093C85.3244 974.125 80.9157 968.205 75.8609 958.281C72.2545 951.213 67.0436 941.362 64.2812 936.4C56.4628 922.337 56.4484 917.007 64.1993 906.199C69.4658 898.866 76.6554 877.014 79.2539 860.463C81.1939 848.109 81.2944 839.598 79.9341 802.3C76.1654 698.932 78.9525 647.704 89.6434 623.849C97.8671 605.488 105.731 584.343 107.858 574.86C109.589 567.129 110.411 549.459 111.251 501.913C112.26 444.692 112.645 438.007 115.619 425.903C119.716 409.234 127.287 394.775 136.146 386.691C143.296 380.168 159.675 370.832 171.236 366.709C186.798 361.158 191.117 356.092 194.995 338.879C195.926 334.741 197.804 329.308 199.171 326.79C201.165 323.123 201.635 318.161 201.557 301.551C201.449 278.316 199.659 269.451 189.426 241.43C181.638 220.108 180.882 214.159 183.878 197.815C185.207 190.57 187.291 175.492 188.508 164.301C190.961 141.772 193.766 134.601 206.193 119.125C221.636 99.909 231.266 93.5273 282.278 68.7335C298.061 61.0692 326.782 61.0928 340.308 68.7806C350.109 74.3614 365.52 90.3909 376.944 106.903C382.37 114.737 388.754 123.719 391.119 126.856C393.5 129.992 398.323 137.693 401.832 143.981C405.356 150.253 408.788 156.349 409.468 157.527C413.224 164.065 418.403 182.898 419.686 194.737C420.505 202.217 421.17 227.647 421.17 251.237C421.185 292.113 421.371 294.911 425.081 311.034C427.214 320.326 429.873 332.106 430.97 337.2C433.892 350.718 433.969 350.821 446.274 357.241C462.072 365.502 469.152 372.304 481.333 390.887C493.375 409.264 498.059 421.706 500.486 441.703C504.35 473.612 504.829 480.032 504.999 501.751C505.278 537.356 508.709 569.456 515.511 600.054C517.119 607.255 519.097 617.636 519.932 623.128C520.767 628.62 522.235 637.602 523.194 643.095C525.42 655.743 525.481 702.583 523.317 722.241C521.509 738.527 518.479 751.19 509.343 780.566C505.819 791.86 502.217 807.896 500.501 819.779C498.909 830.837 496.621 843.265 495.431 847.402C493.452 854.25 493.514 855.825 496.142 865.352C501.614 885.26 504.675 908.746 503.5 921.896C502.882 928.949 503.067 936.974 503.948 941.097C504.783 944.999 505.061 953.363 504.551 959.68C503.902 967.764 504.443 976.039 506.375 987.539C508.57 1000.53 509.204 1013.26 509.467 1049.52C509.992 1121.03 511.554 1142.12 517.83 1162.9C521.71 1175.71 523.07 1181.57 524.739 1192.85C530.351 1230.57 531.603 1235.51 537.925 1244.75C546.35 1257.08 558.5 1283.46 561.824 1296.64C563.354 1302.7 565.982 1312.13 567.698 1317.63C571.176 1328.8 574.762 1348.22 576.122 1363.26C577.73 1380.96 580.157 1400.17 586.108 1442.38C589.602 1467.11 593.667 1490.67 595.739 1498.18C599.882 1513.2 609.419 1532.93 619.328 1546.92C633.317 1566.8 635.435 1569.16 655.902 1588.45C679.244 1610.39 682.552 1616.42 681.933 1635.57C680.898 1667.67 679.352 1675.03 672.55 1680.62C667.557 1684.75 659.782 1687.69 654.047 1687.69C652.393 1687.69 647.369 1686.07 642.886 1684.01ZM666.599 1677.09C671.731 1672.23 670.092 1669.73 658.174 1664.13C643.953 1657.51 634.771 1647.49 640.877 1645.28C642.422 1644.7 644.957 1646.46 648.374 1650.44C652.037 1654.56 654.696 1656.33 657.479 1656.33C661.374 1656.33 661.359 1656.33 655.299 1650.29C647.415 1642.49 645.854 1635.86 651.094 1632.62C653.119 1631.3 654.789 1629.09 654.789 1627.61C654.789 1626.29 656.134 1624.38 657.788 1623.49C659.504 1622.61 660.787 1620.55 660.787 1618.49C660.787 1612.89 663.94 1612.6 668.531 1617.9C671.654 1621.43 672.751 1622.02 672.751 1620.25C672.751 1616.13 668.346 1608.91 661.807 1602.44C654.294 1595.07 651.419 1594.63 652.084 1601.11C652.47 1604.94 652.006 1605.82 649.147 1606.12C646.241 1606.56 645.097 1605.23 641.217 1596.84C632.993 1579.17 628.927 1572.1 623.316 1565.33C615.293 1555.61 606.869 1542.65 607.951 1541.62C608.461 1541.18 608.059 1540.74 607.039 1540.74C604.936 1540.74 595.213 1521.74 590.529 1508.34C585.335 1493.62 575.86 1434.28 570.31 1381.8C567.095 1351.42 563.879 1332.72 559.659 1319.76C557.743 1313.89 555.702 1306.49 555.099 1303.36C552.44 1289.16 536.348 1253.5 533.087 1254.55C532.097 1254.85 530.706 1258.14 529.98 1261.85C528.867 1267.61 528.218 1268.52 525.497 1268.15C522.421 1267.72 522.266 1266.81 521.292 1242.04C520.751 1227.92 519.576 1214.13 518.68 1211.39C517.783 1208.65 517.057 1203.16 517.057 1199.18C517.057 1192.6 515.882 1187.47 508.756 1162.9C503.175 1143.7 501.908 1127.47 501.197 1065.92C500.578 1012.34 499.233 987.495 496.59 980.928C494.519 975.803 488.907 980.427 480.498 994.165C477.546 999.024 473.851 1003.37 472.321 1003.84C470.79 1004.3 467.127 1006.92 464.174 1009.63C461.237 1012.35 457.806 1014.59 456.553 1014.59C455.301 1014.59 451.931 1012.34 449.041 1009.6C446.166 1006.84 443.151 1004.6 442.363 1004.6C441.575 1004.6 439.859 1003.59 438.576 1002.37C434.819 998.789 435.67 988.143 440.663 976.083C445.47 964.495 446.568 951.61 443.63 941.494C441.126 932.925 438.174 935.119 433.892 948.739C430.12 960.769 419.825 967.764 413.703 962.477C411.06 960.21 410.766 958.045 410.828 941.274C410.844 930.554 411.787 918.656 413.008 913.341C414.198 908.231 415.172 899.705 415.203 894.36C415.296 877.382 420.088 861.803 429.533 847.771C431.388 845.002 433.629 839.539 434.51 835.608C435.994 829.07 438.777 785.47 438.808 768.595C438.808 764.663 439.256 752 439.797 740.441L440.786 719.429L435.639 704.615C430.058 688.536 423.504 674.871 413.271 657.923C399.188 634.599 399.25 633.376 418.094 576.2C422.391 563.139 424.277 548.252 421.618 548.281C421 548.281 416.718 551.374 412.08 555.158C394.721 569.309 377.114 572.327 353.88 565.097C341.297 561.18 323.351 549.666 319.069 542.774C313.967 534.543 321.016 530.376 326.86 538.18C331.59 544.512 346.461 553.288 359.476 557.411C365.876 559.443 372.198 561.092 373.543 561.092C376.573 561.092 390.13 557.278 397.704 554.304C403.563 551.992 415.249 541.125 415.28 537.959C415.28 536.958 416.95 532.938 418.975 529.007C425.684 516.004 423.334 496.141 413.518 483.197C406.469 473.906 405.743 471.535 408.602 467.383C410.395 464.762 410.705 462.421 409.854 457.959C407.891 447.725 409.576 445.266 417.831 446.223C425.39 447.107 425.885 447.902 425.637 458.901C425.39 469.547 427.91 493.078 429.564 495.625C430.089 496.435 431.078 509.408 431.759 524.457C432.532 541.699 433.815 554.201 435.206 558.25C436.427 561.769 438.158 568.867 439.055 574.006C441.482 587.832 444.635 596.888 448.979 602.469C455.611 610.995 465.751 635.276 463.881 638.162C462.706 639.958 457.605 639.929 456.43 638.103C453.245 633.185 452.735 639.252 453.647 671.308C454.343 695.53 454.111 708.709 452.874 715.158C451.916 720.238 450.834 730.796 450.494 738.645C450.154 746.478 449.211 756.108 448.392 760.04C447.572 763.957 446.537 781.288 446.073 798.531C445.114 834.518 443.213 844.737 435.469 855.56C429.27 864.233 424.246 880.931 424.246 892.829C424.246 897.703 422.515 907.877 420.366 915.667C417.228 927.064 416.61 932.1 417.089 942.172C417.723 955.616 418.511 957.545 422.437 955.218C426.487 952.803 435.159 924.899 437.586 906.39C438.344 900.736 439.75 895.17 440.74 894.036C444.295 889.972 445.408 893.594 444.45 905.993C443.6 917.022 443.909 919.451 447.433 929.022C450.03 936.046 451.669 944.116 452.225 952.553C453.014 964.259 452.72 966.232 448.979 975.155C444.635 985.478 442.425 996.124 444.635 995.947C445.949 995.829 457.234 974.817 460.263 966.807C461.16 964.465 462.474 955.586 463.2 947.105C464.576 931.025 467.977 921.174 472.151 921.174C473.82 921.174 474.361 922.75 474.269 927.241C474.191 930.569 474.33 933.293 474.578 933.293C474.81 933.293 476.819 931.57 479.03 929.464L483.049 925.636L485.692 928.757C488.691 932.277 490.886 932.704 492.602 930.097C494.673 926.932 495.864 909.983 494.534 902.635C493.823 898.719 492.169 889.457 490.855 882.065C489.541 874.673 486.481 864.174 484.054 858.741C478.442 846.21 478.442 843.707 483.992 841.866C489.077 840.173 489.51 838.921 491.767 819.013C492.834 809.545 496.265 794.761 501.32 777.857C512.512 740.456 513.718 734.492 515.712 706.883C518.448 669.143 515.944 638.383 506.746 596.697C501.552 573.137 499.172 550.269 496.868 501.707C494.441 450.67 492.988 436.932 488.567 423.105C485.182 412.518 484.656 411.517 473.928 394.966C463.479 378.828 457.589 372.849 446.336 366.886C441.435 364.294 435.979 361.334 434.201 360.304C430.197 358.007 417.182 358.964 407.768 362.247C390.408 368.314 379.742 370.155 357.281 370.994C332.888 371.892 328.467 371.009 331.404 365.752C332.641 363.573 335.763 363.146 354.963 362.542C372.461 361.997 380.36 361.055 392.804 357.992C401.445 355.872 409.53 353.177 410.766 351.999C413.023 349.849 411.756 348.332 400.703 339.969C394.814 335.522 380.267 328.542 374.146 327.232C364.284 325.126 360.033 322.785 351.763 314.848C342.472 305.939 339.705 299.843 336.722 281.585C335.362 273.353 333.414 265.799 332.394 264.813C330.879 263.355 328.776 264.283 321.619 269.598C302.884 283.484 280.315 292.01 258.813 293.335L252.83 293.718L251.717 305.836C248.765 338.04 248.811 337.863 243.865 338.408C241.314 338.673 236.831 341.147 233.384 344.151C230.076 347.051 222.502 352.603 216.535 356.505C210.568 360.392 205.683 364.382 205.683 365.34C205.668 366.665 213.52 367.195 237.465 367.475C266.341 367.828 269.309 368.093 269.757 370.361C270.607 374.528 264.718 375.397 232.039 375.927L200.922 376.427L197.379 372.496C193.933 368.682 188.698 367.313 187.082 369.816C186.643 370.493 180.709 373.144 173.895 375.721C143.215 387.324 131.696 399.722 124.637 428.745C121.666 440.967 121.376 446.518 121.002 498.349C120.557 560.091 118.918 577.51 111.9 595.136C109.827 600.334 106.528 608.904 104.57 614.16C102.611 619.432 100.044 625.528 98.8657 627.707C88.9586 646.084 87.0325 682.646 88.9617 815.656C89.5614 856.915 89.3234 864.027 87.0309 873.407C83.879 886.306 74.5593 909.733 70.4753 915.019C66.4469 920.246 67.7546 925.43 76.691 939.654C80.656 945.956 85.1775 954.335 86.7419 958.251C88.6293 962.978 93.0859 968.839 100.022 975.715C105.763 981.414 110.963 986.067 111.578 986.067C114.049 986.067 107.634 975.023 101.248 968.279C92.97 959.547 91.1258 955.542 87.3741 938.181C85.7665 930.731 83.7662 923.412 82.9314 921.925C79.0746 915.063 83.3318 909.247 88.7762 913.944C91.5741 916.359 94.5498 925.312 97.9243 941.494C98.9461 946.383 100.653 951.522 101.718 952.906C105.606 957.927 105.975 950.447 102.611 934.854C99.2011 919.039 98.4452 896.23 100.813 880.533C101.812 873.922 108.522 843 114.126 819.219C116.08 810.914 117.065 799.444 118.898 763.603C119.951 743.003 121.308 730.782 123.495 722.241C126.714 709.666 136.866 689.699 147.424 675.18C151.56 669.497 153.761 664.402 155.43 656.642C156.696 650.767 158.749 642.418 159.989 638.103C165.325 619.55 171.425 589.246 172.334 576.759C173.051 566.894 172.816 565.686 169.448 561.784C163.632 555.04 155.296 541.037 152.679 533.601C147.973 520.231 151.352 494.477 159.933 478.309C163.472 471.638 163.955 469.312 163.346 461.846C162.561 452.261 163.943 448.432 168.197 448.432C171.112 448.432 171.732 450.111 173.573 462.921C174.387 468.576 173.754 471.197 169.273 480.738C162.672 494.801 158.587 513.398 159.95 523.19C161.045 531.053 167.33 543.407 174.385 551.55C179.82 557.838 186.935 559.973 202.762 560.106C212.361 560.179 215.561 559.531 223.723 555.879C229.025 553.509 237.882 548.252 243.416 544.217C254.361 536.192 255.783 535.677 257.19 539.196C258.596 542.657 254.531 547.604 244.483 554.643C230.014 564.788 221.188 568.248 206.982 569.382L194.44 570.369L194.918 591.764C195.315 609.611 194.896 614.956 192.389 624.085C186.996 643.728 179.301 656.598 161.317 676.093C155.427 682.469 147.859 692.114 144.498 697.503C131.778 717.897 130.383 725.407 126.421 794.967C125.684 807.91 124.375 820.25 123.511 822.385C122.646 824.52 120.903 831.897 119.637 838.788C118.369 845.665 115.636 858.358 113.562 866.987C108.386 888.529 107.355 908.894 110.571 926.166C111.957 933.617 113.988 944.852 115.083 951.125C117.527 965.128 119.145 971.106 123.979 983.932C126.05 989.409 127.762 996.816 127.782 1000.36C127.831 1008.66 129.031 1012.57 147.002 1063.08C164.632 1112.61 171.765 1130.08 180.571 1145.29C191.786 1164.64 193.023 1170.02 186.254 1170.02C183.736 1170.02 183.215 1170.95 183.224 1175.37C183.242 1183.91 188.517 1198.15 193.947 1204.33C196.69 1207.47 201.846 1212.89 205.405 1216.38C213.381 1224.23 213.35 1227.97 205.328 1227.38C199.872 1226.97 199.854 1226.98 200.679 1231.82C202.36 1241.68 195.465 1240 188.934 1228.98C185.254 1222.77 183.974 1221.59 182.296 1222.92C179.414 1225.2 179.486 1250.69 182.428 1269.14C183.678 1276.99 185.694 1289.81 186.911 1297.66C188.126 1305.51 190.506 1317.38 192.202 1324.05C193.898 1330.7 196.295 1340.98 197.532 1346.86C201.775 1367.04 212.253 1410.67 215.499 1421.76C216.658 1425.59 218.915 1434.28 220.507 1441.05C222.115 1447.68 225.284 1460.49 227.572 1469.47C231.096 1483.46 231.715 1488.91 231.699 1505.84C231.653 1529.84 230.586 1536.47 226.737 1536.47C225.238 1536.47 223.151 1535.58 222.115 1534.41C219.595 1531.46 217.54 1533.23 210.661 1544.12C201.585 1558.7 193.482 1566.65 180.672 1573.87C173.314 1577.99 168.083 1582.11 166.962 1584.47C165.042 1588.45 164.767 1588.3 171.83 1585.65C174.122 1584.77 181.715 1591.69 181.715 1594.63C181.715 1598.46 177.106 1606.85 171.256 1613.77C163.269 1623.34 163.614 1626.14 171.663 1617.16C185.54 1601.55 187.399 1599.93 189.364 1601.7C191.707 1603.91 189.958 1607.88 182.4 1617.31C179.148 1621.28 177.611 1624.38 178.63 1624.67C181.072 1625.41 189.746 1619.52 193.105 1614.66C196.101 1610.53 199.099 1608.77 201.248 1609.94C204.864 1612.15 195.731 1623.79 185.591 1629.97C176.296 1635.57 173.6 1638.36 174.778 1641.31C176.991 1646.9 185.821 1645.28 203.612 1636.16C209.47 1633.06 215.437 1630.71 216.875 1630.71C221.775 1630.71 230.478 1624.82 234.42 1618.78C238.578 1612.45 242.566 1602.73 248.178 1585.06C250.033 1579.17 252.97 1571.81 254.685 1568.57C258.72 1561.21 266.619 1553.7 270.267 1553.7C273.993 1553.7 275.508 1557.52 273.173 1561.06C272.153 1562.68 271.705 1564.3 272.153 1564.74C273.436 1565.92 286.498 1560.91 294.506 1556.05C306.316 1548.98 306.841 1543.24 297.86 1519.39C292.558 1505.1 289.544 1501.72 289.451 1509.67C289.389 1515.41 285.988 1531.02 284.195 1533.82C283.484 1534.85 283.082 1537.79 283.299 1540.15C283.53 1542.8 282.773 1545.3 281.459 1546.33C279.619 1547.81 278.831 1547.51 276.976 1544.86C274.982 1541.92 274.967 1540.15 276.883 1530.14C279.759 1515.12 279.743 1502.75 276.868 1493.62C273.328 1482.28 273.776 1475.8 278.414 1471.68C282.093 1468.44 282.417 1466.97 284.396 1445.03C286.282 1423.97 289.064 1357.78 288.972 1336.17C288.956 1331.45 290.1 1320.22 291.522 1311.21C295.665 1284.85 296.252 1264.41 293.377 1245.87C291.043 1230.87 285.03 1211.09 281.799 1207.82C279.187 1205.2 277.579 1210.44 277.548 1221.61C277.517 1234.45 276.729 1237.05 272.833 1237.05C268.737 1237.05 267.408 1232.38 267.748 1219.22C267.964 1210.71 269.031 1205.47 271.968 1198.55C274.116 1193.45 277.996 1182.22 280.593 1173.59C287.225 1151.47 287.75 1137.64 283.438 1097.92C279.975 1066.04 279.975 1065.74 282.526 1037.03C286.607 991.044 288.415 952.538 287.256 936.4L286.189 921.439L273.993 909.188C267.299 902.444 259.447 894.478 256.571 891.474C251.006 885.672 232.147 860.198 225.933 850.082C223.893 846.769 214.463 836.197 204.987 826.596C185.11 806.453 183.436 804.126 186.651 801.063C188.099 799.694 189.684 799.37 191.156 800.165C197.564 803.625 229.767 838.818 241.144 854.809C248.147 864.645 255.768 875.262 258.086 878.398C264.641 887.248 284.968 906.523 286.978 905.787C287.967 905.433 289.636 902.12 290.657 898.439C294.552 884.612 317.106 858.402 324.263 859.403C329.828 860.198 328.823 862.878 318.991 873.421C303.719 889.795 299.854 896.863 298.911 910.145C298.231 919.495 298.618 922.455 301.199 928.021C302.899 931.688 306.408 941.833 309.005 950.55C311.602 959.267 317.028 973.388 321.078 981.929C325.113 990.469 328.436 997.817 328.436 998.274C328.436 998.73 331.744 1005.64 335.81 1013.62C344.327 1030.36 357.235 1062.09 361.455 1076.61C363.047 1082.1 365.752 1091.1 367.453 1096.58C370.807 1107.38 372.137 1112.05 379.17 1137.63C389.712 1175.96 404.753 1209.9 421.463 1233.08C422.994 1235.2 424.246 1237.43 424.246 1238.07C424.246 1238.69 426.735 1241.75 429.78 1244.9C435.608 1250.92 446.629 1272.58 446.676 1278.09C446.707 1282.86 442.317 1283.85 438.916 1279.84C434.108 1274.19 432.81 1277.91 433.583 1295.04C434.727 1320.19 443.553 1343.01 465.226 1376.81C468.997 1382.68 475.552 1393.92 479.787 1401.76C484.023 1409.6 488.676 1417.62 490.129 1419.58C493.483 1424.12 518.077 1470.79 525.033 1485.96C527.924 1492.15 533.01 1504.96 536.333 1514.38C546.798 1544.12 547.958 1546.92 555.037 1560.32C562.009 1573.43 563.122 1576.96 560.618 1578.58C557.789 1580.2 554.234 1577.26 550.555 1570.33C547.076 1563.86 546.551 1563.41 544.356 1565.48C542.887 1566.95 541.712 1571.22 541.295 1576.52C540.692 1584.47 540.97 1585.5 544.897 1589.48C549.751 1594.19 560.664 1600.67 563.988 1600.67C567.296 1600.67 567.79 1597.72 565.271 1592.57C561.035 1584.03 566.708 1580.2 572.397 1587.71C576.478 1593.31 579.647 1600.52 583.187 1612.74C586.34 1623.49 600.685 1648.82 607.147 1654.86C609.373 1657.06 614.273 1659.57 618.029 1660.45C622.914 1661.63 626.98 1664.13 632.313 1669.14C646.38 1682.39 658.112 1685.19 666.599 1677.09ZM506.607 1256.34C505.216 1254.72 505.463 1252.68 507.766 1246.79C511.26 1237.86 514.413 1235.34 517.907 1238.67C520.102 1240.76 520.025 1241.57 516.979 1248.33C513.239 1256.62 509.42 1259.57 506.607 1256.34ZM470.512 1248.15C458.919 1236.77 451.761 1216.25 457.744 1211.52C461.33 1208.69 464.654 1211.96 464.684 1218.34C464.7 1225.51 470.62 1236.7 477.963 1243.4C485.089 1249.92 486.048 1254.16 480.375 1254.16C477.948 1254.16 474.5 1252.06 470.512 1248.15ZM214.602 1240.03C210.985 1237.11 210.97 1237.01 213.814 1234.92C215.406 1233.74 218.251 1232.77 220.121 1232.77C225.377 1232.77 226.706 1228.48 226.273 1212.93C225.949 1201.09 226.304 1198.27 228.422 1196.23C233.199 1191.67 235.069 1195.69 236.167 1212.83C236.939 1225.05 236.692 1229.4 235.038 1232.44C230.061 1241.62 220.832 1245.03 214.602 1240.03ZM331.883 853.955C330.523 850.568 333.367 847.093 337.943 846.578C341.236 846.195 341.9 846.681 341.9 849.493C341.9 855.604 333.97 859.138 331.883 853.955ZM363.866 788.665C363.403 787.546 364.407 783.202 366.061 779.035C367.731 774.853 369.725 769.42 370.498 766.96C372.43 760.761 375.615 758.391 378.706 760.85C380.36 762.16 380.824 764.045 380.206 767.078C379.155 772.232 373.466 786.368 371.41 788.915C369.478 791.315 364.871 791.168 363.866 788.665ZM177.92 774.721C172.42 768.536 163.444 749.998 164.036 746.037C164.367 743.813 165.54 742.915 168.109 742.915C171.15 742.915 172.403 744.461 176.084 752.736C178.486 758.14 182.143 765.002 184.209 767.976C190.927 777.651 185.605 783.349 177.92 774.721ZM253.698 734.242C248.21 729.839 247.7 724.759 252.415 721.608C256.604 718.81 260.02 718.81 265.631 721.564C270.995 724.214 271.676 730.678 267.054 735.081C263.034 738.91 259.216 738.674 253.698 734.242ZM369 651.061C367.377 650.074 367.13 647.733 367.887 640.798C369.309 627.84 377.626 613.866 383.917 613.866C388.307 613.866 388.292 617.606 383.871 624.247C381.537 627.766 378.785 634.392 377.734 639.001C374.843 651.827 373.452 653.741 369 651.061ZM176.886 540.065C174.64 538.74 172.513 536.943 172.159 536.06C171.108 533.453 173.699 530.715 177.461 530.45C180.426 530.243 180.894 529.537 180.5 525.87C179.959 520.849 182.8 519.126 188.321 521.114C192.808 522.748 193.861 524.353 194.025 529.846C194.11 532.702 192.908 535.353 190.554 537.518C185.546 542.141 181.649 542.863 176.886 540.065ZM383.453 536.737C382 535.942 380.826 534.514 380.841 533.571C380.856 529.139 384.304 520.834 387.751 516.932C394.506 509.305 400.349 512.397 400.241 523.573C400.195 529.257 397.196 533.851 391.724 536.649C387.859 538.607 386.854 538.622 383.453 536.737ZM278.925 378.459C276.375 376.045 276.158 375.132 277.72 373.35C278.925 371.981 281.043 371.465 283.547 371.936C286.33 372.466 289.437 371.45 294.105 368.505C301.834 363.617 309.594 362.925 311.836 366.93C313.521 369.919 311.388 372.864 307.554 372.864C306.271 372.864 301.525 374.763 296.996 377.075C287.18 382.111 283.084 382.42 278.925 378.459ZM285.433 361.423C282.002 360.112 279.497 354.208 281.213 351.542C281.754 350.718 284.274 350.04 286.809 350.04C293.502 350.04 295.79 346.639 304.617 323.653C310.244 308.958 314.108 302.98 317.926 302.98C321.945 302.98 321.806 306.455 317.416 315.997C315.484 320.208 312.408 327.938 310.599 333.18C305.853 346.889 298.975 358.286 293.951 360.76C291.586 361.923 289.452 362.836 289.205 362.777C288.958 362.733 287.257 362.115 285.433 361.423ZM265.183 334.712C263.916 333.342 260.994 326.245 258.722 318.956C254.842 306.573 254.733 305.542 257.068 303.318C259.247 301.242 259.819 301.198 261.566 303.024C263.776 305.336 266.992 313.464 270.779 326.363C272.804 333.254 272.897 334.992 271.274 335.963C268.476 337.657 267.811 337.524 265.183 334.712ZM660.263 1641.46C659.783 1640.13 658.686 1639.25 657.82 1639.25C656.831 1639.25 656.939 1640.28 658.098 1642.05C660.154 1645.14 661.607 1644.7 660.263 1641.46ZM667.312 1631.3C666.399 1629.09 663.772 1628.35 663.772 1630.41C663.772 1631.88 665.41 1633.5 666.971 1633.5C667.636 1633.5 667.791 1632.47 667.312 1631.3ZM171.244 1599.2C171.244 1596.55 168.517 1597.87 164.629 1602.29C159.306 1608.33 161.516 1610.98 166.991 1605.23C169.33 1602.73 171.244 1600.08 171.244 1599.2ZM461.007 995.932C461.904 991.691 464.841 984.55 467.499 980.074C470.653 974.787 472.647 969.177 473.203 964.038C474.193 954.879 471.426 952.803 469.772 961.461C468.612 967.557 461.192 986.067 458.039 990.764C456.88 992.501 455.798 995.196 455.628 996.757C454.53 1007.46 458.673 1006.83 461.007 995.932ZM479.634 980.191C479.634 979.411 478.969 979.161 478.135 979.647C477.315 980.132 476.635 981.163 476.635 981.958C476.635 982.739 477.315 982.989 478.135 982.503C478.969 982.017 479.634 980.972 479.634 980.191ZM496.082 954.246C496.097 950.477 495.525 947.738 494.799 948.15C493.021 949.21 491.398 959.635 492.573 962.536C494.165 966.483 496.051 962.006 496.082 954.246ZM484.689 947.105C485.338 941.612 485.153 939.109 484.148 939.698C483.313 940.199 482.633 944.204 482.633 948.592C482.633 958.531 483.406 957.972 484.689 947.105ZM443.06 639.958C441.267 619.55 439.798 611.098 435.547 596.874C432.641 587.14 429.874 578.821 429.411 578.379C427.927 576.965 425.948 581.354 419.564 600.187C415.9 611.024 413.04 622.524 412.608 628.134C411.927 637.308 412.159 638.147 418.729 649.809C422.485 656.494 427.54 664.77 429.952 668.215C432.363 671.646 434.852 676.079 435.47 678.037C436.104 679.995 438.376 684.81 440.525 688.727L444.451 695.854L444.884 680.599C445.116 672.206 444.297 653.918 443.06 639.958ZM177.412 637.234C183.307 625.101 186.184 612.305 186.034 598.891C185.898 586.669 184.3 578.732 182.732 582.487C182.241 583.665 179.446 595.887 176.521 609.64C173.597 623.408 170.536 636.881 169.721 639.59C168.907 642.285 168.24 645.716 168.24 647.188C168.24 651.783 172.675 646.982 177.412 637.234ZM218.666 343.974C234.743 331.605 240.107 324.596 240.107 315.967C240.107 312.242 240.818 305.512 241.699 301.007C242.565 296.486 242.827 290.832 242.271 288.417C241.73 286.017 236.861 277.889 231.481 270.349C213.426 245.067 205.311 223.112 208.619 208.446C209.469 204.662 209.763 199.169 209.268 196.239C207.892 188.037 211.2 161.636 214.725 152.668C217.492 145.63 219.238 143.671 228.884 136.883C241.529 127.975 246.847 120.524 249.196 108.405C251.376 97.1408 250.526 95.4238 244.25 98.4954C241.56 99.806 239.009 101.308 238.607 101.838C238.19 102.368 234.727 104.842 230.894 107.316C223.799 111.925 218.697 117.358 209.206 130.522C201.084 141.757 199.828 145.792 197.356 168.571C196.101 180.145 194.069 195.223 192.842 202.07C190.295 216.294 191.18 221.345 200.396 245.229C208.572 266.403 210.752 278.286 210.829 302.273C210.906 322.225 210.628 324.36 206.795 334.079C202.173 345.77 201.448 352.897 204.878 352.897C206.083 352.897 212.298 348.877 218.666 343.974ZM418.046 319.869L413.006 299.416L412.898 252.356C412.79 199.582 412.032 189.893 406.854 174.77C402.912 163.226 390.453 139.902 383.96 131.906C381.704 129.138 375.412 120.45 369.971 112.602C359.289 97.1997 345.315 82.6029 335.7 76.8175C317.599 65.9358 285.662 71.9185 271.858 88.7726C266.556 95.2324 258.054 111.071 258.085 114.428C258.116 119.184 265.149 131.214 270.529 135.72C276.279 140.52 280.87 142.081 297.302 144.746C311.091 146.999 318.712 153.89 323.117 168.085C326.874 180.174 331.65 186.123 342.115 191.763C353.307 197.785 361.917 207.725 364.375 217.472C365.488 221.919 365.751 234.862 365.163 256.758C364.22 291.892 365.673 305.601 371.208 313.626C372.954 316.173 378.009 319.486 384.532 322.358C390.314 324.905 400.779 330.545 407.766 334.889C414.923 339.321 421.06 342.236 421.787 341.544C422.513 340.852 420.875 331.355 418.046 319.869ZM355.919 275.533C355.533 241.194 355.796 244.507 353.508 244.537C348.53 244.596 347.557 247.099 347.093 261.088C346.397 281.275 347.788 294.94 351.065 300.064C352.58 302.45 354.374 304.408 355.038 304.408C355.688 304.408 356.089 291.406 355.919 275.533ZM274.718 285.236C287.131 282.733 300.579 276.387 314.553 266.447C326.518 257.936 328.883 254.564 332.145 241.371C335.02 229.782 335.175 230.504 329.563 229.989C322.823 229.37 322.7 226.19 328.991 216.368C337.153 203.631 337.169 202.144 329.13 194.192C325.219 190.334 320.288 183.208 317.753 177.789C307.334 155.54 307.412 155.613 290.531 152.536C274.455 149.605 266.355 145.571 259.244 136.972C255.951 132.981 252.659 129.506 251.932 129.241C251.221 128.991 244.605 133.349 237.263 138.945C222.655 150.062 219.919 154.244 218.203 168.188C217.059 177.465 218.836 180.336 225.684 180.351C231.234 180.351 240.107 185.122 240.107 188.096C240.107 189.245 238.978 190.776 237.618 191.498C235.377 192.705 235.423 192.97 238.128 194.354C240.401 195.518 241.9 195.37 244.296 193.78C247.202 191.836 247.65 191.954 249.846 195.12C253.277 200.126 252.442 219.328 248.763 219.99C247.048 220.3 245.873 219.254 245.239 216.854C243.863 211.597 240.632 209.698 233.769 210.081C228.946 210.36 226.844 209.654 223.582 206.679C220.877 204.205 219.115 203.469 218.435 204.515C213.72 211.789 215.142 227.191 221.804 240.664C228.328 253.916 248.81 282.777 253.339 285.119C258.363 287.725 262.336 287.74 274.718 285.236ZM252.381 268.465C248.284 264.577 250.479 263.37 261.315 263.576C273.079 263.782 276.202 265.991 268.395 268.597C262.119 270.673 254.622 270.615 252.381 268.465ZM239.133 257.45C237.355 256.714 235.547 255.566 235.114 254.888C231.172 248.807 259.074 241.636 266.741 246.745C269.045 248.292 271.58 248.689 274.749 248.027C280.252 246.878 286.512 249.587 286.512 253.121C286.512 254.829 284.843 255.801 280.901 256.376C269.586 258.039 242.256 258.746 239.133 257.45ZM243.09 237.852C239.118 236.35 235.609 232.727 235.609 230.121C235.609 226.057 238.546 225.424 242.178 228.678C246.182 232.256 252.303 232.536 257.358 229.385C259.661 227.942 262.444 227.426 264.824 227.986C267.669 228.663 268.813 228.266 269.446 226.366C272.105 218.326 273.079 217.104 275.321 218.871C278.01 221.006 278.227 230.268 275.661 233.434C274.579 234.745 270.575 236.07 266.293 236.512C262.181 236.953 255.781 237.616 252.071 237.999C248.377 238.382 244.327 238.323 243.09 237.852ZM272.213 207.327C271.688 206.502 271.657 203.69 272.183 201.084C272.847 197.653 274.238 195.93 277.191 194.87C284.008 192.396 291.443 191.748 297.549 193.103C309.653 195.768 308.602 200.303 294.705 205.236C284.997 208.682 273.775 209.727 272.213 207.327ZM263.109 188.199C261.764 184.857 263.789 183.473 273.558 181.043C289.202 177.17 301.476 178.584 301.476 184.253C301.476 185.77 299.559 185.976 292.711 185.24C284.735 184.386 275.645 185.932 265.922 189.819C264.902 190.217 263.634 189.495 263.109 188.199ZM352.859 228.516C354.683 224.938 355.131 222.449 354.219 220.903C353.06 218.915 352.302 219.239 348.886 223.112C344.233 228.369 343.414 234.995 347.51 234.273C348.963 234.023 351.359 231.432 352.859 228.516ZM230.925 192.234L234.48 191.321L230.925 189.451C228.977 188.42 225.607 187.551 223.443 187.522C219.439 187.463 215.358 190.526 217.152 192.234C218.404 193.427 226.272 193.412 230.925 192.234Z" fill="#E49271"/>
<path id="underw" fill-rule="evenodd" clip-rule="evenodd" d="M123.77 750.833C172.923 785.182 200.415 840.675 237.002 879.087C256.345 888.827 284.651 929.478 302.732 902.021C311.739 882.553 321.471 862.86 340.706 851.247C366.161 833.867 391.538 816.322 417.366 799.503C441.078 787.708 447.23 764.925 444.092 740.894C445.505 726.882 442.82 698.758 420.839 713.975C393.505 722.704 367.8 735.797 340.326 743.844C306.744 749.955 271.89 758.756 237.875 753.592C211.736 746.952 185.623 740.703 161.376 728.516C146.454 718.298 127.236 700.356 127.788 732.065C126.673 738.481 122.181 744.887 123.77 750.833Z" fill="#F4BAA3" stroke="#C66C49" stroke-width="5.08652" stroke-linecap="round" stroke-linejoin="round"/>
<path id="hair-out" d="M244.813 164C244.813 164 250.329 165.945 254.975 185.217C259.62 204.489 257.685 226.59 257.104 241.972C256.523 257.354 255.168 305.623 246.555 330.022C237.941 354.422 233.877 355.836 223.908 362.555C213.94 369.097 188.583 367.152 177.84 349.471C167.098 331.614 171.55 301.91 174.259 291.125C176.969 280.163 244.813 164 244.813 164Z" fill="#221B23"/>
<g id="left-ear">
<path id="Vector" d="M209.668 176.087C209.668 176.087 204.145 170.779 197.662 168.124C191.18 165.47 183.976 169.813 181.815 176.328C179.655 182.843 184.697 210.109 193.1 220.001C201.504 229.894 207.027 230.618 212.549 225.551C218.071 220.725 227.916 201.663 209.668 176.087Z" fill="#F4BAA3"/>
<path id="Vector_2" d="M212.549 179.948C213.51 181.395 214.23 182.843 215.19 184.291C216.151 185.738 216.871 187.427 217.591 188.875C218.312 190.564 219.032 192.012 219.512 193.701C219.993 195.39 220.713 197.079 220.953 199.009C221.193 199.974 221.193 200.94 221.433 201.663L221.673 204.559C221.673 208.419 221.193 212.039 220.233 215.658C219.032 219.277 217.591 222.414 215.19 225.068C214.71 225.792 213.99 226.275 213.51 226.999C212.789 227.481 212.309 227.964 211.589 228.446C210.148 229.412 208.708 230.135 207.027 230.135C205.346 230.377 203.665 230.135 202.225 229.412C200.784 228.688 199.343 227.723 198.143 226.757C196.942 225.792 195.742 224.586 194.541 223.138C193.341 221.932 192.38 220.484 191.42 219.036C187.818 213.004 185.657 206.248 183.736 199.492C182.776 196.114 182.056 192.736 181.335 189.116C180.615 185.497 180.135 182.119 180.375 178.258C180.375 177.293 180.615 176.328 180.855 175.122C181.095 174.639 181.095 174.157 181.335 173.674L182.056 172.468C183.016 170.779 184.217 169.572 185.417 168.366C188.058 166.194 191.18 165.229 194.301 165.712C195.742 165.953 197.423 166.435 198.623 167.159C200.064 167.883 201.264 168.607 202.705 169.572C205.346 171.261 207.747 173.191 210.148 175.363L212.549 179.948ZM201.985 170.779C200.544 170.055 199.343 169.572 197.903 169.09C196.462 168.607 195.262 168.366 193.821 168.366C191.18 168.607 188.539 169.572 186.378 171.502C185.417 172.468 184.457 173.433 183.736 174.88C183.496 175.604 183.016 176.087 182.776 176.811C182.536 177.535 182.296 178.017 182.296 178.982C181.816 182.119 182.056 185.738 182.536 189.116C183.016 192.494 183.496 196.114 184.217 199.492C185.897 206.248 188.298 213.004 192.14 218.071C194.061 220.484 196.462 222.655 198.623 224.586C201.024 226.275 203.665 227.481 206.066 226.999C207.267 226.757 208.467 226.275 209.668 225.551C210.868 224.827 211.829 223.862 212.789 222.655C214.47 220.243 216.151 217.588 216.871 214.452C217.832 211.315 218.312 208.178 218.552 204.8C218.552 201.422 218.312 198.044 217.591 194.666C216.151 187.91 213.27 181.637 209.428 176.328C207.267 173.915 204.626 172.226 201.985 170.779Z" fill="#E59E82"/>
<path id="Vector_3" d="M190.219 175.122C197.423 176.328 202.225 188.875 203.665 197.32C203.905 197.562 203.905 197.803 204.145 198.044C204.866 199.251 203.185 200.698 202.465 199.492C201.504 197.803 200.064 195.873 198.383 195.149C195.262 193.942 193.581 197.562 194.301 201.181C195.262 205.283 197.903 207.937 200.304 211.074C200.544 211.315 200.304 211.798 200.064 211.556C196.222 209.143 190.459 200.698 193.101 195.39C195.021 191.529 198.143 192.253 200.784 194.425C199.103 189.599 197.663 184.773 194.061 181.154C192.86 179.948 190.7 178.017 189.019 178.258C186.138 178.741 186.138 183.084 185.897 185.738C185.657 189.358 186.138 193.218 186.618 197.079C186.618 197.562 186.138 197.562 186.138 197.32C184.697 191.529 181.816 173.674 190.219 175.122Z" fill="#D58464"/>
</g>
<g id="right-ear">
<path id="Vector_4" d="M382.544 176.087C382.544 176.087 388.067 170.779 394.55 168.124C401.032 165.47 408.236 169.813 410.397 176.328C412.558 182.843 407.515 210.108 399.112 220.001C390.708 229.894 385.185 230.618 379.663 225.551C374.141 220.725 364.296 201.663 382.544 176.087Z" fill="#F4BAA3"/>
<path id="Vector_5" d="M382.544 175.846C384.945 173.674 387.346 171.744 389.988 170.055C391.188 169.09 392.629 168.366 394.069 167.642C395.51 166.918 396.951 166.435 398.391 166.194C401.513 165.953 404.634 166.677 407.275 168.848C408.476 169.813 409.676 171.261 410.637 172.95L411.357 174.157C411.597 174.639 411.597 175.122 411.837 175.604C412.077 176.569 412.317 177.776 412.317 178.741C412.558 182.602 411.837 186.221 411.357 189.599C410.637 193.218 409.916 196.596 408.956 199.974C407.035 206.73 404.874 213.487 401.273 219.519C400.312 220.966 399.352 222.173 398.151 223.621C397.191 224.827 395.99 226.034 394.55 227.24C393.349 228.205 391.908 229.17 390.468 229.894C389.027 230.618 387.346 230.859 385.666 230.618C383.985 230.377 382.544 229.653 381.104 228.929C380.383 228.446 379.663 227.964 379.183 227.481C378.462 226.999 377.982 226.275 377.502 225.551C375.341 222.897 373.66 219.519 372.46 216.141C371.499 212.521 370.779 208.902 371.019 205.041L371.259 202.146C371.259 201.181 371.499 200.216 371.739 199.492C371.98 197.562 372.7 195.872 373.18 194.183C373.9 192.494 374.381 190.805 375.101 189.358C375.821 187.91 376.542 186.221 377.502 184.773C378.462 183.326 379.183 181.878 380.143 180.43L382.544 175.846ZM382.544 176.087C378.703 181.395 375.821 187.91 374.381 194.425C373.66 197.803 373.42 201.181 373.42 204.559C373.42 207.937 373.9 211.074 375.101 214.21C376.061 217.347 377.502 220.001 379.183 222.414C380.143 223.621 381.104 224.586 382.304 225.31C383.505 226.033 384.465 226.757 385.906 226.757C388.307 227.24 390.948 226.033 393.349 224.344C395.75 222.414 397.911 220.243 399.832 217.83C403.674 212.763 406.075 206.007 407.755 199.251C408.716 195.872 409.196 192.494 409.436 188.875C409.916 185.497 409.916 181.878 409.676 178.741C409.676 178.017 409.436 177.293 409.196 176.569C408.956 175.846 408.716 175.122 408.236 174.639C407.515 173.433 406.555 172.226 405.594 171.261C403.434 169.572 401.032 168.366 398.151 168.124C396.711 168.124 395.51 168.366 394.069 168.848C392.629 169.331 391.428 169.813 389.988 170.537C387.586 172.226 384.945 173.915 382.544 176.087Z" fill="#E59E82"/>
<path id="Vector_6" d="M401.993 175.122C394.789 176.328 389.987 188.875 388.547 197.32C388.307 197.561 388.307 197.803 388.066 198.044C387.346 199.25 389.027 200.698 389.747 199.492C390.708 197.803 392.148 195.872 393.829 195.149C396.95 193.942 398.631 197.561 397.911 201.181C396.95 205.283 394.309 207.937 391.908 211.074C391.668 211.315 391.908 211.797 392.148 211.556C395.99 209.143 401.753 200.698 399.111 195.39C397.19 191.529 394.069 192.253 391.428 194.425C393.109 189.599 394.549 184.773 398.151 181.154C399.351 179.947 401.512 178.017 403.193 178.258C406.074 178.741 406.074 183.084 406.315 185.738C406.555 189.358 406.074 193.218 405.594 197.079C405.594 197.561 406.074 197.561 406.074 197.32C407.515 191.529 410.396 173.674 401.993 175.122Z" fill="#D58464"/>
</g>
<path id="shape-face" d="M397.997 156.238C395.071 87.5808 349.95 50 298 50C245.806 50 200.93 87.5808 198.003 156.238C198.003 156.238 197.759 188.76 201.905 215.259C206.051 241.999 219.441 256.261 239.197 279.869C258.952 303.477 275.464 314.318 286.439 312.873C286.439 312.873 295.415 311.307 298.098 311.307C300.781 311.307 310.146 312.294 310.146 312.294C321.121 313.74 337.048 303.285 356.803 279.676C376.559 256.068 389.949 241.999 394.095 215.259C398.241 188.76 397.997 156.238 397.997 156.238Z" fill="#F4BAA3"/>
<path id="head" d="M237.538 283.103C258.282 306.887 275.184 317.323 286.708 315.867C286.708 315.867 296.183 314.41 299 314.41C301.817 314.41 311.292 315.867 311.292 315.867C322.817 317.323 339.719 306.887 360.462 283.103C381.205 259.319 395.546 243.301 399.9 216.362C404.253 189.423 403.997 156.902 403.997 156.902C400.924 87.734 353.624 49 299.077 49C244.53 49 197.076 87.734 194.003 156.659C194.003 156.659 193.747 189.423 198.1 216.119C202.454 243.058 216.795 259.319 237.538 283.103ZM196.308 168.284L196.052 162.387V156.465C196.564 140.981 199.637 125.497 206.039 111.494C209.112 104.359 213.21 97.733 218.075 91.5928C220.38 88.632 223.197 85.6954 225.758 83.0015L227.807 81.0356C228.575 80.3076 229.087 79.7979 229.856 79.0698C231.392 77.8321 232.673 76.6186 234.465 75.3809C240.611 70.7211 247.27 66.7895 254.44 63.5859C261.611 60.6251 269.038 58.1738 276.464 56.6934C291.573 53.7325 307.451 53.9995 322.56 57.1788C326.402 58.1738 329.987 58.9019 333.572 60.1397C337.158 61.3774 340.743 62.8336 344.328 64.314C351.243 67.5176 357.901 71.4492 364.047 76.1089C370.193 80.7687 375.571 86.4235 380.437 92.3209C381.717 93.8014 382.742 95.5245 384.022 96.9807C384.534 97.7087 385.047 98.7038 385.559 99.4319L387.095 101.883C388.12 103.606 389.144 105.329 389.912 107.052C390.681 108.776 391.705 110.499 392.473 112.222C399.132 126.225 402.461 141.976 402.973 157.46C402.973 161.392 402.973 165.323 402.717 169.255C402.461 173.187 402.461 177.118 401.949 181.05L401.436 186.947C401.18 188.913 401.18 190.879 400.924 192.845C400.412 196.777 399.9 200.708 399.388 204.397L398.875 207.358L398.363 210.319C398.107 212.285 397.595 214.251 397.339 215.974C397.083 217.939 396.571 219.663 396.058 221.628C395.802 222.623 395.546 223.352 395.29 224.322L394.522 227.016C391.961 234.151 388.632 241.02 384.278 247.427C379.925 253.81 375.059 259.707 369.937 265.605L366.096 270.022L361.998 274.439L354.06 283.297C348.938 288.952 343.304 294.607 337.67 299.509C336.133 300.747 334.853 301.96 333.316 302.955C331.78 304.193 330.243 305.164 328.707 306.159C325.634 308.125 322.56 309.848 319.487 311.086C317.951 311.571 316.414 312.081 315.134 312.323C314.366 312.566 311.036 312.566 311.036 312.566L304.89 311.838C303.866 311.595 299 311.352 298.744 311.352H297.72C296.439 311.352 292.342 311.838 291.317 312.081L285.427 312.809C283.123 313.051 280.049 312.566 276.976 311.086C273.903 309.848 270.574 307.882 267.757 305.916C264.684 303.708 261.611 301.499 258.794 299.024C253.16 294.097 247.526 288.442 242.404 282.545C237.026 276.647 231.904 270.75 226.783 264.61C222.48 259.416 216.846 252.523 211.315 242.84C209.932 240.437 206.731 233.181 205.86 230.584L201.174 214.954C200.405 211.265 199.893 207.334 199.381 203.402C198.357 195.781 197.588 187.918 196.82 180.298C196.82 176.148 196.564 172.216 196.308 168.284Z" fill="#C66C49"/>
<g id="mouth">
<path id="Vector_7" d="M267.782 266.6C267.782 266.6 273.547 265.876 276.927 264.187C280.306 262.498 287.065 259.12 292.234 258.879C297.403 258.638 301.975 259.844 308.138 262.257C314.3 264.67 320.463 266.6 323.445 266.118C323.445 266.118 321.06 269.013 316.487 272.391C311.915 275.769 304.957 279.388 297.005 279.63C289.053 279.871 282.493 278.423 276.927 274.804C270.963 271.185 268.18 268.289 267.782 266.6Z" fill="#DA7C87"/>
<path id="Vector_8" d="M277.921 273.115C287.264 277.699 299.987 278.665 308.933 272.15C309.331 271.908 309.132 270.943 308.734 270.943C303.565 271.185 298.595 272.632 293.427 273.115C288.258 273.356 283.089 272.874 278.119 272.391C277.722 272.15 277.722 272.874 277.921 273.115Z" fill="#E99CA5"/>
<path id="Vector_9" d="M264.295 267.172C273.44 273.445 283.976 267.896 293.717 268.378C302.464 268.62 314.392 272.963 322.344 266.689C323.139 266.207 322.543 265 321.747 265C316.976 265.965 312.603 267.172 307.832 266.931C303.06 266.689 298.488 265.724 293.717 265.724C283.976 265.483 274.235 270.067 264.693 265.965C264.096 265.483 263.699 266.689 264.295 267.172Z" fill="#CB5F6C"/>
<path id="Vector_10" d="M290.047 262.257C294.222 262.257 298.198 263.463 302.373 264.67C302.969 264.911 303.367 263.946 302.77 263.463C298.794 261.051 294.222 260.809 290.047 261.533C289.65 261.533 289.65 262.016 290.047 262.257Z" fill="#E99CA5"/>
</g>
<g id="eye-left">
<path id="Vector_11" d="M276.897 189.599C276.897 189.599 273.056 185.015 266.573 181.154C260.09 177.293 250.966 174.398 242.322 175.363C233.918 176.328 226.715 178.5 226.955 178.741C227.195 178.982 229.596 184.291 235.119 187.427C240.641 190.564 246.884 193.701 254.808 193.942C262.731 193.942 269.214 192.977 272.816 191.529C276.417 190.082 276.897 189.599 276.897 189.599Z" fill="white"/>
<path id="Vector_12" d="M252.887 170.055C259.85 170.055 265.373 175.604 265.373 182.602C265.373 189.599 259.85 195.149 252.887 195.149C245.924 195.149 240.401 189.599 240.401 182.602C240.401 175.604 245.924 170.055 252.887 170.055Z" fill="#3E4442"/>
<path id="Vector_13" d="M252.887 195.631C245.684 195.631 239.921 189.84 239.921 182.602C239.921 175.363 245.684 169.572 252.887 169.572C260.09 169.572 265.852 175.363 265.852 182.602C265.852 189.84 260.09 195.631 252.887 195.631ZM252.887 170.778C246.404 170.778 241.122 176.087 241.122 182.602C241.122 189.116 246.404 194.425 252.887 194.425C259.37 194.425 264.652 189.116 264.652 182.602C264.652 176.087 259.37 170.778 252.887 170.778Z" fill="#1B2522"/>
<path id="Vector_14" d="M252.887 175.846C256.489 175.846 259.61 178.982 259.61 182.602C259.61 186.221 256.489 189.358 252.887 189.358C249.285 189.358 246.164 186.221 246.164 182.602C246.164 178.982 249.285 175.846 252.887 175.846Z" fill="black"/>
<path id="Vector_15" d="M249.765 175.846C250.966 175.846 252.166 176.811 252.166 178.258C252.166 179.706 251.206 180.671 249.765 180.671C248.325 180.671 247.364 179.706 247.364 178.258C247.364 176.811 248.565 175.846 249.765 175.846ZM257.449 186.462C257.929 186.462 258.409 186.945 258.409 187.427C258.409 187.91 257.929 188.393 257.449 188.393C256.969 188.393 256.488 187.91 256.488 187.427C256.488 186.945 256.969 186.462 257.449 186.462Z" fill="white"/>
<path id="Vector_16" d="M225.827 186.535C225.827 203.184 237.664 216.696 252.287 216.696C266.909 216.696 278.746 203.184 278.746 186.535C278.746 169.886 266.909 156.374 252.287 156.374C237.664 156.374 225.827 169.862 225.827 186.535ZM226.835 178.838C226.667 178.572 233.798 176.594 242.298 175.556C250.798 174.519 259.922 177.462 266.453 181.251C272.984 185.063 276.85 189.647 276.85 189.647C276.85 189.647 276.009 190.058 272.576 191.529C269.142 193.001 262.443 194.111 254.616 194.039C246.788 193.942 240.617 190.757 235.023 187.572C229.405 184.363 227.003 179.079 226.835 178.838Z" fill="#F4BAA3"/>
<path id="Vector_17" d="M277.234 188.634C273.296 178.355 265.901 169.837 254.76 167.449C243.307 165.012 233.919 170.127 225.755 177.607C225.611 177.752 225.323 177.559 225.467 177.366C238.961 157.17 272.6 165.832 277.45 188.537C277.474 188.706 277.282 188.754 277.234 188.634Z" fill="#E59E82"/>
<path id="Vector_18" d="M208.587 180.213C213.701 180.913 218.215 179.923 222.681 178.548C218.288 178.355 213.99 176.98 210.268 174.229C209.884 173.964 210.1 173.191 210.628 173.409C216.511 175.821 222.417 177.124 228.516 176.666C230.485 176.014 232.502 175.411 234.591 174.929C239.681 173.746 245.011 173.481 250.15 174.301C260.21 175.894 271.687 181.25 277.45 190.033C277.546 190.202 277.33 190.323 277.21 190.226C266.861 181.878 256.993 176.328 243.283 176.642C238.096 176.762 233.03 178.331 227.94 179.754C238.961 194.232 259.634 197.175 275.769 190.082C275.841 190.033 275.913 190.154 275.841 190.202C260.042 198.092 237.28 195.704 226.859 180.044C220.713 181.733 214.59 183.084 208.323 181.25C207.651 181.033 207.939 180.116 208.587 180.213Z" fill="#594108"/>
</g>
<g id="eye-right">
<path id="Vector_19" d="M315.315 189.599C315.315 189.599 319.157 185.015 325.639 181.154C332.122 177.293 341.246 174.398 349.89 175.363C358.294 176.328 365.497 178.5 365.257 178.741C365.017 178.982 362.616 184.291 357.093 187.427C351.571 190.564 345.328 193.701 337.405 193.942C329.481 193.942 322.998 192.977 319.397 191.529C315.795 190.082 315.315 189.599 315.315 189.599Z" fill="white"/>
<path id="Vector_20" d="M339.325 170.055C346.288 170.055 351.811 175.604 351.811 182.602C351.811 189.599 346.288 195.149 339.325 195.149C332.362 195.149 326.84 189.599 326.84 182.602C326.84 175.604 332.362 170.055 339.325 170.055Z" fill="#3E4442"/>
<path id="Vector_21" d="M339.325 195.631C332.122 195.631 326.359 189.84 326.359 182.602C326.359 175.363 332.122 169.572 339.325 169.572C346.528 169.572 352.291 175.363 352.291 182.602C352.291 189.84 346.528 195.631 339.325 195.631ZM339.325 170.778C332.842 170.778 327.56 176.087 327.56 182.602C327.56 189.116 332.842 194.425 339.325 194.425C345.808 194.425 351.09 189.116 351.09 182.602C351.09 176.087 345.808 170.778 339.325 170.778Z" fill="#1B2522"/>
<path id="Vector_22" d="M339.325 175.846C342.927 175.846 346.048 178.982 346.048 182.602C346.048 186.221 342.927 189.358 339.325 189.358C335.723 189.358 332.602 186.221 332.602 182.602C332.602 178.982 335.723 175.846 339.325 175.846Z" fill="black"/>
<path id="Vector_23" d="M336.444 175.846C337.645 175.846 338.845 176.811 338.845 178.258C338.845 179.706 337.885 180.671 336.444 180.671C335.003 180.671 334.043 179.706 334.043 178.258C334.043 176.811 335.003 175.846 336.444 175.846ZM344.127 186.462C344.608 186.462 345.088 186.945 345.088 187.427C345.088 187.91 344.608 188.393 344.127 188.393C343.647 188.393 343.167 187.91 343.167 187.427C343.167 186.945 343.647 186.462 344.127 186.462Z" fill="white"/>
<path id="Vector_24" d="M339.95 156.374C325.351 156.374 313.49 169.886 313.49 186.535C313.49 203.184 325.327 216.696 339.95 216.696C354.572 216.696 366.409 203.184 366.409 186.535C366.409 169.886 354.548 156.374 339.95 156.374ZM357.213 187.548C351.619 190.733 345.448 193.942 337.621 194.015C329.793 194.111 323.094 192.977 319.661 191.505C316.227 190.033 315.387 189.623 315.387 189.623C315.387 189.623 319.228 185.039 325.783 181.226C332.314 177.414 341.438 174.494 349.938 175.532C358.438 176.569 365.593 178.548 365.401 178.813C365.209 179.079 362.808 184.363 357.213 187.548Z" fill="#F4BAA3"/>
<path id="Vector_25" d="M314.978 188.634C318.916 178.355 326.311 169.837 337.452 167.449C348.905 165.012 358.294 170.127 366.457 177.607C366.601 177.752 366.889 177.559 366.745 177.366C353.251 157.17 319.612 165.832 314.762 188.537C314.738 188.706 314.93 188.754 314.978 188.634Z" fill="#E59E82"/>
<path id="Vector_26" d="M383.625 180.213C378.511 180.913 373.997 179.923 369.531 178.548C373.925 178.355 378.223 176.98 381.944 174.229C382.328 173.964 382.112 173.191 381.584 173.409C375.701 175.821 369.795 177.124 363.696 176.666C361.727 176.014 359.71 175.411 357.621 174.929C352.531 173.746 347.201 173.481 342.063 174.301C332.002 175.894 320.525 181.25 314.762 190.033C314.666 190.202 314.883 190.323 315.003 190.226C325.351 181.878 335.219 176.328 348.93 176.642C354.116 176.762 359.182 178.331 364.272 179.754C353.251 194.232 332.578 197.175 316.443 190.082C316.371 190.033 316.299 190.154 316.371 190.202C332.17 198.092 354.932 195.704 365.353 180.044C371.5 181.733 377.622 183.084 383.889 181.25C384.561 181.033 384.273 180.116 383.625 180.213Z" fill="#594108"/>
</g>
<g id="left-eyebrown">
<path id="Vector_27" d="M231.037 153.165C231.277 152.682 231.998 152.441 232.478 152.199C232.958 151.958 233.438 151.717 233.918 151.717C234.879 151.234 235.839 150.752 236.8 150.51C238 150.269 239.681 149.304 240.881 150.028C244.723 148.58 249.765 149.545 253.127 151.476C257.689 151.958 262.491 153.406 265.852 155.819C266.093 156.06 266.333 156.301 266.333 156.543C267.053 156.784 267.533 157.025 268.254 157.267C270.655 158.232 273.296 158.956 275.697 160.162C275.937 160.162 276.177 160.403 276.417 160.403C277.137 160.645 277.378 162.092 276.897 162.334C276.657 162.575 276.657 162.816 276.417 163.057C274.496 164.505 272.095 163.54 270.174 162.816C268.494 162.092 266.573 161.368 265.372 159.921C263.451 159.197 262.011 158.232 260.33 157.267C260.09 157.267 259.85 157.025 259.61 157.025C256.728 156.543 253.607 155.336 250.726 153.888C249.045 153.647 247.604 153.165 245.924 153.165C243.763 152.923 241.602 153.647 239.201 152.923H238.961C238.48 153.165 238 153.165 237.52 153.406C235.599 153.888 233.918 154.371 231.998 154.371C231.757 154.371 231.517 154.13 231.517 153.888H231.277C231.277 153.888 230.797 153.647 231.037 153.165Z" fill="#2A232B"/>
<path id="Vector_28" d="M241.842 148.58C249.285 148.097 256.729 152.199 263.452 154.853C267.533 156.542 275.937 157.025 277.618 162.092C277.858 162.816 276.897 163.057 276.417 162.575C274.256 159.679 270.655 159.197 267.293 158.231C264.412 157.266 261.771 156.301 258.89 155.095C253.127 152.682 247.364 151.234 241.362 149.786C241.122 149.545 241.362 148.821 241.842 148.58Z" fill="#3A353A"/>
<path id="Vector_29" d="M280.019 162.092C280.739 158.714 275.697 157.508 273.296 156.542C267.533 154.13 261.531 151.475 255.528 149.786C251.926 148.821 248.085 148.097 244.483 148.097C241.602 148.097 238.961 148.339 236.079 149.304C231.277 150.752 226.715 153.647 222.633 156.784C220.472 157.99 218.311 159.679 216.631 161.368C216.391 161.61 216.631 162.092 217.111 161.851C217.111 161.851 217.351 161.851 217.351 161.61C217.351 161.851 217.591 161.851 217.831 161.851C221.433 160.162 224.554 157.99 228.156 156.542C231.757 155.095 235.599 154.13 239.441 153.888H241.122C245.684 153.888 250.005 154.853 254.087 156.784C259.85 159.438 265.132 163.057 270.895 165.229C271.855 165.711 273.056 165.711 274.256 165.711C276.897 165.711 279.539 164.746 280.019 162.092ZM244.483 150.269C248.325 150.269 252.166 151.234 256.008 152.441C260.81 154.13 265.612 156.301 270.415 158.232C271.375 158.714 276.177 159.921 276.657 161.127C277.137 162.575 276.177 163.057 274.736 163.299C274.016 163.299 273.296 163.057 272.816 163.057C271.375 162.575 269.934 161.61 268.734 160.886C261.29 157.025 253.607 152.441 245.203 151.958H242.802C240.161 151.958 237.28 152.199 234.399 152.682C235.599 152.199 236.8 151.717 238.24 151.234C240.161 150.51 242.322 150.269 244.483 150.269Z" fill="#1B141C"/>
</g>
<g id="right-eyebrown">
<path id="Vector_30" d="M361.175 153.165C360.935 152.682 360.214 152.441 359.734 152.199C359.254 151.958 358.774 151.717 358.294 151.717C357.333 151.234 356.373 150.752 355.412 150.51C354.212 150.269 352.531 149.304 351.331 150.028C347.489 148.58 342.447 149.545 339.085 151.476C334.523 151.958 329.721 153.406 326.36 155.819C326.119 156.06 325.879 156.301 325.879 156.543C325.159 156.784 324.679 157.025 323.958 157.267C321.557 158.232 318.916 158.956 316.515 160.162C316.275 160.162 316.035 160.403 315.795 160.403C315.075 160.645 314.834 162.092 315.315 162.334C315.555 162.575 315.555 162.816 315.795 163.057C317.716 164.505 320.117 163.54 322.038 162.816C323.718 162.092 325.639 161.368 326.84 159.921C328.761 159.197 330.201 158.232 331.882 157.267C332.122 157.267 332.362 157.025 332.602 157.025C335.484 156.543 338.605 155.336 341.486 153.888C343.167 153.647 344.608 153.165 346.288 153.165C348.449 152.923 350.61 153.647 353.011 152.923H353.251C353.732 153.165 354.212 153.165 354.692 153.406C356.613 153.888 358.294 154.371 360.214 154.371C360.455 154.371 360.695 154.13 360.695 153.888H360.935C360.935 153.888 361.415 153.647 361.175 153.165Z" fill="#2A232B"/>
<path id="Vector_31" d="M350.37 148.58C342.927 148.097 335.484 152.199 328.761 154.853C324.679 156.542 316.275 157.025 314.594 162.092C314.354 162.816 315.315 163.057 315.795 162.575C317.956 159.679 321.557 159.197 324.919 158.231C327.8 157.266 330.441 156.301 333.323 155.095C339.085 152.682 344.848 151.234 350.85 149.786C351.09 149.545 350.85 148.821 350.37 148.58Z" fill="#3A353A"/>
<path id="Vector_32" d="M317.716 165.47C318.916 165.47 320.117 165.229 321.077 164.988C326.84 162.816 332.362 159.197 337.885 156.543C342.207 154.612 346.529 153.647 350.85 153.647H352.531C356.373 153.888 360.215 154.853 363.576 156.301C367.178 157.749 370.539 160.162 373.901 161.61C374.141 161.61 374.381 161.61 374.381 161.368C374.381 161.368 374.621 161.368 374.621 161.61C375.101 161.851 375.341 161.368 375.101 161.127C373.42 159.438 371.259 157.749 369.099 156.543C365.017 153.406 360.455 150.752 355.653 149.063C353.011 148.097 350.13 147.856 347.249 147.856C343.407 147.856 339.806 148.58 336.204 149.545C330.201 151.234 324.199 153.888 318.436 156.301C316.275 157.266 310.993 158.473 311.713 161.851C312.674 164.746 315.315 165.711 317.716 165.47ZM354.212 151.234C355.412 151.717 356.853 151.958 358.054 152.682C355.172 152.199 352.531 151.958 349.65 151.958H347.249C338.845 152.441 330.922 157.266 323.718 160.886C322.278 161.61 321.077 162.575 319.637 163.057C319.156 163.299 318.436 163.299 317.716 163.299C316.515 163.299 315.315 162.816 315.795 161.127C316.275 159.921 321.077 158.714 322.038 158.232C326.84 156.301 331.642 154.13 336.444 152.441C340.286 151.234 344.127 150.269 347.969 150.269C349.89 150.269 352.051 150.51 354.212 151.234Z" fill="#1B141C"/>
</g>
<g id="nose">
<path id="Vector_33" d="M290.631 170.465C288.71 178.5 288.446 187.089 287.582 195.293C286.67 204.076 284.989 213.149 285.109 221.98C285.109 222.679 286.189 222.872 286.357 222.149C288.134 214.09 288.35 205.476 289.191 197.272C290.079 188.489 291.712 179.392 291.424 170.585C291.424 170.127 290.751 170.006 290.631 170.465Z" fill="#C66C49"/>
<path id="Vector_34" d="M283.404 217.347C281.051 220.508 279.082 223.934 277.354 227.481C276.249 229.773 274.857 232.476 275.601 235.106C276.801 239.449 282.3 240.8 285.877 238.749C286.934 238.122 286.454 236.457 285.253 236.457C283.164 236.433 280.715 237.109 279.058 235.323C277.042 233.176 279.034 229.291 279.923 227.119C281.243 223.934 282.852 220.87 284.101 217.661C284.269 217.202 283.644 217.033 283.404 217.347Z" fill="#C66C49"/>
<path id="Vector_35" d="M283.068 235.226C289.551 234.744 290.776 242.948 296.946 243.141C302.229 243.31 302.637 235.323 307.655 235.564C308.231 235.588 308.423 234.768 307.943 234.478C302.253 231.1 301.196 241.041 295.962 240.414C292.865 240.052 290.656 235.468 287.87 234.141C285.973 233.248 284.605 233.32 282.756 234.165C282.3 234.43 282.54 235.275 283.068 235.226Z" fill="#C66C49"/>
<path id="Vector_36" d="M305.878 238.942C310.152 239.907 315.122 238.58 316.131 233.803C316.635 231.414 315.843 229.049 314.594 227.023C312.577 223.717 309.96 220.918 308.039 217.492C307.727 216.913 306.911 217.202 306.887 217.805C306.647 221.642 309.48 224.296 311.497 227.264C313.37 229.99 314.978 233.755 311.833 236.457C310.392 237.688 307.655 237.47 305.878 237.808C305.302 237.929 305.326 238.822 305.878 238.942Z" fill="#C66C49"/>
</g>
<g id="hair">
<path id="Vector_37" d="M399.592 141.341C397.431 159.921 392.869 177.535 388.067 186.221C388.067 186.221 387.346 151.717 379.183 135.309C371.019 118.902 347.009 100.081 344.127 86.3276C344.127 86.3276 347.729 94.2901 353.251 97.6682C358.774 101.046 377.982 116.006 382.544 121.073C387.106 126.14 394.55 138.687 397.671 140.376C397.911 140.617 398.872 140.859 399.592 141.341ZM216.631 277.428C216.631 278.876 216.151 282.736 215.43 288.286C213.75 272.361 210.388 254.747 210.388 254.747C210.388 254.747 137.876 362.12 147.48 397.589C157.085 433.059 176.533 457.67 178.454 459.6C180.375 461.531 188.058 464.185 191.42 470.458C192.62 472.871 216.631 449.225 204.866 420.753C193.341 392.281 190.699 372.978 200.304 358.018C201.984 355.364 203.425 352.468 204.866 349.573C202.945 359.948 201.264 368.152 200.784 370.565C198.623 379.01 198.623 391.074 204.386 404.345C210.148 417.616 219.032 418.34 219.032 418.34C214.95 411.825 214.71 400.726 218.552 389.144C222.393 377.562 228.636 366.222 231.998 354.157C235.599 341.61 237.28 326.651 225.515 301.798C219.032 287.079 216.631 277.428 216.631 277.428Z" fill="#221B23"/>
<path id="Vector_38" d="M344.127 86.3278C344.127 86.3278 300.428 102.735 265.373 90.4297C230.317 78.124 207.747 126.864 210.628 155.819C213.51 184.773 202.865 219.438 221.673 269.465C210.148 316.275 176.533 351.986 166.929 372.737C157.325 393.487 157.325 414.721 166.929 429.922C176.533 445.123 181.335 455.981 183.977 471.906C183.977 471.906 180.375 463.22 166.209 452.603C143.879 435.954 159.719 420.833 161.16 389.949C187.258 389.949 160.446 333.568 172.211 308.715C183.736 283.862 180.375 249.197 172.211 228.446C164.048 207.696 154.684 178.982 158.045 127.829C161.407 76.9175 189.499 49.652 224.554 28.9012C259.61 8.15044 310.272 12.011 342.447 32.038C374.621 52.0649 369.819 69.9202 369.819 69.9202C369.819 69.9202 379.423 65.0944 393.829 87.0516C408.236 109.009 398.631 167.642 388.307 186.221C388.307 186.221 387.587 151.717 379.423 135.309C371.259 118.902 347.009 100.081 344.127 86.3278Z" fill="#2A232B"/>
<path id="Vector_39" d="M362.375 71.1267C356.853 74.746 351.09 74.746 347.729 73.057C337.885 68.7138 329.961 53.7539 321.797 44.8263C308.111 29.8664 304.51 22.1452 273.056 20.4562C250.726 19.2498 232.958 25.0407 222.634 29.6251C188.538 50.1346 169.57 77.4002 166.209 127.588C162.847 178.5 167.649 237.294 176.053 258.044C184.457 278.795 168.474 311.932 168.61 308.554C168.745 305.176 151.882 359.868 150.442 390.753C149.001 421.638 144.119 435.713 166.209 452.362C180.375 462.978 183.976 471.665 183.976 471.665C180.135 460.807 174.372 456.464 163.087 446.088C151.562 435.713 148.415 406.919 150.816 384.721C153.217 362.522 166.209 323.997 176.053 308.554C185.897 293.112 193.821 266.57 197.182 252.334C200.544 238.098 197.663 226.275 187.818 201.905C177.974 177.535 172.691 113.835 174.372 102.977C177.013 82.9498 183.976 69.679 196.942 53.2714C221.193 35.6573 248.805 26.0058 266.333 25.7645C294.665 25.5232 314.354 44.3437 317.956 49.6521C321.557 54.9604 343.167 78.3653 348.689 79.3305C354.212 80.2956 367.898 71.1267 367.898 71.1267L369.579 69.679C369.579 69.679 370.299 67.2661 369.579 63.4055C368.378 65.5771 365.977 68.7138 362.375 71.1267ZM301.388 94.7729C302.109 94.7729 303.069 94.7729 303.789 94.5316C304.27 94.5316 304.99 94.5316 305.71 94.2903C306.671 94.2903 307.871 94.0491 308.832 94.0491C309.312 94.0491 310.032 93.8078 310.753 93.8078C311.473 93.8078 312.433 93.5665 313.154 93.5665C313.874 93.5665 314.594 93.3252 315.315 93.3252C316.035 93.3252 316.755 93.0839 317.476 93.0839C317.956 93.0839 318.436 92.8426 318.916 92.8426C319.877 92.6013 320.837 92.36 321.797 92.36C322.278 92.36 322.758 92.1187 323.238 92.1187C324.199 91.8775 325.159 91.6362 325.879 91.6362C326.359 91.6362 326.6 91.3949 326.84 91.3949C327.56 91.1536 328.28 90.9123 329.001 90.9123C329.241 90.9123 329.481 90.9123 329.721 90.671C330.681 90.4297 331.642 90.1884 332.362 89.9472C332.602 89.9472 332.842 89.9472 333.082 89.7059C334.043 89.4646 334.763 89.2233 335.724 88.982C341.006 87.5343 344.127 86.3278 344.127 86.3278C344.127 86.3278 332.122 87.7756 317.956 73.057C312.433 64.1293 303.309 47.7217 289.143 42.1721C272.816 35.6573 218.312 32.7619 199.823 72.3331C181.335 111.904 193.341 145.926 201.264 162.575C209.188 179.224 211.108 206.731 210.628 227.481C210.148 248.473 215.67 282.495 210.148 295.525C204.626 308.554 182.056 363.246 174.372 384.721C166.449 407.16 149.641 413.514 168.61 444.158C175.813 455.981 180.615 459.359 182.536 463.702C179.655 451.638 175.093 441.986 166.929 429.439C157.325 414.238 157.325 393.005 166.929 372.254C176.533 351.503 200.83 312.897 212.355 266.087C210.628 215.504 213.029 156.543 210.148 127.588C207.267 98.6335 230.557 77.6415 265.372 89.9472C269.935 91.6362 274.737 92.6013 279.299 93.3252H279.539C280.019 93.3252 280.499 93.5665 281.22 93.5665C282.18 93.5665 283.14 93.8078 284.101 93.8078C284.821 93.8078 285.541 93.8078 286.022 94.0491C286.982 94.0491 287.942 94.2903 289.143 94.2903H298.987C299.708 95.0142 300.668 95.0142 301.388 94.7729Z" fill="#221B23"/>
<path id="Vector_40" d="M207.987 308.554C207.987 308.554 201.744 324.479 185.657 344.023C164.288 369.841 159.966 386.007 167.889 406.276C175.813 426.544 186.618 437.161 190.219 446.088C193.821 455.016 192.86 464.426 192.86 464.426C192.86 464.426 197.422 454.533 195.502 447.053C193.821 439.573 177.734 413.514 175.333 398.796C172.932 384.077 175.573 367.67 185.417 353.675C193.821 341.852 203.665 325.685 207.987 308.554ZM212.549 312.173C212.549 312.173 206.546 340.163 198.143 354.157C189.739 368.152 187.098 385.525 193.341 400.243C199.583 414.962 211.589 434.265 210.628 447.053C210.628 447.053 218.792 431.611 211.108 415.686C203.425 399.761 200.784 376.115 207.027 359.948C213.269 344.023 213.99 323.273 212.549 312.173Z" fill="#2A232B"/>
<path id="Vector_41" d="M279.539 94.049C280.259 94.049 280.739 94.2903 281.219 94.2903C282.18 94.2903 283.14 94.5316 284.101 94.5316C284.821 94.5316 285.541 94.5316 286.022 94.7729C286.982 94.7729 287.942 95.0142 289.143 95.0142H292.744C286.982 92.6013 280.259 88.7407 274.496 81.9846C262.971 67.7486 254.087 61.2338 235.599 63.1642C217.111 65.0945 197.662 90.1884 198.863 116.489C200.063 142.548 208.467 159.197 213.75 173.433C212.309 167.159 211.108 161.368 210.628 155.819C207.987 126.864 230.557 78.124 265.372 90.4297C270.174 92.1187 274.737 93.0839 279.539 94.049Z" fill="#1B141C"/>
<path id="Vector_42" d="M331.018 56.9117C331.018 56.9117 346.916 56.8327 331.018 77.5187C368.542 65.1071 383.252 125.573 380.168 154.777C377.084 183.981 349.058 290.245 361.395 337.458C373.731 384.671 383.38 378.059 393.661 398.988C403.942 419.918 437.226 415.908 426.945 431.24C416.664 446.572 430.543 426.201 427.716 442.263C427.716 442.263 412.552 464.824 427.716 454.116C451.619 437.324 461.385 417.368 459.843 386.217C458.301 355.067 443.908 330.73 431.314 305.664C427.5 278 416.761 256.429 425.5 235.5C434.239 214.571 424.889 177.745 421.291 126.151C417.693 74.8012 388.057 58.8827 350.533 37.9533C313.008 17.0238 359.176 36.7124 324.736 56.9117C290.296 77.111 336.614 55.5976 336.614 55.5976C336.614 55.5976 340.157 34.7655 324.736 56.9117C309.315 79.058 326.415 38.1726 337.467 56.9117C346.205 40.3629 327.933 70.7835 331.018 56.9117Z" fill="#2A232B"/>
<path id="Vector_43" d="M366.262 269.746C366.262 269.746 362.142 283.587 360.45 283.5C358.758 283.413 353.4 290.753 352.736 291.5C352.072 292.247 348.809 292.851 348.987 295.5C349.166 298.149 347.722 297.975 348.987 300.15C350.262 302.318 354.417 307.063 357.007 308.375C359.605 309.681 360.353 307.604 360.45 306.642C360.555 305.673 366.262 269.746 366.262 269.746Z" fill="#221B23"/>
</g>
<g id="shirt">
<path d="M444.987 650.383C439.491 619.586 435.846 593.897 433.429 573.369C433.883 562.346 433.532 551.047 432.857 541.159C432.158 530.931 431.109 522.186 430.234 516.776C429.799 514.089 429.4 512.182 429.098 511.336C429.03 511.144 428.938 510.92 428.806 510.775C428.747 510.71 428.555 510.525 428.263 510.581C427.992 510.633 427.875 510.853 427.841 510.924C427.758 511.097 427.723 511.338 427.703 511.568C427.68 511.822 427.669 512.15 427.669 512.549H428.169C427.669 512.549 427.669 512.548 427.669 512.549V512.552V512.558V512.584L427.67 512.688C427.67 512.779 427.671 512.916 427.673 513.099C427.677 513.463 427.685 514.008 427.701 514.735C427.733 516.187 427.797 518.363 427.925 521.259C428.18 527.051 428.691 535.724 429.713 547.256C430.377 554.763 431.259 563.482 432.426 573.407C431.948 584.919 430.588 596.097 427.802 605.003C422.266 605.114 418.253 607.73 415.858 612.186C413.431 616.704 412.687 623.072 413.589 630.562C415.374 645.389 423.636 664.832 438.612 683.687C413.572 689.332 399.769 694.219 389.543 697.842L389.522 697.85C379.215 701.502 372.597 703.847 361.742 704.412C251.869 708.66 205.751 704.051 151.373 693.988C153.559 687.363 156.541 679.131 159.775 670.205C162.087 663.825 164.527 657.09 166.896 650.334C167.953 647.321 168.995 644.304 170.005 641.313C181.27 632.422 186.271 622.617 187.126 612.262C187.876 603.183 185.432 593.738 181.335 584.193C180.911 578.719 179.856 573.772 178.345 569.231C175.081 559.423 169.698 551.541 163.999 544.368C162.139 542.026 160.25 539.766 158.392 537.541C154.536 532.927 150.806 528.463 147.71 523.731C146.425 521.767 145.253 519.763 144.232 517.69C141.708 511.517 140.127 505.59 140.001 499.988L139.002 499.999C139.002 506.817 140.665 512.7 143.319 518.099C145.662 523.825 148.79 529.723 152.283 535.72C155.193 540.717 158.367 545.798 161.564 550.917C162.392 552.241 163.22 553.568 164.046 554.897C168.068 561.364 172.031 567.876 175.473 574.36C177.264 577.734 178.911 581.097 180.351 584.436C180.818 590.661 180.46 597.59 179.01 605.408L179.009 605.416C177.409 614.867 173.61 627.498 169.153 640.712C167.039 642.365 164.7 643.989 162.121 645.581L161.982 645.667L161.921 645.817C155.485 661.525 152.822 677.982 150.234 694.25C150.011 694.844 149.548 695.444 148.83 696.139C148.187 696.761 147.38 697.423 146.428 698.204C146.292 698.316 146.153 698.43 146.011 698.547C143.752 700.405 140.848 702.865 137.824 706.67C131.771 714.286 125.284 727.227 122.341 751.447L122.34 751.453C122.295 751.867 122.348 752.228 122.455 752.539C122.404 752.524 122.352 752.508 122.299 752.492C118.407 751.341 107.302 748.73 78.2218 745.086C79.8325 741.194 79.8403 738.382 79.3375 734.332C79.2203 733.388 79.0756 732.376 78.9169 731.267C78.3638 727.402 77.6399 722.343 77.3127 714.771C76.4706 695.284 78.2643 659.188 92.4922 584.597C97.3638 560.84 112.983 451.655 122.776 382.94C123.319 381.997 123.718 381.164 124.054 380.43C124.151 380.218 124.241 380.018 124.327 379.826C124.553 379.323 124.751 378.882 124.963 378.476C125.523 377.4 126.136 376.65 127.471 376.027C128.853 375.383 131.013 374.873 134.692 374.371C138.359 373.871 143.481 373.384 150.756 372.764C180.413 370.998 198.361 364.499 209.886 357.698C215.648 354.299 219.793 350.831 222.984 347.859C224.133 346.79 225.162 345.781 226.093 344.868C226.452 344.516 226.797 344.179 227.128 343.857C228.327 342.693 229.35 341.745 230.294 341.058L230.304 341.051L230.313 341.044C236.034 336.451 236.463 331.261 236.835 326.762C236.899 325.994 236.961 325.245 237.047 324.523C237.344 322.039 237.916 319.883 239.7 318.13C241.496 316.366 244.594 314.939 250.116 314.12L250.12 314.119C258.074 312.875 265.944 316.263 274.049 320.244C274.913 320.668 275.779 321.099 276.649 321.532C283.876 325.127 291.292 328.817 298.952 329.498C314.241 331.079 329.768 323.741 341.517 317.806C342.283 317.418 343.033 317.037 343.765 316.665C348.681 314.168 352.801 312.074 355.863 311.179C357.632 310.662 358.923 310.586 359.781 310.949C360.57 311.283 361.127 312.056 361.265 313.656C361.422 317.541 363.203 320.86 366.194 323.829C369.18 326.792 373.389 329.426 378.452 331.962C384.643 335.062 392.192 338.051 400.449 341.32C405.672 343.388 411.179 345.568 416.804 347.96L416.812 347.963C427.826 352.42 437.894 355.739 446.893 358.706C448.302 359.171 449.684 359.626 451.04 360.077C461.07 363.407 469.623 366.424 476.582 370.351C483.528 374.27 488.866 379.085 492.477 386.002C496.092 392.929 498 402.01 498 414.5V414.515L498.001 414.53C501.723 475.614 508.711 531.049 514.795 579.313C517.701 602.366 520.401 623.783 522.44 643.397C525.596 673.753 527.169 699.787 525.494 720.924C523.826 741.963 518.944 758.071 509.279 768.767C497.772 768.768 490.959 768.883 485.52 768.974C477.383 769.111 472.321 769.197 459.216 768.773C439.623 748.818 437.369 723.865 439.383 701.563C440.191 692.619 441.682 684.125 443.011 676.555C443.344 674.661 443.666 672.825 443.965 671.054C444.711 666.637 445.312 662.621 445.554 659.142C445.795 655.685 445.686 652.712 444.987 650.383ZM428.701 514.713C428.693 514.365 428.688 514.058 428.683 513.794C428.856 514.643 429.046 515.696 429.246 516.936C430.116 522.31 431.162 531.024 431.859 541.227C432.389 548.988 432.717 557.595 432.615 566.24C431.836 559.192 431.21 552.834 430.709 547.168C429.689 535.65 429.179 526.992 428.924 521.215C428.797 518.326 428.733 516.158 428.701 514.713ZM177.396 569.547C178.601 573.169 179.513 577.059 180.038 581.283C178.901 578.822 177.665 576.357 176.356 573.891C172.897 567.375 168.919 560.839 164.896 554.369C164.067 553.036 163.237 551.706 162.408 550.38C159.212 545.263 156.049 540.199 153.147 535.217C151.383 532.187 149.719 529.195 148.206 526.247C151.051 530.316 154.331 534.241 157.672 538.241C159.522 540.456 161.391 542.693 163.216 544.99C168.886 552.127 174.187 559.901 177.396 569.547ZM162.785 646.346C164.866 645.056 166.795 643.744 168.578 642.41C167.721 644.93 166.842 647.467 165.953 650.003C163.592 656.733 161.156 663.459 158.845 669.838C156.397 676.594 154.09 682.961 152.165 688.533C154.494 674.257 157.209 660.011 162.785 646.346Z" fill="#535353"/>
<path d="M427.669 512.549C427.669 512.15 427.68 511.822 427.703 511.568C427.723 511.338 427.758 511.097 427.841 510.924C427.875 510.853 427.992 510.633 428.263 510.581C428.555 510.525 428.747 510.71 428.806 510.775C428.938 510.92 429.03 511.144 429.098 511.336C429.4 512.182 429.799 514.089 430.234 516.776C431.109 522.186 432.158 530.931 432.857 541.159C433.532 551.047 433.883 562.346 433.429 573.369C435.846 593.897 439.491 619.586 444.987 650.383C445.686 652.712 445.795 655.685 445.554 659.142C445.312 662.621 444.711 666.637 443.965 671.054C443.666 672.825 443.344 674.661 443.011 676.555C441.682 684.125 440.191 692.619 439.383 701.563C437.369 723.865 439.623 748.818 459.216 768.773C472.321 769.197 477.383 769.111 485.52 768.974C490.959 768.883 497.772 768.768 509.279 768.767C518.944 758.071 523.826 741.963 525.494 720.924C527.169 699.787 525.596 673.753 522.44 643.397C520.401 623.783 517.701 602.366 514.795 579.313C508.711 531.049 501.723 475.614 498.001 414.53L498 414.515V414.5C498 402.01 496.092 392.929 492.477 386.002C488.866 379.085 483.528 374.27 476.582 370.351C469.623 366.424 461.07 363.407 451.04 360.077C449.684 359.626 448.302 359.171 446.893 358.706C437.894 355.739 427.826 352.42 416.812 347.963L416.804 347.96C411.179 345.568 405.672 343.388 400.449 341.32C392.192 338.051 384.643 335.062 378.452 331.962C373.389 329.426 369.18 326.792 366.194 323.829C363.203 320.86 361.422 317.541 361.265 313.656C361.127 312.056 360.57 311.283 359.781 310.949C358.923 310.586 357.632 310.662 355.863 311.179C352.801 312.074 348.681 314.168 343.765 316.665C343.033 317.037 342.283 317.418 341.517 317.806C329.768 323.741 314.241 331.079 298.952 329.498C291.292 328.817 283.876 325.127 276.649 321.532C275.779 321.099 274.913 320.668 274.049 320.244C265.944 316.263 258.074 312.875 250.12 314.119L250.116 314.12C244.594 314.939 241.496 316.366 239.7 318.13C237.916 319.883 237.344 322.039 237.047 324.523C236.961 325.245 236.899 325.994 236.835 326.762C236.463 331.261 236.034 336.451 230.313 341.044L230.304 341.051L230.294 341.058C229.35 341.745 228.327 342.693 227.128 343.857C226.797 344.179 226.452 344.516 226.093 344.868C225.162 345.781 224.133 346.79 222.984 347.859C219.793 350.831 215.648 354.299 209.886 357.698C198.361 364.499 180.413 370.998 150.756 372.764C143.481 373.384 138.359 373.871 134.692 374.371C131.013 374.873 128.853 375.383 127.471 376.027C126.136 376.65 125.523 377.4 124.963 378.476C124.751 378.882 124.553 379.323 124.327 379.826C124.241 380.018 124.151 380.218 124.054 380.43C123.718 381.164 123.319 381.997 122.776 382.94C112.983 451.655 97.3638 560.84 92.4922 584.597C78.2643 659.188 76.4706 695.284 77.3127 714.771C77.6399 722.343 78.3638 727.402 78.9169 731.267C79.0756 732.376 79.2203 733.388 79.3375 734.332C79.8403 738.382 79.8325 741.194 78.2218 745.086C107.302 748.73 118.407 751.341 122.299 752.492C122.352 752.508 122.404 752.524 122.455 752.539C122.348 752.228 122.295 751.867 122.34 751.453L122.341 751.447C125.284 727.227 131.771 714.286 137.824 706.67C140.848 702.865 143.752 700.405 146.011 698.547C146.153 698.43 146.292 698.316 146.428 698.204C147.38 697.423 148.187 696.761 148.83 696.139C149.548 695.444 150.011 694.844 150.234 694.25C152.822 677.982 155.485 661.525 161.921 645.817L161.982 645.667L162.121 645.581C164.7 643.989 167.039 642.365 169.153 640.712C173.61 627.498 177.409 614.867 179.009 605.416L179.01 605.408C180.46 597.59 180.818 590.661 180.351 584.436C178.911 581.097 177.264 577.734 175.473 574.36C172.031 567.876 168.068 561.364 164.046 554.897C163.22 553.568 162.392 552.241 161.564 550.917C158.367 545.798 155.193 540.717 152.283 535.72C148.79 529.723 145.662 523.825 143.319 518.099C140.665 512.7 139.002 506.817 139.002 499.999L140.001 499.988C140.127 505.59 141.708 511.517 144.232 517.69C145.253 519.763 146.425 521.767 147.71 523.731C150.806 528.463 154.536 532.927 158.392 537.541C160.25 539.766 162.139 542.026 163.999 544.368C169.698 551.541 175.081 559.423 178.345 569.231C179.856 573.772 180.911 578.719 181.335 584.193C185.432 593.738 187.876 603.183 187.126 612.262C186.271 622.617 181.27 632.422 170.005 641.313C168.995 644.304 167.953 647.321 166.896 650.334C164.527 657.09 162.087 663.825 159.775 670.205C156.541 679.131 153.559 687.363 151.373 693.988C205.751 704.051 251.869 708.66 361.742 704.412C372.597 703.847 379.215 701.502 389.522 697.85L389.543 697.842C399.769 694.219 413.572 689.332 438.612 683.687C423.636 664.832 415.374 645.389 413.589 630.562C412.687 623.072 413.431 616.704 415.858 612.186C418.253 607.73 422.266 605.114 427.802 605.003C430.588 596.097 431.948 584.919 432.426 573.407C431.259 563.482 430.377 554.763 429.713 547.256C428.691 535.724 428.18 527.051 427.925 521.259C427.797 518.363 427.733 516.187 427.701 514.735C427.685 514.008 427.677 513.463 427.673 513.099C427.671 512.916 427.67 512.779 427.67 512.688L427.669 512.584V512.558V512.552V512.549ZM427.669 512.549H428.169C427.669 512.549 427.669 512.548 427.669 512.549ZM428.701 514.713C428.693 514.365 428.688 514.058 428.683 513.794C428.856 514.643 429.046 515.696 429.246 516.936C430.116 522.31 431.162 531.024 431.859 541.227C432.389 548.988 432.717 557.595 432.615 566.24C431.836 559.192 431.21 552.834 430.709 547.168C429.689 535.65 429.179 526.992 428.924 521.215C428.797 518.326 428.733 516.158 428.701 514.713ZM177.396 569.547C178.601 573.169 179.513 577.059 180.038 581.283C178.901 578.822 177.665 576.357 176.356 573.891C172.897 567.375 168.919 560.839 164.896 554.369C164.067 553.036 163.237 551.706 162.408 550.38C159.212 545.263 156.049 540.199 153.147 535.217C151.383 532.187 149.719 529.195 148.206 526.247C151.051 530.316 154.331 534.241 157.672 538.241C159.522 540.456 161.391 542.693 163.216 544.99C168.886 552.127 174.187 559.901 177.396 569.547ZM162.785 646.346C164.866 645.056 166.795 643.744 168.578 642.41C167.721 644.93 166.842 647.467 165.953 650.003C163.592 656.733 161.156 663.459 158.845 669.838C156.397 676.594 154.09 682.961 152.165 688.533C154.494 674.257 157.209 660.011 162.785 646.346Z" stroke="black"/>
</g>
<path id="pants" d="M444.5 696C540.751 1221.63 578.835 1318.98 599 1471C584.383 1474.67 531.461 1479.24 517.5 1485.16C501.952 1491.48 450.174 1345.03 434 1346.5C416 1302.5 403.368 1202.62 386 1205C379.744 1155.45 299.297 1009.33 299.088 1007.78C297.066 990.08 300.269 1029.27 299.088 1038.5C300.152 1035.22 308 1284 299.088 1496C290 1451.5 265.329 1484.42 215.5 1485.16C176.5 1320 95.5833 992.423 104.5 862C103.847 842.108 124.5 740.5 124.5 706.5C172.46 712.372 179.734 754.956 280.832 748.5C303.093 747.812 423.241 703.306 444.5 696Z" fill="black"/>
</g>
<defs>
<clipPath id="clip0_33_180">
<rect width="697" height="1674" fill="white" transform="translate(58 15)"/>
</clipPath>
</defs>
<style>
    
#left-eyebrown, #right-eyebrown {
  animation: appears 2s ease-in-out infinite alternate;
  transform-origin: center;
  transform-box: fill-box;
  animation-delay: 1s;
}

#mouth {
  animation: appearSmile 2s ease-in-out infinite alternate;
  transform-origin: center;
  transform-box: fill-box;
  animation-delay: 1s;
}

#Vector_8 {
  animation: appearSmile 2s ease-in-out infinite alternate;
  transform-origin: center;
  transform-box: fill-box;
  animation-delay: 0s;
}

@keyframes appears {
  from {
    transform: translateY(0%);
  }
  to{
    transform: translateY(33%);
  }
}

@keyframes appearSmile {
  from {
    transform: translateY(-24%);
  }
  to{
    transform: translateY(0%);
  }
}
</style>
</svg>
