<svg width="586" height="760" viewBox="0 0 586 760" fill="none" xmlns="http://www.w3.org/2000/svg">
<path fill-rule="evenodd" clip-rule="evenodd" d="M337.938 147.675L250.685 163.877L209.786 223.282L231.599 333.992L256.139 379.896L228.872 393.397L207.059 412.299L174.339 420.4L130.713 458.203L122.533 528.41V622.918L92.5398 687.724L89.8132 725.528L92.5398 874.041L89.8132 930.747L68 968.55L92.5398 1011.75L133.44 1054.96L168.886 1168.37L190.699 1243.98L182.519 1295.28L201.606 1416.79L237.052 1551.8L226.145 1573.41L193.426 1613.91L166.159 1635.51V1662.51L163.433 1694.92H185.246L226.145 1686.82L245.232 1673.31L267.045 1622.01H291.585L316.125 1613.91V1581.51L297.038 1532.9L302.492 1449.19L310.671 1316.88L302.492 1273.68L291.585 1246.68L307.945 1198.07L294.312 1133.27L302.492 1049.56V963.15L310.671 984.751L351.571 1084.66L397.924 1233.17L447.004 1308.78L433.37 1360.09L449.73 1392.49L506.99 1481.6L556.07 1597.71L547.89 1643.61L550.616 1649.01L586.063 1659.81L591.516 1670.61L596.969 1684.12L616.056 1711.12L629.689 1716.52L656.955 1732.72L673.315 1735.42L684.222 1727.32L689.675 1694.92L686.948 1662.51L640.596 1619.31L596.969 1549.1L586.063 1411.39L561.523 1319.58L536.983 1297.98L534.256 1243.98L515.17 1187.27V1063.06L512.443 955.049L496.083 901.044L526.076 817.336L531.53 717.427L520.623 652.621L515.17 574.314L504.263 474.405L476.997 417.7L403.377 377.196L408.831 309.69L337.938 147.675ZM436.097 609.417L441.55 628.319L455.184 658.022L463.364 685.024L460.637 760.631L417.011 690.425L419.737 674.223L436.097 609.417ZM190.699 614.818L198.879 636.42V655.321L196.152 685.024L174.339 714.727L179.792 676.923L190.699 614.818Z" fill="#F4BAA3"/>
<path d="M652.886 1734.01C648.388 1732.1 641.184 1727.24 636.871 1723.41C632.574 1719.43 627.968 1716.34 626.654 1716.34C621.753 1716.34 612.989 1710.75 608.459 1704.71C605.893 1701.32 599.617 1691.01 594.516 1681.74C584.948 1664.51 581.129 1660.68 571.221 1658.47C561.343 1656.26 548.451 1646.99 544.184 1639.18C541.402 1634.03 541.464 1621.95 544.293 1612.97C547.369 1603.4 547.106 1591.18 543.659 1582.79C542.082 1578.96 538.959 1570.42 536.734 1563.64C527.675 1536.55 505.292 1494 468.687 1433.93C447.849 1399.77 443.304 1390.32 436.889 1367.7C434.014 1357.58 433.674 1353.12 433.983 1330.3L434.339 1304.38L427.274 1293.22C423.394 1287.08 417.752 1278.2 414.738 1273.51C402.479 1254.36 388.15 1219.57 380.374 1190.07C367.621 1141.63 352.982 1099.16 339.58 1071.72C332.052 1056.3 321.309 1033.25 317.985 1025.36C311.694 1010.52 309.993 1007.37 308.679 1008.13C307.984 1008.55 307.01 1017.73 306.515 1028.54C306.021 1039.35 304.892 1055.24 304.011 1063.87C299.806 1105.04 299.698 1120.73 303.424 1152.29C307.891 1190 307.86 1192.97 302.944 1212.9C300.703 1221.92 298.972 1231.54 299.064 1234.29C299.374 1242.67 302.465 1257.25 306.314 1268.51C314.77 1293.3 316.47 1328.69 310.813 1362.63C309.128 1372.71 308.138 1389.29 307.767 1413.26C307.458 1432.87 306.021 1464.6 304.567 1483.84L301.924 1518.59L306.5 1535.08C309.004 1544.21 313.904 1559.96 317.382 1570.12C328.141 1601.78 326.023 1606.35 294.334 1621.22C283.096 1626.37 272.198 1632.56 270.08 1634.62C265.474 1639.33 261.192 1647.13 257.389 1657.59C251.299 1674.52 243.029 1683.8 231.373 1686.74C227.261 1687.77 220.877 1690.28 217.167 1692.34C213.457 1694.4 205.614 1697.49 199.727 1699.11L189.024 1702.21L179.516 1697.94C165.937 1691.9 161.748 1687.33 161.811 1678.35C161.838 1674.52 161.762 1669.52 161.64 1667.16C161.218 1658.91 164.343 1639.92 166.973 1634.62C170.109 1628.29 176.248 1623.13 185.353 1619.01C193.76 1615.18 204.536 1605.32 211.641 1594.71C214.678 1590.15 217.167 1586.17 217.167 1585.88C217.167 1585.44 220.46 1580.14 224.494 1574.1C228.529 1567.91 232.27 1560.99 232.795 1558.64C234.094 1552.75 231.404 1532.87 226.782 1514.02C222.005 1494.73 202.626 1419.21 200.675 1412.38C199.863 1409.55 199.202 1405.34 199.202 1403.03C199.202 1400.71 197.781 1393.72 196.045 1387.51C189.189 1362.91 185.136 1340.49 181.114 1304.87C179.445 1290.09 180.51 1272.98 184.167 1255.78C185.925 1247.52 186.344 1241.95 185.506 1237.96C184.835 1234.76 182.559 1223 180.451 1211.82C177.908 1198.35 174.646 1186.76 170.78 1177.47C167.573 1169.77 156.747 1140.08 146.726 1111.53C126.57 1054.08 128.858 1058.33 105.094 1034.09C95.3244 1024.12 90.9157 1018.21 85.8609 1008.28C82.2545 1001.21 77.0436 991.362 74.2812 986.4C66.4628 972.337 66.4484 967.007 74.1993 956.199C79.4658 948.866 86.6554 927.014 89.2539 910.463C91.1939 898.109 91.2944 889.598 89.9341 852.3C86.1654 748.932 88.9525 697.704 99.6434 673.849C107.867 655.488 115.731 634.343 117.858 624.86C119.589 617.129 120.411 599.459 121.251 551.913C122.26 494.692 122.645 488.007 125.619 475.903C129.716 459.234 137.287 444.775 146.146 436.691C153.296 430.168 169.675 420.832 181.236 416.709C196.798 411.158 201.117 406.092 204.995 388.879C205.926 384.741 207.804 379.308 209.171 376.79C211.165 373.123 211.635 368.161 211.557 351.551C211.449 328.316 209.659 319.451 199.426 291.43C191.638 270.108 190.882 264.159 193.878 247.815C195.207 240.57 197.291 225.492 198.508 214.301C200.961 191.772 203.766 184.601 216.193 169.125C231.636 149.909 241.266 143.527 292.278 118.734C308.061 111.069 336.782 111.093 350.308 118.781C360.109 124.361 375.52 140.391 386.944 156.903C392.37 164.737 398.754 173.719 401.119 176.856C403.5 179.992 408.323 187.693 411.832 193.981C415.356 200.253 418.788 206.349 419.468 207.527C423.224 214.065 428.403 232.898 429.686 244.737C430.505 252.217 431.17 277.647 431.17 301.237C431.185 342.113 431.371 344.911 435.081 361.034C437.214 370.326 439.873 382.106 440.97 387.2C443.892 400.718 443.969 400.821 456.274 407.241C472.072 415.502 479.152 422.304 491.333 440.887C503.375 459.264 508.059 471.706 510.486 491.703C514.35 523.612 514.829 530.032 514.999 551.751C515.278 587.356 518.709 619.456 525.511 650.054C527.119 657.255 529.097 667.636 529.932 673.128C530.767 678.62 532.235 687.602 533.194 693.095C535.42 705.743 535.481 752.583 533.317 772.241C531.509 788.527 528.479 801.19 519.343 830.566C515.819 841.86 512.217 857.896 510.501 869.779C508.909 880.837 506.621 893.265 505.431 897.402C503.452 904.25 503.514 905.825 506.142 915.352C511.614 935.26 514.675 958.746 513.5 971.896C512.882 978.949 513.067 986.974 513.948 991.097C514.783 994.999 515.061 1003.36 514.551 1009.68C513.902 1017.76 514.443 1026.04 516.375 1037.54C518.57 1050.53 519.204 1063.26 519.467 1099.52C519.992 1171.03 521.554 1192.12 527.83 1212.9C531.71 1225.71 533.07 1231.57 534.739 1242.85C540.351 1280.57 541.603 1285.51 547.925 1294.75C556.35 1307.08 568.5 1333.46 571.824 1346.64C573.354 1352.7 575.982 1362.13 577.698 1367.63C581.176 1378.8 584.762 1398.22 586.122 1413.26C587.73 1430.96 590.157 1450.17 596.108 1492.38C599.602 1517.11 603.667 1540.67 605.739 1548.18C609.882 1563.2 619.419 1582.93 629.328 1596.92C643.317 1616.8 645.435 1619.16 665.902 1638.45C689.244 1660.39 692.552 1666.42 691.933 1685.57C690.898 1717.67 689.352 1725.03 682.55 1730.62C677.557 1734.75 669.782 1737.69 664.047 1737.69C662.393 1737.69 657.369 1736.07 652.886 1734.01ZM676.599 1727.09C681.731 1722.23 680.092 1719.73 668.174 1714.13C653.953 1707.51 644.771 1697.49 650.877 1695.28C652.422 1694.7 654.957 1696.46 658.374 1700.44C662.037 1704.56 664.696 1706.33 667.479 1706.33C671.374 1706.33 671.359 1706.33 665.299 1700.29C657.415 1692.49 655.854 1685.86 661.094 1682.62C663.119 1681.3 664.789 1679.09 664.789 1677.61C664.789 1676.29 666.134 1674.38 667.788 1673.49C669.504 1672.61 670.787 1670.55 670.787 1668.49C670.787 1662.89 673.94 1662.6 678.531 1667.9C681.654 1671.43 682.751 1672.02 682.751 1670.25C682.751 1666.13 678.346 1658.91 671.807 1652.44C664.294 1645.07 661.419 1644.63 662.084 1651.11C662.47 1654.94 662.006 1655.82 659.147 1656.12C656.241 1656.56 655.097 1655.23 651.217 1646.84C642.993 1629.17 638.927 1622.1 633.316 1615.33C625.293 1605.61 616.869 1592.65 617.951 1591.62C618.461 1591.18 618.059 1590.74 617.039 1590.74C614.936 1590.74 605.213 1571.74 600.529 1558.34C595.335 1543.62 585.86 1484.28 580.31 1431.8C577.095 1401.42 573.879 1382.72 569.659 1369.76C567.743 1363.89 565.702 1356.49 565.099 1353.36C562.44 1339.16 546.348 1303.5 543.087 1304.55C542.097 1304.85 540.706 1308.14 539.98 1311.85C538.867 1317.61 538.218 1318.52 535.497 1318.15C532.421 1317.72 532.266 1316.81 531.292 1292.04C530.751 1277.92 529.576 1264.13 528.68 1261.39C527.783 1258.65 527.057 1253.16 527.057 1249.18C527.057 1242.6 525.882 1237.47 518.756 1212.9C513.175 1193.7 511.908 1177.47 511.197 1115.92C510.578 1062.34 509.233 1037.49 506.59 1030.93C504.519 1025.8 498.907 1030.43 490.498 1044.17C487.546 1049.02 483.851 1053.37 482.321 1053.84C480.79 1054.3 477.127 1056.92 474.174 1059.63C471.237 1062.35 467.806 1064.59 466.553 1064.59C465.301 1064.59 461.931 1062.34 459.041 1059.6C456.166 1056.84 453.151 1054.61 452.363 1054.61C451.575 1054.61 449.859 1053.59 448.576 1052.37C444.819 1048.79 445.67 1038.14 450.663 1026.08C455.47 1014.49 456.568 1001.61 453.63 991.494C451.126 982.925 448.174 985.119 443.892 998.739C440.12 1010.77 429.825 1017.76 423.703 1012.48C421.06 1010.21 420.766 1008.05 420.828 991.274C420.844 980.554 421.787 968.656 423.008 963.341C424.198 958.231 425.172 949.705 425.203 944.36C425.296 927.382 430.088 911.803 439.533 897.771C441.388 895.002 443.629 889.539 444.51 885.608C445.994 879.07 448.777 835.47 448.808 818.595C448.808 814.663 449.256 802 449.797 790.441L450.786 769.429L445.639 754.615C440.058 738.536 433.504 724.871 423.271 707.923C409.188 684.599 409.25 683.376 428.094 626.2C432.391 613.139 434.277 598.252 431.618 598.281C431 598.281 426.718 601.374 422.08 605.158C404.721 619.309 387.114 622.327 363.88 615.097C351.297 611.18 333.351 599.666 329.069 592.774C323.967 584.543 331.016 580.376 336.86 588.18C341.59 594.512 356.461 603.288 369.476 607.411C375.876 609.443 382.198 611.092 383.543 611.092C386.573 611.092 400.13 607.278 407.704 604.304C413.563 601.992 425.249 591.125 425.28 587.959C425.28 586.958 426.95 582.938 428.975 579.007C435.684 566.004 433.334 546.141 423.518 533.197C416.469 523.906 415.743 521.535 418.602 517.383C420.395 514.762 420.705 512.421 419.854 507.959C417.891 497.725 419.576 495.266 427.831 496.223C435.39 497.107 435.885 497.902 435.637 508.901C435.39 519.547 437.91 543.078 439.564 545.625C440.089 546.435 441.078 559.408 441.759 574.457C442.532 591.699 443.815 604.201 445.206 608.25C446.427 611.769 448.158 618.867 449.055 624.006C451.482 637.832 454.635 646.888 458.979 652.469C465.611 660.995 475.751 685.276 473.881 688.162C472.706 689.958 467.605 689.929 466.43 688.103C463.245 683.185 462.735 689.252 463.647 721.308C464.343 745.53 464.111 758.709 462.874 765.158C461.916 770.238 460.834 780.796 460.494 788.645C460.154 796.478 459.211 806.108 458.392 810.04C457.572 813.957 456.537 831.288 456.073 848.531C455.114 884.518 453.213 894.737 445.469 905.56C439.27 914.233 434.246 930.931 434.246 942.829C434.246 947.703 432.515 957.877 430.366 965.667C427.228 977.064 426.61 982.1 427.089 992.172C427.723 1005.62 428.511 1007.54 432.437 1005.22C436.487 1002.8 445.159 974.899 447.586 956.39C448.344 950.736 449.75 945.17 450.74 944.036C454.295 939.972 455.408 943.594 454.45 955.993C453.6 967.022 453.909 969.451 457.433 979.022C460.03 986.046 461.669 994.116 462.225 1002.55C463.014 1014.26 462.72 1016.23 458.979 1025.16C454.635 1035.48 452.425 1046.12 454.635 1045.95C455.949 1045.83 467.234 1024.82 470.263 1016.81C471.16 1014.47 472.474 1005.59 473.2 997.105C474.576 981.025 477.977 971.174 482.151 971.174C483.82 971.174 484.361 972.75 484.269 977.241C484.191 980.569 484.33 983.293 484.578 983.293C484.81 983.293 486.819 981.57 489.03 979.464L493.049 975.636L495.692 978.757C498.691 982.277 500.886 982.704 502.602 980.097C504.673 976.932 505.864 959.983 504.534 952.635C503.823 948.719 502.169 939.457 500.855 932.065C499.541 924.673 496.481 914.174 494.054 908.741C488.442 896.21 488.442 893.707 493.992 891.866C499.077 890.173 499.51 888.921 501.767 869.013C502.834 859.545 506.265 844.761 511.32 827.857C522.512 790.456 523.718 784.492 525.712 756.883C528.448 719.143 525.944 688.383 516.746 646.697C511.552 623.137 509.172 600.269 506.868 551.707C504.441 500.67 502.988 486.932 498.567 473.105C495.182 462.518 494.656 461.517 483.928 444.966C473.479 428.828 467.589 422.849 456.336 416.886C451.435 414.294 445.979 411.334 444.201 410.304C440.197 408.007 427.182 408.964 417.768 412.247C400.408 418.314 389.742 420.155 367.281 420.994C342.888 421.892 338.467 421.009 341.404 415.752C342.641 413.573 345.763 413.146 364.963 412.542C382.461 411.997 390.36 411.055 402.804 407.992C411.445 405.872 419.53 403.177 420.766 401.999C423.023 399.849 421.756 398.332 410.703 389.969C404.814 385.522 390.267 378.542 384.146 377.232C374.284 375.126 370.033 372.785 361.763 364.848C352.472 355.939 349.705 349.843 346.722 331.585C345.362 323.353 343.414 315.799 342.394 314.813C340.879 313.355 338.776 314.283 331.619 319.598C312.884 333.484 290.315 342.01 268.813 343.335L262.83 343.718L261.717 355.836C258.765 388.04 258.811 387.863 253.865 388.408C251.314 388.673 246.831 391.147 243.384 394.151C240.076 397.051 232.502 402.603 226.535 406.505C220.568 410.392 215.683 414.382 215.683 415.34C215.668 416.665 223.52 417.195 247.465 417.475C276.341 417.828 279.309 418.093 279.757 420.361C280.607 424.528 274.718 425.397 242.039 425.927L210.922 426.427L207.379 422.496C203.933 418.682 198.698 417.313 197.082 419.816C196.643 420.493 190.709 423.144 183.895 425.721C153.215 437.324 141.696 449.722 134.638 478.745C131.666 490.967 131.376 496.518 131.002 548.349C130.557 610.091 128.918 627.51 121.9 645.136C119.827 650.334 116.528 658.904 114.57 664.16C112.611 669.432 110.044 675.528 108.866 677.707C98.9586 696.084 97.0325 732.646 98.9617 865.656C99.5614 906.915 99.3234 914.027 97.0309 923.407C93.879 936.306 84.5593 959.733 80.4753 965.019C76.4469 970.246 77.7546 975.43 86.691 989.654C90.656 995.956 95.1775 1004.33 96.7419 1008.25C98.6293 1012.98 103.086 1018.84 110.022 1025.72C115.763 1031.41 120.963 1036.07 121.578 1036.07C124.049 1036.07 117.634 1025.02 111.248 1018.28C102.97 1009.55 101.126 1005.54 97.3741 988.181C95.7665 980.731 93.7662 973.412 92.9314 971.925C89.0746 965.063 93.3318 959.247 98.7762 963.944C101.574 966.359 104.55 975.312 107.924 991.494C108.946 996.383 110.653 1001.52 111.718 1002.91C115.605 1007.93 115.975 1000.45 112.611 984.854C109.201 969.039 108.445 946.23 110.813 930.533C111.812 923.922 118.522 893 124.126 869.219C126.08 860.914 127.065 849.444 128.898 813.603C129.951 793.003 131.308 780.782 133.495 772.241C136.714 759.666 146.866 739.699 157.424 725.18C161.559 719.497 163.761 714.402 165.43 706.642C166.696 700.767 168.749 692.418 169.989 688.103C175.325 669.55 181.425 639.246 182.334 626.759C183.051 616.894 182.816 615.686 179.448 611.784C173.632 605.04 165.296 591.037 162.679 583.601C157.973 570.231 161.352 544.477 169.933 528.309C173.472 521.638 173.955 519.312 173.346 511.846C172.561 502.261 173.943 498.432 178.197 498.432C181.112 498.432 181.732 500.111 183.573 512.921C184.387 518.576 183.754 521.197 179.273 530.738C172.672 544.801 168.587 563.398 169.95 573.19C171.045 581.053 177.33 593.407 184.385 601.55C189.82 607.838 196.935 609.973 212.762 610.106C222.361 610.179 225.561 609.531 233.723 605.879C239.025 603.509 247.882 598.252 253.416 594.217C264.361 586.192 265.783 585.677 267.19 589.196C268.596 592.657 264.531 597.604 254.483 604.643C240.014 614.788 231.188 618.248 216.982 619.382L204.44 620.369L204.918 641.764C205.315 659.611 204.896 664.956 202.389 674.085C196.996 693.728 189.301 706.598 171.317 726.093C165.427 732.469 157.859 742.114 154.498 747.503C141.778 767.897 140.383 775.407 136.421 844.967C135.684 857.91 134.375 870.25 133.511 872.385C132.647 874.52 130.903 881.897 129.637 888.788C128.369 895.665 125.636 908.358 123.562 916.987C118.386 938.529 117.355 958.894 120.571 976.166C121.957 983.617 123.988 994.852 125.083 1001.12C127.527 1015.13 129.145 1021.11 133.979 1033.93C136.05 1039.41 137.762 1046.82 137.782 1050.36C137.831 1058.65 139.031 1062.57 157.002 1113.08C174.632 1162.61 181.765 1180.08 190.571 1195.29C201.786 1214.64 203.023 1220.02 196.254 1220.02C193.736 1220.02 193.215 1220.95 193.224 1225.37C193.242 1233.91 198.517 1248.15 203.947 1254.33C206.69 1257.47 211.846 1262.89 215.405 1266.38C223.381 1274.23 223.35 1277.97 215.328 1277.38C209.872 1276.97 209.854 1276.98 210.679 1281.82C212.36 1291.68 205.465 1290 198.934 1278.98C195.254 1272.77 193.974 1271.59 192.296 1272.92C189.414 1275.2 189.486 1300.69 192.428 1319.14C193.678 1326.99 195.694 1339.81 196.911 1347.66C198.126 1355.51 200.506 1367.38 202.202 1374.05C203.898 1380.7 206.295 1390.98 207.532 1396.86C211.775 1417.04 222.253 1460.67 225.499 1471.76C226.658 1475.59 228.915 1484.28 230.507 1491.05C232.115 1497.68 235.284 1510.49 237.572 1519.47C241.096 1533.46 241.715 1538.91 241.699 1555.84C241.653 1579.84 240.586 1586.47 236.737 1586.47C235.238 1586.47 233.151 1585.58 232.115 1584.41C229.595 1581.46 227.54 1583.23 220.661 1594.12C211.585 1608.7 203.482 1616.65 190.672 1623.87C183.314 1627.99 178.083 1632.11 176.962 1634.47C175.042 1638.45 174.767 1638.3 181.83 1635.65C184.122 1634.77 191.715 1641.69 191.715 1644.63C191.715 1648.46 187.106 1656.85 181.256 1663.77C173.269 1673.34 173.614 1676.14 181.663 1667.16C195.54 1651.55 197.399 1649.93 199.364 1651.7C201.707 1653.91 199.958 1657.88 192.4 1667.31C189.148 1671.28 187.611 1674.38 188.63 1674.67C191.072 1675.41 199.746 1669.52 203.105 1664.66C206.101 1660.53 209.099 1658.77 211.248 1659.94C214.864 1662.15 205.731 1673.79 195.591 1679.97C186.296 1685.57 183.6 1688.36 184.778 1691.31C186.991 1696.9 195.821 1695.28 213.612 1686.16C219.47 1683.06 225.437 1680.71 226.875 1680.71C231.775 1680.71 240.478 1674.82 244.42 1668.78C248.578 1662.45 252.566 1652.73 258.178 1635.06C260.033 1629.17 262.97 1621.81 264.685 1618.57C268.72 1611.21 276.619 1603.7 280.267 1603.7C283.993 1603.7 285.508 1607.52 283.173 1611.06C282.153 1612.68 281.705 1614.3 282.153 1614.74C283.436 1615.92 296.498 1610.91 304.506 1606.05C316.316 1598.98 316.841 1593.24 307.86 1569.39C302.558 1555.1 299.544 1551.72 299.451 1559.67C299.389 1565.41 295.988 1581.02 294.195 1583.82C293.484 1584.85 293.082 1587.79 293.299 1590.15C293.53 1592.8 292.773 1595.3 291.459 1596.33C289.619 1597.81 288.831 1597.51 286.976 1594.86C284.982 1591.92 284.967 1590.15 286.883 1580.14C289.759 1565.12 289.743 1552.75 286.868 1543.62C283.328 1532.28 283.776 1525.8 288.414 1521.68C292.093 1518.44 292.417 1516.97 294.396 1495.03C296.282 1473.97 299.064 1407.78 298.972 1386.17C298.956 1381.45 300.1 1370.22 301.522 1361.21C305.665 1334.85 306.252 1314.41 303.377 1295.87C301.043 1280.87 295.03 1261.09 291.799 1257.82C289.187 1255.2 287.579 1260.44 287.548 1271.61C287.517 1284.45 286.729 1287.05 282.833 1287.05C278.737 1287.05 277.408 1282.38 277.748 1269.22C277.964 1260.71 279.031 1255.47 281.968 1248.55C284.116 1243.45 287.996 1232.22 290.593 1223.59C297.225 1201.47 297.75 1187.64 293.438 1147.92C289.975 1116.04 289.975 1115.74 292.526 1087.03C296.607 1041.04 298.415 1002.54 297.256 986.4L296.189 971.439L283.993 959.188C277.299 952.444 269.447 944.478 266.571 941.474C261.006 935.672 242.147 910.198 235.933 900.082C233.893 896.769 224.463 886.197 214.987 876.596C195.11 856.453 193.436 854.126 196.651 851.063C198.099 849.694 199.684 849.37 201.156 850.165C207.564 853.625 239.767 888.818 251.144 904.809C258.147 914.645 265.768 925.262 268.086 928.398C274.641 937.248 294.968 956.523 296.978 955.787C297.967 955.433 299.636 952.12 300.657 948.439C304.552 934.612 327.106 908.402 334.263 909.403C339.828 910.198 338.823 912.878 328.991 923.421C313.719 939.795 309.854 946.863 308.911 960.145C308.231 969.495 308.618 972.455 311.199 978.021C312.899 981.688 316.408 991.833 319.005 1000.55C321.602 1009.27 327.028 1023.39 331.078 1031.93C335.113 1040.47 338.436 1047.82 338.436 1048.27C338.436 1048.73 341.744 1055.64 345.81 1063.62C354.327 1080.36 367.235 1112.09 371.455 1126.61C373.047 1132.1 375.752 1141.1 377.453 1146.58C380.807 1157.38 382.137 1162.05 389.17 1187.63C399.712 1225.96 414.753 1259.9 431.463 1283.08C432.994 1285.2 434.246 1287.43 434.246 1288.07C434.246 1288.69 436.735 1291.75 439.78 1294.9C445.608 1300.92 456.629 1322.58 456.676 1328.09C456.707 1332.86 452.317 1333.85 448.916 1329.84C444.108 1324.19 442.81 1327.91 443.583 1345.04C444.727 1370.19 453.553 1393.01 475.226 1426.81C478.997 1432.68 485.552 1443.92 489.787 1451.76C494.023 1459.6 498.676 1467.62 500.129 1469.58C503.483 1474.12 528.077 1520.79 535.033 1535.96C537.924 1542.15 543.01 1554.96 546.333 1564.38C556.798 1594.12 557.958 1596.92 565.037 1610.32C572.009 1623.43 573.122 1626.96 570.618 1628.58C567.789 1630.2 564.234 1627.26 560.555 1620.33C557.076 1613.86 556.551 1613.41 554.356 1615.48C552.887 1616.95 551.712 1621.22 551.295 1626.52C550.692 1634.47 550.97 1635.5 554.897 1639.48C559.751 1644.19 570.664 1650.67 573.988 1650.67C577.296 1650.67 577.79 1647.72 575.271 1642.57C571.035 1634.03 576.708 1630.2 582.397 1637.71C586.478 1643.31 589.647 1650.52 593.187 1662.74C596.34 1673.49 610.685 1698.82 617.147 1704.86C619.373 1707.06 624.273 1709.57 628.029 1710.45C632.914 1711.63 636.98 1714.13 642.313 1719.14C656.38 1732.39 668.112 1735.19 676.599 1727.09ZM516.607 1306.34C515.216 1304.72 515.463 1302.68 517.766 1296.79C521.26 1287.86 524.413 1285.34 527.907 1288.67C530.102 1290.76 530.025 1291.57 526.979 1298.33C523.239 1306.62 519.42 1309.57 516.607 1306.34ZM480.512 1298.15C468.919 1286.77 461.761 1266.25 467.744 1261.52C471.33 1258.69 474.654 1261.96 474.684 1268.34C474.7 1275.51 480.62 1286.7 487.963 1293.4C495.089 1299.92 496.048 1304.16 490.375 1304.16C487.948 1304.16 484.5 1302.06 480.512 1298.15ZM224.602 1290.03C220.985 1287.11 220.97 1287.01 223.814 1284.92C225.406 1283.74 228.251 1282.77 230.121 1282.77C235.377 1282.77 236.706 1278.48 236.273 1262.93C235.949 1251.09 236.304 1248.27 238.422 1246.23C243.199 1241.67 245.069 1245.69 246.167 1262.83C246.939 1275.05 246.692 1279.4 245.038 1282.44C240.061 1291.62 230.832 1295.03 224.602 1290.03ZM341.883 903.955C340.523 900.568 343.367 897.093 347.943 896.578C351.236 896.195 351.9 896.681 351.9 899.493C351.9 905.604 343.97 909.138 341.883 903.955ZM373.866 838.665C373.403 837.546 374.407 833.202 376.061 829.035C377.731 824.853 379.725 819.42 380.498 816.96C382.43 810.761 385.615 808.391 388.706 810.85C390.36 812.16 390.824 814.045 390.206 817.078C389.155 822.232 383.466 836.368 381.41 838.915C379.478 841.315 374.871 841.168 373.866 838.665ZM187.92 824.721C182.42 818.536 173.444 799.998 174.036 796.037C174.367 793.813 175.54 792.915 178.109 792.915C181.15 792.915 182.403 794.461 186.084 802.736C188.486 808.14 192.143 815.002 194.209 817.976C200.927 827.651 195.605 833.349 187.92 824.721ZM263.698 784.242C258.21 779.839 257.7 774.759 262.415 771.608C266.604 768.81 270.02 768.81 275.631 771.564C280.995 774.214 281.676 780.678 277.054 785.081C273.034 788.91 269.216 788.674 263.698 784.242ZM379 701.061C377.377 700.074 377.13 697.733 377.887 690.798C379.309 677.84 387.626 663.866 393.917 663.866C398.307 663.866 398.292 667.606 393.871 674.247C391.537 677.766 388.785 684.392 387.734 689.001C384.843 701.827 383.452 703.741 379 701.061ZM186.886 590.065C184.64 588.74 182.513 586.943 182.159 586.06C181.108 583.453 183.699 580.715 187.461 580.45C190.426 580.243 190.894 579.537 190.5 575.87C189.959 570.849 192.8 569.126 198.321 571.114C202.808 572.748 203.861 574.353 204.025 579.846C204.11 582.702 202.908 585.353 200.554 587.518C195.546 592.141 191.649 592.863 186.886 590.065ZM393.453 586.737C392 585.942 390.826 584.514 390.841 583.571C390.856 579.139 394.304 570.834 397.751 566.932C404.506 559.305 410.349 562.397 410.241 573.573C410.195 579.257 407.196 583.851 401.724 586.649C397.859 588.607 396.854 588.622 393.453 586.737ZM288.925 428.459C286.375 426.045 286.158 425.132 287.72 423.35C288.925 421.981 291.043 421.465 293.547 421.936C296.33 422.466 299.437 421.45 304.105 418.505C311.834 413.617 319.594 412.925 321.836 416.93C323.521 419.919 321.388 422.864 317.554 422.864C316.271 422.864 311.525 424.763 306.996 427.075C297.18 432.111 293.084 432.42 288.925 428.459ZM295.433 411.423C292.002 410.112 289.497 404.208 291.213 401.542C291.754 400.718 294.274 400.04 296.809 400.04C303.502 400.04 305.79 396.639 314.617 373.653C320.244 358.958 324.108 352.98 327.926 352.98C331.945 352.98 331.806 356.455 327.416 365.997C325.484 370.208 322.408 377.938 320.599 383.18C315.853 396.889 308.975 408.286 303.951 410.76C301.586 411.923 299.452 412.836 299.205 412.777C298.958 412.733 297.257 412.115 295.433 411.423ZM275.183 384.712C273.916 383.342 270.994 376.245 268.722 368.956C264.842 356.573 264.733 355.542 267.068 353.318C269.247 351.242 269.819 351.198 271.566 353.024C273.776 355.336 276.992 363.464 280.779 376.363C282.804 383.254 282.897 384.992 281.274 385.963C278.476 387.657 277.811 387.524 275.183 384.712ZM670.263 1691.46C669.783 1690.13 668.686 1689.25 667.82 1689.25C666.831 1689.25 666.939 1690.28 668.098 1692.05C670.154 1695.14 671.607 1694.7 670.263 1691.46ZM677.312 1681.3C676.399 1679.09 673.772 1678.35 673.772 1680.41C673.772 1681.88 675.41 1683.5 676.971 1683.5C677.636 1683.5 677.791 1682.47 677.312 1681.3ZM181.244 1649.2C181.244 1646.55 178.517 1647.87 174.629 1652.29C169.306 1658.33 171.516 1660.98 176.991 1655.23C179.33 1652.73 181.244 1650.08 181.244 1649.2ZM471.007 1045.93C471.904 1041.69 474.841 1034.55 477.499 1030.07C480.653 1024.79 482.647 1019.18 483.203 1014.04C484.193 1004.88 481.426 1002.8 479.772 1011.46C478.612 1017.56 471.192 1036.07 468.039 1040.76C466.88 1042.5 465.798 1045.2 465.628 1046.76C464.53 1057.46 468.673 1056.83 471.007 1045.93ZM489.634 1030.19C489.634 1029.41 488.969 1029.16 488.135 1029.65C487.315 1030.13 486.635 1031.16 486.635 1031.96C486.635 1032.74 487.315 1032.99 488.135 1032.5C488.969 1032.02 489.634 1030.97 489.634 1030.19ZM506.082 1004.25C506.097 1000.48 505.525 997.738 504.799 998.15C503.021 999.21 501.398 1009.64 502.573 1012.54C504.165 1016.48 506.051 1012.01 506.082 1004.25ZM494.689 997.105C495.338 991.612 495.153 989.109 494.148 989.698C493.313 990.199 492.633 994.204 492.633 998.592C492.633 1008.53 493.406 1007.97 494.689 997.105ZM453.06 689.958C451.267 669.55 449.798 661.098 445.547 646.874C442.641 637.14 439.874 628.821 439.411 628.379C437.927 626.965 435.948 631.354 429.564 650.187C425.9 661.024 423.04 672.524 422.608 678.134C421.927 687.308 422.159 688.147 428.729 699.809C432.485 706.494 437.54 714.77 439.952 718.215C442.363 721.646 444.852 726.079 445.47 728.037C446.104 729.995 448.376 734.81 450.525 738.727L454.451 745.854L454.884 730.599C455.116 722.206 454.297 703.918 453.06 689.958ZM187.412 687.234C193.307 675.101 196.184 662.305 196.034 648.891C195.898 636.669 194.3 628.732 192.732 632.487C192.241 633.665 189.446 645.887 186.521 659.64C183.597 673.408 180.536 686.881 179.721 689.59C178.907 692.285 178.24 695.716 178.24 697.188C178.24 701.783 182.675 696.982 187.412 687.234ZM228.666 393.974C244.743 381.605 250.107 374.596 250.107 365.967C250.107 362.242 250.818 355.512 251.699 351.007C252.565 346.486 252.827 340.832 252.271 338.417C251.73 336.017 246.861 327.889 241.481 320.349C223.426 295.067 215.311 273.112 218.619 258.446C219.469 254.662 219.763 249.169 219.268 246.239C217.892 238.037 221.2 211.636 224.725 202.668C227.492 195.63 229.238 193.671 238.884 186.883C251.529 177.975 256.847 170.524 259.196 158.405C261.376 147.141 260.526 145.424 254.25 148.495C251.56 149.806 249.009 151.308 248.607 151.838C248.19 152.368 244.727 154.842 240.894 157.316C233.799 161.925 228.697 167.358 219.206 180.522C211.084 191.757 209.828 195.792 207.356 218.571C206.101 230.145 204.069 245.223 202.842 252.07C200.295 266.294 201.18 271.345 210.396 295.229C218.572 316.403 220.752 328.286 220.829 352.273C220.906 372.225 220.628 374.36 216.795 384.079C212.173 395.77 211.448 402.897 214.878 402.897C216.083 402.897 222.298 398.877 228.666 393.974ZM428.046 369.869L423.006 349.416L422.898 302.356C422.79 249.582 422.032 239.893 416.854 224.77C412.912 213.226 400.453 189.902 393.96 181.906C391.704 179.138 385.412 170.45 379.971 162.602C369.289 147.2 355.315 132.603 345.7 126.817C327.599 115.936 295.662 121.919 281.858 138.773C276.556 145.232 268.054 161.07 268.085 164.428C268.116 169.184 275.149 181.214 280.529 185.72C286.279 190.52 290.87 192.081 307.302 194.746C321.091 196.999 328.712 203.89 333.117 218.085C336.874 230.174 341.65 236.123 352.115 241.763C363.307 247.785 371.917 257.725 374.375 267.472C375.488 271.919 375.751 284.862 375.163 306.758C374.22 341.892 375.673 355.601 381.208 363.626C382.954 366.173 388.009 369.486 394.532 372.358C400.314 374.905 410.779 380.545 417.766 384.889C424.923 389.321 431.06 392.236 431.787 391.544C432.513 390.852 430.875 381.355 428.046 369.869ZM365.919 325.533C365.533 291.194 365.796 294.507 363.508 294.537C358.53 294.596 357.557 297.099 357.093 311.088C356.397 331.275 357.788 344.94 361.065 350.064C362.58 352.45 364.374 354.408 365.038 354.408C365.688 354.408 366.089 341.406 365.919 325.533ZM284.718 335.236C297.131 332.733 310.579 326.387 324.553 316.447C336.518 307.936 338.883 304.564 342.145 291.371C345.02 279.782 345.175 280.504 339.563 279.989C332.823 279.37 332.7 276.19 338.991 266.368C347.153 253.631 347.169 252.144 339.13 244.192C335.219 240.334 330.288 233.208 327.753 227.789C317.334 205.54 317.412 205.613 300.531 202.536C284.455 199.605 276.355 195.571 269.244 186.972C265.951 182.981 262.659 179.506 261.932 179.241C261.221 178.991 254.605 183.349 247.263 188.945C232.655 200.062 229.919 204.244 228.203 218.188C227.059 227.465 228.836 230.336 235.684 230.351C241.234 230.351 250.107 235.122 250.107 238.096C250.107 239.245 248.978 240.776 247.618 241.498C245.377 242.705 245.423 242.97 248.128 244.354C250.401 245.518 251.9 245.37 254.296 243.78C257.202 241.836 257.65 241.954 259.846 245.12C263.277 250.126 262.442 269.328 258.763 269.99C257.048 270.3 255.873 269.254 255.239 266.854C253.863 261.597 250.632 259.698 243.769 260.081C238.946 260.36 236.844 259.654 233.582 256.679C230.877 254.205 229.115 253.469 228.435 254.515C223.72 261.789 225.142 277.191 231.804 290.664C238.328 303.916 258.81 332.777 263.339 335.119C268.363 337.725 272.336 337.74 284.718 335.236ZM262.381 318.465C258.284 314.577 260.479 313.37 271.315 313.576C283.079 313.782 286.202 315.991 278.395 318.597C272.119 320.673 264.622 320.615 262.381 318.465ZM249.133 307.45C247.355 306.714 245.547 305.566 245.114 304.888C241.172 298.807 269.074 291.636 276.741 296.745C279.045 298.292 281.58 298.689 284.749 298.027C290.252 296.878 296.512 299.587 296.512 303.121C296.512 304.829 294.843 305.801 290.901 306.376C279.586 308.039 252.256 308.746 249.133 307.45ZM253.09 287.852C249.118 286.35 245.609 282.727 245.609 280.121C245.609 276.057 248.546 275.424 252.178 278.678C256.182 282.256 262.303 282.536 267.358 279.385C269.661 277.942 272.444 277.426 274.824 277.986C277.669 278.663 278.813 278.266 279.446 276.366C282.105 268.326 283.079 267.104 285.321 268.871C288.01 271.006 288.227 280.268 285.661 283.434C284.579 284.745 280.575 286.07 276.293 286.512C272.181 286.953 265.781 287.616 262.071 287.999C258.377 288.382 254.327 288.323 253.09 287.852ZM282.213 257.327C281.688 256.502 281.657 253.69 282.183 251.084C282.847 247.653 284.238 245.93 287.191 244.87C294.008 242.396 301.443 241.748 307.549 243.103C319.653 245.768 318.602 250.303 304.705 255.236C294.997 258.682 283.775 259.727 282.213 257.327ZM273.109 238.199C271.764 234.857 273.789 233.473 283.558 231.043C299.202 227.17 311.476 228.584 311.476 234.253C311.476 235.77 309.559 235.976 302.711 235.24C294.735 234.386 285.645 235.932 275.922 239.819C274.902 240.217 273.634 239.495 273.109 238.199ZM362.859 278.516C364.683 274.938 365.131 272.449 364.219 270.903C363.06 268.915 362.302 269.239 358.886 273.112C354.233 278.369 353.414 284.995 357.51 284.273C358.963 284.023 361.359 281.432 362.859 278.516ZM240.925 242.234L244.48 241.321L240.925 239.451C238.977 238.42 235.607 237.551 233.443 237.522C229.439 237.463 225.358 240.526 227.152 242.234C228.404 243.427 236.272 243.412 240.925 242.234Z" fill="#E49271"/>
<path fill-rule="evenodd" clip-rule="evenodd" d="M133.77 800.833C182.923 835.182 210.415 890.675 247.002 929.087C266.345 938.827 294.651 979.478 312.732 952.021C321.739 932.553 331.471 912.86 350.706 901.247C376.161 883.867 401.538 866.322 427.366 849.503C451.078 837.708 457.23 814.925 454.092 790.894C455.505 776.882 452.82 748.758 430.839 763.975C403.505 772.704 377.8 785.797 350.326 793.844C316.744 799.955 281.89 808.756 247.875 803.592C221.736 796.952 195.623 790.703 171.376 778.516C156.454 768.298 137.236 750.356 137.788 782.065C136.673 788.481 132.181 794.887 133.77 800.833Z" fill="#F4BAA3" stroke="#C66C49" stroke-width="5.08652" stroke-linecap="round" stroke-linejoin="round"/>
<path d="M254.813 214C254.813 214 260.329 215.945 264.975 235.217C269.62 254.489 267.685 276.59 267.104 291.972C266.523 307.354 265.168 355.623 256.555 380.022C247.941 404.422 243.877 405.836 233.908 412.555C223.94 419.097 198.583 417.152 187.84 399.471C177.098 381.614 181.55 351.91 184.259 341.125C186.969 330.163 254.813 214 254.813 214Z" fill="#221B23"/>
<path d="M219.668 226.087C219.668 226.087 214.145 220.779 207.662 218.124C201.18 215.47 193.976 219.813 191.815 226.328C189.655 232.843 194.697 260.109 203.1 270.001C211.504 279.894 217.027 280.618 222.549 275.551C228.071 270.725 237.916 251.663 219.668 226.087Z" fill="#F4BAA3"/>
<path d="M222.549 229.948C223.51 231.395 224.23 232.843 225.19 234.291C226.151 235.738 226.871 237.427 227.591 238.875C228.312 240.564 229.032 242.012 229.512 243.701C229.993 245.39 230.713 247.079 230.953 249.009C231.193 249.974 231.193 250.94 231.433 251.663L231.673 254.559C231.673 258.419 231.193 262.039 230.233 265.658C229.032 269.277 227.591 272.414 225.19 275.068C224.71 275.792 223.99 276.275 223.51 276.999C222.789 277.481 222.309 277.964 221.589 278.446C220.148 279.412 218.708 280.135 217.027 280.135C215.346 280.377 213.665 280.135 212.225 279.412C210.784 278.688 209.343 277.723 208.143 276.757C206.942 275.792 205.742 274.586 204.541 273.138C203.341 271.932 202.38 270.484 201.42 269.036C197.818 263.004 195.657 256.248 193.736 249.492C192.776 246.114 192.056 242.736 191.335 239.116C190.615 235.497 190.135 232.119 190.375 228.258C190.375 227.293 190.615 226.328 190.855 225.122C191.095 224.639 191.095 224.157 191.335 223.674L192.056 222.468C193.016 220.779 194.217 219.572 195.417 218.366C198.058 216.194 201.18 215.229 204.301 215.712C205.742 215.953 207.423 216.435 208.623 217.159C210.064 217.883 211.264 218.607 212.705 219.572C215.346 221.261 217.747 223.191 220.148 225.363L222.549 229.948ZM211.985 220.779C210.544 220.055 209.343 219.572 207.903 219.09C206.462 218.607 205.262 218.366 203.821 218.366C201.18 218.607 198.539 219.572 196.378 221.502C195.417 222.468 194.457 223.433 193.736 224.88C193.496 225.604 193.016 226.087 192.776 226.811C192.536 227.535 192.296 228.017 192.296 228.982C191.816 232.119 192.056 235.738 192.536 239.116C193.016 242.494 193.496 246.114 194.217 249.492C195.897 256.248 198.298 263.004 202.14 268.071C204.061 270.484 206.462 272.655 208.623 274.586C211.024 276.275 213.665 277.481 216.066 276.999C217.267 276.757 218.467 276.275 219.668 275.551C220.868 274.827 221.829 273.862 222.789 272.655C224.47 270.243 226.151 267.588 226.871 264.452C227.832 261.315 228.312 258.178 228.552 254.8C228.552 251.422 228.312 248.044 227.591 244.666C226.151 237.91 223.27 231.637 219.428 226.328C217.267 223.915 214.626 222.226 211.985 220.779Z" fill="#E59E82"/>
<path d="M200.219 225.122C207.423 226.328 212.225 238.875 213.665 247.32C213.905 247.562 213.905 247.803 214.145 248.044C214.866 249.251 213.185 250.698 212.465 249.492C211.504 247.803 210.064 245.873 208.383 245.149C205.262 243.942 203.581 247.562 204.301 251.181C205.262 255.283 207.903 257.937 210.304 261.074C210.544 261.315 210.304 261.798 210.064 261.556C206.222 259.143 200.459 250.698 203.101 245.39C205.021 241.529 208.143 242.253 210.784 244.425C209.103 239.599 207.663 234.773 204.061 231.154C202.86 229.948 200.7 228.017 199.019 228.258C196.138 228.741 196.138 233.084 195.897 235.738C195.657 239.358 196.138 243.218 196.618 247.079C196.618 247.562 196.138 247.562 196.138 247.32C194.697 241.529 191.816 223.674 200.219 225.122Z" fill="#D58464"/>
<path d="M392.544 226.087C392.544 226.087 398.067 220.779 404.55 218.124C411.032 215.47 418.236 219.813 420.397 226.328C422.558 232.843 417.515 260.108 409.112 270.001C400.708 279.894 395.185 280.618 389.663 275.551C384.141 270.725 374.296 251.663 392.544 226.087Z" fill="#F4BAA3"/>
<path d="M392.544 225.846C394.945 223.674 397.346 221.744 399.988 220.055C401.188 219.09 402.629 218.366 404.069 217.642C405.51 216.918 406.951 216.435 408.391 216.194C411.513 215.953 414.634 216.677 417.275 218.848C418.476 219.813 419.676 221.261 420.637 222.95L421.357 224.157C421.597 224.639 421.597 225.122 421.837 225.604C422.077 226.569 422.317 227.776 422.317 228.741C422.558 232.602 421.837 236.221 421.357 239.599C420.637 243.218 419.916 246.596 418.956 249.974C417.035 256.73 414.874 263.487 411.273 269.519C410.312 270.966 409.352 272.173 408.151 273.621C407.191 274.827 405.99 276.034 404.55 277.24C403.349 278.205 401.908 279.17 400.468 279.894C399.027 280.618 397.346 280.859 395.666 280.618C393.985 280.377 392.544 279.653 391.104 278.929C390.383 278.446 389.663 277.964 389.183 277.481C388.462 276.999 387.982 276.275 387.502 275.551C385.341 272.897 383.66 269.519 382.46 266.141C381.499 262.521 380.779 258.902 381.019 255.041L381.259 252.146C381.259 251.181 381.499 250.216 381.739 249.492C381.98 247.562 382.7 245.872 383.18 244.183C383.9 242.494 384.381 240.805 385.101 239.358C385.821 237.91 386.542 236.221 387.502 234.773C388.462 233.326 389.183 231.878 390.143 230.43L392.544 225.846ZM392.544 226.087C388.703 231.395 385.821 237.91 384.381 244.425C383.66 247.803 383.42 251.181 383.42 254.559C383.42 257.937 383.9 261.074 385.101 264.21C386.061 267.347 387.502 270.001 389.183 272.414C390.143 273.621 391.104 274.586 392.304 275.31C393.505 276.033 394.465 276.757 395.906 276.757C398.307 277.24 400.948 276.033 403.349 274.344C405.75 272.414 407.911 270.243 409.832 267.83C413.674 262.763 416.075 256.007 417.755 249.251C418.716 245.872 419.196 242.494 419.436 238.875C419.916 235.497 419.916 231.878 419.676 228.741C419.676 228.017 419.436 227.293 419.196 226.569C418.956 225.846 418.716 225.122 418.236 224.639C417.515 223.433 416.555 222.226 415.594 221.261C413.434 219.572 411.032 218.366 408.151 218.124C406.711 218.124 405.51 218.366 404.069 218.848C402.629 219.331 401.428 219.813 399.988 220.537C397.586 222.226 394.945 223.915 392.544 226.087Z" fill="#E59E82"/>
<path d="M411.993 225.122C404.789 226.328 399.987 238.875 398.547 247.32C398.307 247.561 398.307 247.803 398.066 248.044C397.346 249.25 399.027 250.698 399.747 249.492C400.708 247.803 402.148 245.872 403.829 245.149C406.95 243.942 408.631 247.561 407.911 251.181C406.95 255.283 404.309 257.937 401.908 261.074C401.668 261.315 401.908 261.797 402.148 261.556C405.99 259.143 411.753 250.698 409.111 245.39C407.19 241.529 404.069 242.253 401.428 244.425C403.109 239.599 404.549 234.773 408.151 231.154C409.351 229.947 411.512 228.017 413.193 228.258C416.074 228.741 416.074 233.084 416.315 235.738C416.555 239.358 416.074 243.218 415.594 247.079C415.594 247.561 416.074 247.561 416.074 247.32C417.515 241.529 420.396 223.674 411.993 225.122Z" fill="#D58464"/>
<path d="M407.997 206.238C405.071 137.581 359.95 100 308 100C255.806 100 210.93 137.581 208.003 206.238C208.003 206.238 207.759 238.76 211.905 265.259C216.051 291.999 229.441 306.261 249.197 329.869C268.952 353.477 285.464 364.318 296.439 362.873C296.439 362.873 305.415 361.307 308.098 361.307C310.781 361.307 320.146 362.294 320.146 362.294C331.121 363.74 347.048 353.285 366.803 329.676C386.559 306.068 399.949 291.999 404.095 265.259C408.241 238.76 407.997 206.238 407.997 206.238Z" fill="#F4BAA3"/>
<path d="M247.538 333.103C268.282 356.887 285.184 367.323 296.708 365.867C296.708 365.867 306.183 364.41 309 364.41C311.817 364.41 321.292 365.867 321.292 365.867C332.817 367.323 349.719 356.887 370.462 333.103C391.205 309.319 405.546 293.301 409.9 266.362C414.253 239.423 413.997 206.902 413.997 206.902C410.924 137.734 363.624 99 309.077 99C254.53 99 207.076 137.734 204.003 206.659C204.003 206.659 203.747 239.423 208.1 266.119C212.454 293.058 226.795 309.319 247.538 333.103ZM206.308 218.284L206.052 212.387V206.465C206.564 190.981 209.637 175.497 216.039 161.494C219.112 154.359 223.21 147.733 228.075 141.593C230.38 138.632 233.197 135.695 235.758 133.001L237.807 131.036C238.575 130.308 239.087 129.798 239.856 129.07C241.392 127.832 242.673 126.619 244.465 125.381C250.611 120.721 257.27 116.789 264.44 113.586C271.611 110.625 279.038 108.174 286.464 106.693C301.573 103.733 317.451 103.999 332.56 107.179C336.402 108.174 339.987 108.902 343.572 110.14C347.158 111.377 350.743 112.834 354.328 114.314C361.243 117.518 367.901 121.449 374.047 126.109C380.193 130.769 385.571 136.423 390.437 142.321C391.717 143.801 392.742 145.524 394.022 146.981C394.534 147.709 395.047 148.704 395.559 149.432L397.095 151.883C398.12 153.606 399.144 155.329 399.912 157.052C400.681 158.776 401.705 160.499 402.473 162.222C409.132 176.225 412.461 191.976 412.973 207.46C412.973 211.392 412.973 215.323 412.717 219.255C412.461 223.187 412.461 227.118 411.949 231.05L411.436 236.947C411.18 238.913 411.18 240.879 410.924 242.845C410.412 246.777 409.9 250.708 409.388 254.397L408.875 257.358L408.363 260.319C408.107 262.285 407.595 264.251 407.339 265.974C407.083 267.939 406.571 269.663 406.058 271.628C405.802 272.623 405.546 273.352 405.29 274.322L404.522 277.016C401.961 284.151 398.632 291.02 394.278 297.427C389.925 303.81 385.059 309.707 379.937 315.605L376.096 320.022L371.998 324.439L364.06 333.297C358.938 338.952 353.304 344.607 347.67 349.509C346.133 350.747 344.853 351.96 343.316 352.955C341.78 354.193 340.243 355.164 338.707 356.159C335.634 358.125 332.56 359.848 329.487 361.086C327.951 361.571 326.414 362.081 325.134 362.323C324.366 362.566 321.036 362.566 321.036 362.566L314.89 361.838C313.866 361.595 309 361.352 308.744 361.352H307.72C306.439 361.352 302.342 361.838 301.317 362.081L295.427 362.809C293.123 363.051 290.049 362.566 286.976 361.086C283.903 359.848 280.574 357.882 277.757 355.916C274.684 353.708 271.611 351.499 268.794 349.024C263.16 344.097 257.526 338.442 252.404 332.545C247.026 326.647 241.904 320.75 236.783 314.61C232.48 309.416 226.846 302.523 221.315 292.84C219.932 290.437 216.731 283.181 215.86 280.584L211.174 264.954C210.405 261.265 209.893 257.334 209.381 253.402C208.357 245.781 207.588 237.918 206.82 230.298C206.82 226.148 206.564 222.216 206.308 218.284Z" fill="#C66C49"/>
<path d="M276 316.823C276 316.823 281.904 316.093 285.364 314.388C288.825 312.683 300.632 314.632 305.925 314.388C311.218 314.145 311.014 310.005 317.325 312.44C323.636 314.875 329.946 316.823 333 316.336C333 316.336 330.557 319.259 325.875 322.668C321.193 326.078 304 330 305.925 329.974C297.782 330.218 304.7 331.653 299 328C292.893 324.347 276.407 318.528 276 316.823Z" fill="#DA7C87"/>
<path d="M276.276 317.086C284.842 323.111 294.711 324.036 303.835 324.5C312.028 324.732 323.2 322.648 330.648 316.622C331.393 316.622 331.393 316.159 330.648 316.622C326.179 317.549 314.969 317.318 310.5 317.086C306.031 316.854 308.304 317.086 303.835 317.086C294.711 316.854 285.587 319.867 276.649 315.927C276.09 315.464 275.718 316.622 276.276 317.086Z" fill="#CB5F6C"/>
<path d="M300.047 312.257C304.222 312.257 308.198 313.463 312.373 314.67C312.969 314.911 313.367 313.946 312.77 313.463C308.794 311.051 304.222 310.809 300.047 311.533C299.65 311.533 299.65 312.016 300.047 312.257Z" fill="#E99CA5"/>
<path d="M286.897 239.599C286.897 239.599 283.056 235.015 276.573 231.154C270.09 227.293 260.966 224.398 252.322 225.363C243.918 226.328 236.715 228.5 236.955 228.741C237.195 228.982 239.596 234.291 245.119 237.427C250.641 240.564 256.884 243.701 264.808 243.942C272.731 243.942 279.214 242.977 282.816 241.529C286.417 240.082 286.897 239.599 286.897 239.599Z" fill="white"/>
<path d="M262.887 220.055C269.85 220.055 275.373 225.604 275.373 232.602C275.373 239.599 269.85 245.149 262.887 245.149C255.924 245.149 250.401 239.599 250.401 232.602C250.401 225.604 255.924 220.055 262.887 220.055Z" fill="#3E4442"/>
<path d="M262.887 245.631C255.684 245.631 249.921 239.84 249.921 232.602C249.921 225.363 255.684 219.572 262.887 219.572C270.09 219.572 275.852 225.363 275.852 232.602C275.852 239.84 270.09 245.631 262.887 245.631ZM262.887 220.778C256.404 220.778 251.122 226.087 251.122 232.602C251.122 239.116 256.404 244.425 262.887 244.425C269.37 244.425 274.652 239.116 274.652 232.602C274.652 226.087 269.37 220.778 262.887 220.778Z" fill="#1B2522"/>
<path d="M262.887 225.846C266.489 225.846 269.61 228.982 269.61 232.602C269.61 236.221 266.489 239.358 262.887 239.358C259.285 239.358 256.164 236.221 256.164 232.602C256.164 228.982 259.285 225.846 262.887 225.846Z" fill="black"/>
<path d="M259.765 225.846C260.966 225.846 262.166 226.811 262.166 228.258C262.166 229.706 261.206 230.671 259.765 230.671C258.325 230.671 257.364 229.706 257.364 228.258C257.364 226.811 258.565 225.846 259.765 225.846ZM267.449 236.462C267.929 236.462 268.409 236.945 268.409 237.427C268.409 237.91 267.929 238.393 267.449 238.393C266.969 238.393 266.488 237.91 266.488 237.427C266.488 236.945 266.969 236.462 267.449 236.462Z" fill="white"/>
<path d="M235.827 236.535C235.827 253.184 247.664 266.696 262.287 266.696C276.909 266.696 288.746 253.184 288.746 236.535C288.746 219.886 276.909 206.374 262.287 206.374C247.664 206.374 235.827 219.862 235.827 236.535ZM236.835 228.838C236.667 228.572 243.798 226.594 252.298 225.556C260.798 224.519 269.922 227.462 276.453 231.251C282.984 235.063 286.85 239.647 286.85 239.647C286.85 239.647 286.009 240.058 282.576 241.529C279.142 243.001 272.443 244.111 264.616 244.039C256.788 243.942 250.617 240.757 245.023 237.572C239.405 234.363 237.003 229.079 236.835 228.838Z" fill="#F4BAA3"/>
<path d="M287.234 238.634C283.296 228.355 275.901 219.837 264.76 217.449C253.307 215.012 243.919 220.127 235.755 227.607C235.611 227.752 235.323 227.559 235.467 227.366C248.961 207.17 282.6 215.832 287.45 238.537C287.474 238.706 287.282 238.754 287.234 238.634Z" fill="#E59E82"/>
<path d="M218.587 230.213C223.701 230.913 228.215 229.923 232.681 228.548C228.288 228.355 223.99 226.98 220.268 224.229C219.884 223.964 220.1 223.191 220.628 223.409C226.511 225.821 232.417 227.124 238.516 226.666C240.485 226.014 242.502 225.411 244.591 224.929C249.681 223.746 255.011 223.481 260.15 224.301C270.21 225.894 281.687 231.25 287.45 240.033C287.546 240.202 287.33 240.323 287.21 240.226C276.861 231.878 266.993 226.328 253.283 226.642C248.096 226.762 243.03 228.331 237.94 229.754C248.961 244.232 269.634 247.175 285.769 240.082C285.841 240.033 285.913 240.154 285.841 240.202C270.042 248.092 247.28 245.704 236.859 230.044C230.713 231.733 224.59 233.084 218.323 231.25C217.651 231.033 217.939 230.116 218.587 230.213Z" fill="#594108"/>
<path d="M325.315 239.599C325.315 239.599 329.157 235.015 335.639 231.154C342.122 227.293 351.246 224.398 359.89 225.363C368.294 226.328 375.497 228.5 375.257 228.741C375.017 228.982 372.616 234.291 367.093 237.427C361.571 240.564 355.328 243.701 347.405 243.942C339.481 243.942 332.998 242.977 329.397 241.529C325.795 240.082 325.315 239.599 325.315 239.599Z" fill="white"/>
<path d="M349.325 220.055C356.288 220.055 361.811 225.604 361.811 232.602C361.811 239.599 356.288 245.149 349.325 245.149C342.362 245.149 336.84 239.599 336.84 232.602C336.84 225.604 342.362 220.055 349.325 220.055Z" fill="#3E4442"/>
<path d="M349.325 245.631C342.122 245.631 336.359 239.84 336.359 232.602C336.359 225.363 342.122 219.572 349.325 219.572C356.528 219.572 362.291 225.363 362.291 232.602C362.291 239.84 356.528 245.631 349.325 245.631ZM349.325 220.778C342.842 220.778 337.56 226.087 337.56 232.602C337.56 239.116 342.842 244.425 349.325 244.425C355.808 244.425 361.09 239.116 361.09 232.602C361.09 226.087 355.808 220.778 349.325 220.778Z" fill="#1B2522"/>
<path d="M349.325 225.846C352.927 225.846 356.048 228.982 356.048 232.602C356.048 236.221 352.927 239.358 349.325 239.358C345.723 239.358 342.602 236.221 342.602 232.602C342.602 228.982 345.723 225.846 349.325 225.846Z" fill="black"/>
<path d="M346.444 225.846C347.645 225.846 348.845 226.811 348.845 228.258C348.845 229.706 347.885 230.671 346.444 230.671C345.003 230.671 344.043 229.706 344.043 228.258C344.043 226.811 345.003 225.846 346.444 225.846ZM354.127 236.462C354.608 236.462 355.088 236.945 355.088 237.427C355.088 237.91 354.608 238.393 354.127 238.393C353.647 238.393 353.167 237.91 353.167 237.427C353.167 236.945 353.647 236.462 354.127 236.462Z" fill="white"/>
<path d="M349.95 206.374C335.351 206.374 323.49 219.886 323.49 236.535C323.49 253.184 335.327 266.696 349.95 266.696C364.572 266.696 376.409 253.184 376.409 236.535C376.409 219.886 364.548 206.374 349.95 206.374ZM367.213 237.548C361.619 240.733 355.448 243.942 347.621 244.015C339.793 244.111 333.094 242.977 329.661 241.505C326.227 240.033 325.387 239.623 325.387 239.623C325.387 239.623 329.228 235.039 335.783 231.226C342.314 227.414 351.438 224.494 359.938 225.532C368.438 226.569 375.593 228.548 375.401 228.813C375.209 229.079 372.808 234.363 367.213 237.548Z" fill="#F4BAA3"/>
<path d="M324.978 238.634C328.916 228.355 336.311 219.837 347.452 217.449C358.905 215.012 368.294 220.127 376.457 227.607C376.601 227.752 376.889 227.559 376.745 227.366C363.251 207.17 329.612 215.832 324.762 238.537C324.738 238.706 324.93 238.754 324.978 238.634Z" fill="#E59E82"/>
<path d="M393.625 230.213C388.511 230.913 383.997 229.923 379.531 228.548C383.925 228.355 388.223 226.98 391.944 224.229C392.328 223.964 392.112 223.191 391.584 223.409C385.701 225.821 379.795 227.124 373.696 226.666C371.727 226.014 369.71 225.411 367.621 224.929C362.531 223.746 357.201 223.481 352.063 224.301C342.002 225.894 330.525 231.25 324.762 240.033C324.666 240.202 324.883 240.323 325.003 240.226C335.351 231.878 345.219 226.328 358.93 226.642C364.116 226.762 369.182 228.331 374.272 229.754C363.251 244.232 342.578 247.175 326.443 240.082C326.371 240.033 326.299 240.154 326.371 240.202C342.17 248.092 364.932 245.704 375.353 230.044C381.5 231.733 387.622 233.084 393.889 231.25C394.561 231.033 394.273 230.116 393.625 230.213Z" fill="#594108"/>
<path d="M241.037 203.165C241.277 202.682 241.998 202.441 242.478 202.199C242.958 201.958 243.438 201.717 243.918 201.717C244.879 201.234 245.839 200.752 246.8 200.51C248 200.269 249.681 199.304 250.881 200.028C254.723 198.58 259.765 199.545 263.127 201.476C267.689 201.958 272.491 203.406 275.852 205.819C276.093 206.06 276.333 206.301 276.333 206.543C277.053 206.784 277.533 207.025 278.254 207.267C280.655 208.232 283.296 208.956 285.697 210.162C285.937 210.162 286.177 210.403 286.417 210.403C287.137 210.645 287.378 212.092 286.897 212.334C286.657 212.575 286.657 212.816 286.417 213.057C284.496 214.505 282.095 213.54 280.174 212.816C278.494 212.092 276.573 211.368 275.372 209.921C273.451 209.197 272.011 208.232 270.33 207.267C270.09 207.267 269.85 207.025 269.61 207.025C266.728 206.543 263.607 205.336 260.726 203.888C259.045 203.647 257.604 203.165 255.924 203.165C253.763 202.923 251.602 203.647 249.201 202.923H248.961C248.48 203.165 248 203.165 247.52 203.406C245.599 203.888 243.918 204.371 241.998 204.371C241.757 204.371 241.517 204.13 241.517 203.888H241.277C241.277 203.888 240.797 203.647 241.037 203.165Z" fill="#2A232B"/>
<path d="M251.842 198.58C259.285 198.097 266.729 202.199 273.452 204.853C277.533 206.542 285.937 207.025 287.618 212.092C287.858 212.816 286.897 213.057 286.417 212.575C284.256 209.679 280.655 209.197 277.293 208.231C274.412 207.266 271.771 206.301 268.89 205.095C263.127 202.682 257.364 201.234 251.362 199.786C251.122 199.545 251.362 198.821 251.842 198.58Z" fill="#3A353A"/>
<path d="M290.019 212.092C290.739 208.714 285.697 207.508 283.296 206.542C277.533 204.13 271.531 201.475 265.528 199.786C261.926 198.821 258.085 198.097 254.483 198.097C251.602 198.097 248.961 198.339 246.079 199.304C241.277 200.752 236.715 203.647 232.633 206.784C230.472 207.99 228.311 209.679 226.631 211.368C226.391 211.61 226.631 212.092 227.111 211.851C227.111 211.851 227.351 211.851 227.351 211.61C227.351 211.851 227.591 211.851 227.831 211.851C231.433 210.162 234.554 207.99 238.156 206.542C241.757 205.095 245.599 204.13 249.441 203.888H251.122C255.684 203.888 260.005 204.853 264.087 206.784C269.85 209.438 275.132 213.057 280.895 215.229C281.855 215.711 283.056 215.711 284.256 215.711C286.897 215.711 289.539 214.746 290.019 212.092ZM254.483 200.269C258.325 200.269 262.166 201.234 266.008 202.441C270.81 204.13 275.612 206.301 280.415 208.232C281.375 208.714 286.177 209.921 286.657 211.127C287.137 212.575 286.177 213.057 284.736 213.299C284.016 213.299 283.296 213.057 282.816 213.057C281.375 212.575 279.934 211.61 278.734 210.886C271.29 207.025 263.607 202.441 255.203 201.958H252.802C250.161 201.958 247.28 202.199 244.399 202.682C245.599 202.199 246.8 201.717 248.24 201.234C250.161 200.51 252.322 200.269 254.483 200.269Z" fill="#1B141C"/>
<path d="M371.175 203.165C370.935 202.682 370.214 202.441 369.734 202.199C369.254 201.958 368.774 201.717 368.294 201.717C367.333 201.234 366.373 200.752 365.412 200.51C364.212 200.269 362.531 199.304 361.331 200.028C357.489 198.58 352.447 199.545 349.085 201.476C344.523 201.958 339.721 203.406 336.36 205.819C336.119 206.06 335.879 206.301 335.879 206.543C335.159 206.784 334.679 207.025 333.958 207.267C331.557 208.232 328.916 208.956 326.515 210.162C326.275 210.162 326.035 210.403 325.795 210.403C325.075 210.645 324.834 212.092 325.315 212.334C325.555 212.575 325.555 212.816 325.795 213.057C327.716 214.505 330.117 213.54 332.038 212.816C333.718 212.092 335.639 211.368 336.84 209.921C338.761 209.197 340.201 208.232 341.882 207.267C342.122 207.267 342.362 207.025 342.602 207.025C345.484 206.543 348.605 205.336 351.486 203.888C353.167 203.647 354.608 203.165 356.288 203.165C358.449 202.923 360.61 203.647 363.011 202.923H363.251C363.732 203.165 364.212 203.165 364.692 203.406C366.613 203.888 368.294 204.371 370.214 204.371C370.455 204.371 370.695 204.13 370.695 203.888H370.935C370.935 203.888 371.415 203.647 371.175 203.165Z" fill="#2A232B"/>
<path d="M360.37 198.58C352.927 198.097 345.484 202.199 338.761 204.853C334.679 206.542 326.275 207.025 324.594 212.092C324.354 212.816 325.315 213.057 325.795 212.575C327.956 209.679 331.557 209.197 334.919 208.231C337.8 207.266 340.441 206.301 343.323 205.095C349.085 202.682 354.848 201.234 360.85 199.786C361.09 199.545 360.85 198.821 360.37 198.58Z" fill="#3A353A"/>
<path d="M327.716 215.47C328.916 215.47 330.117 215.229 331.077 214.988C336.84 212.816 342.362 209.197 347.885 206.543C352.207 204.612 356.529 203.647 360.85 203.647H362.531C366.373 203.888 370.215 204.853 373.576 206.301C377.178 207.749 380.539 210.162 383.901 211.61C384.141 211.61 384.381 211.61 384.381 211.368C384.381 211.368 384.621 211.368 384.621 211.61C385.101 211.851 385.341 211.368 385.101 211.127C383.42 209.438 381.259 207.749 379.099 206.543C375.017 203.406 370.455 200.752 365.653 199.063C363.011 198.097 360.13 197.856 357.249 197.856C353.407 197.856 349.806 198.58 346.204 199.545C340.201 201.234 334.199 203.888 328.436 206.301C326.275 207.266 320.993 208.473 321.713 211.851C322.674 214.746 325.315 215.711 327.716 215.47ZM364.212 201.234C365.412 201.717 366.853 201.958 368.054 202.682C365.172 202.199 362.531 201.958 359.65 201.958H357.249C348.845 202.441 340.922 207.266 333.718 210.886C332.278 211.61 331.077 212.575 329.637 213.057C329.156 213.299 328.436 213.299 327.716 213.299C326.515 213.299 325.315 212.816 325.795 211.127C326.275 209.921 331.077 208.714 332.038 208.232C336.84 206.301 341.642 204.13 346.444 202.441C350.286 201.234 354.127 200.269 357.969 200.269C359.89 200.269 362.051 200.51 364.212 201.234Z" fill="#1B141C"/>
<path d="M300.631 220.465C298.71 228.5 298.446 237.089 297.582 245.293C296.67 254.076 294.989 263.149 295.109 271.98C295.109 272.679 296.189 272.872 296.357 272.149C298.134 264.09 298.35 255.476 299.191 247.272C300.079 238.489 301.712 229.392 301.424 220.585C301.424 220.127 300.751 220.006 300.631 220.465Z" fill="#C66C49"/>
<path d="M293.404 267.347C291.051 270.508 289.082 273.934 287.354 277.481C286.249 279.773 284.857 282.476 285.601 285.106C286.801 289.449 292.3 290.8 295.877 288.749C296.934 288.122 296.454 286.457 295.253 286.457C293.164 286.433 290.715 287.109 289.058 285.323C287.042 283.176 289.034 279.291 289.923 277.119C291.243 273.934 292.852 270.87 294.101 267.661C294.269 267.202 293.644 267.033 293.404 267.347Z" fill="#C66C49"/>
<path d="M293.068 285.226C299.551 284.744 300.776 292.948 306.946 293.141C312.229 293.31 312.637 285.323 317.655 285.564C318.231 285.588 318.423 284.768 317.943 284.478C312.253 281.1 311.196 291.041 305.962 290.414C302.865 290.052 300.656 285.468 297.87 284.141C295.973 283.248 294.605 283.32 292.756 284.165C292.3 284.43 292.54 285.275 293.068 285.226Z" fill="#C66C49"/>
<path d="M315.878 288.942C320.152 289.907 325.122 288.58 326.131 283.803C326.635 281.414 325.843 279.049 324.594 277.023C322.577 273.717 319.96 270.918 318.039 267.492C317.727 266.913 316.911 267.202 316.887 267.805C316.647 271.642 319.48 274.296 321.497 277.264C323.37 279.99 324.978 283.755 321.833 286.457C320.392 287.688 317.655 287.47 315.878 287.808C315.302 287.929 315.326 288.822 315.878 288.942Z" fill="#C66C49"/>
<path d="M409.592 191.341C407.431 209.921 402.869 227.535 398.067 236.221C398.067 236.221 397.346 201.717 389.183 185.309C381.019 168.902 357.009 150.081 354.127 136.328C354.127 136.328 357.729 144.29 363.251 147.668C368.774 151.046 387.982 166.006 392.544 171.073C397.106 176.14 404.55 188.687 407.671 190.376C407.911 190.617 408.872 190.859 409.592 191.341ZM226.631 327.428C226.631 328.876 226.151 332.736 225.43 338.286C223.75 322.361 220.388 304.747 220.388 304.747C220.388 304.747 147.876 412.12 157.48 447.589C167.085 483.059 186.533 507.67 188.454 509.6C190.375 511.531 198.058 514.185 201.42 520.458C202.62 522.871 226.631 499.225 214.866 470.753C203.341 442.281 200.699 422.978 210.304 408.018C211.984 405.364 213.425 402.468 214.866 399.573C212.945 409.948 211.264 418.152 210.784 420.565C208.623 429.01 208.623 441.074 214.386 454.345C220.148 467.616 229.032 468.34 229.032 468.34C224.95 461.825 224.71 450.726 228.552 439.144C232.393 427.562 238.636 416.222 241.998 404.157C245.599 391.61 247.28 376.651 235.515 351.798C229.032 337.079 226.631 327.428 226.631 327.428Z" fill="#221B23"/>
<path d="M354.127 136.328C354.127 136.328 310.428 152.735 275.373 140.43C240.317 128.124 217.747 176.864 220.628 205.819C223.51 234.773 212.865 269.438 231.673 319.465C220.148 366.275 186.533 401.986 176.929 422.737C167.325 443.487 167.325 464.721 176.929 479.922C186.533 495.123 191.335 505.981 193.977 521.906C193.977 521.906 190.375 513.22 176.209 502.603C153.879 485.954 169.719 470.833 171.16 439.949C197.258 439.949 170.446 383.568 182.211 358.715C193.736 333.862 190.375 299.197 182.211 278.446C174.048 257.696 164.684 228.982 168.045 177.829C171.407 126.918 199.499 99.652 234.554 78.9012C269.61 58.1504 320.272 62.011 352.447 82.038C384.621 102.065 379.819 119.92 379.819 119.92C379.819 119.92 389.423 115.094 403.829 137.052C418.236 159.009 408.631 217.642 398.307 236.221C398.307 236.221 397.587 201.717 389.423 185.309C381.259 168.902 357.009 150.081 354.127 136.328Z" fill="#2A232B"/>
<path d="M372.375 121.127C366.853 124.746 361.09 124.746 357.729 123.057C347.885 118.714 339.961 103.754 331.797 94.8263C318.111 79.8664 314.51 72.1452 283.056 70.4562C260.726 69.2498 242.958 75.0407 232.634 79.6251C198.538 100.135 179.57 127.4 176.209 177.588C172.847 228.5 177.649 287.294 186.053 308.044C194.457 328.795 178.474 361.932 178.61 358.554C178.745 355.176 161.882 409.868 160.442 440.753C159.001 471.638 154.119 485.713 176.209 502.362C190.375 512.978 193.976 521.665 193.976 521.665C190.135 510.807 184.372 506.464 173.087 496.088C161.562 485.713 158.415 456.919 160.816 434.721C163.217 412.522 176.209 373.997 186.053 358.554C195.897 343.112 203.821 316.57 207.182 302.334C210.544 288.098 207.663 276.275 197.818 251.905C187.974 227.535 182.691 163.835 184.372 152.977C187.013 132.95 193.976 119.679 206.942 103.271C231.193 85.6573 258.805 76.0058 276.333 75.7645C304.665 75.5232 324.354 94.3437 327.956 99.6521C331.557 104.96 353.167 128.365 358.689 129.33C364.212 130.296 377.898 121.127 377.898 121.127L379.579 119.679C379.579 119.679 380.299 117.266 379.579 113.405C378.378 115.577 375.977 118.714 372.375 121.127ZM311.388 144.773C312.109 144.773 313.069 144.773 313.789 144.532C314.27 144.532 314.99 144.532 315.71 144.29C316.671 144.29 317.871 144.049 318.832 144.049C319.312 144.049 320.032 143.808 320.753 143.808C321.473 143.808 322.433 143.566 323.154 143.566C323.874 143.566 324.594 143.325 325.315 143.325C326.035 143.325 326.755 143.084 327.476 143.084C327.956 143.084 328.436 142.843 328.916 142.843C329.877 142.601 330.837 142.36 331.797 142.36C332.278 142.36 332.758 142.119 333.238 142.119C334.199 141.877 335.159 141.636 335.879 141.636C336.359 141.636 336.6 141.395 336.84 141.395C337.56 141.154 338.28 140.912 339.001 140.912C339.241 140.912 339.481 140.912 339.721 140.671C340.681 140.43 341.642 140.188 342.362 139.947C342.602 139.947 342.842 139.947 343.082 139.706C344.043 139.465 344.763 139.223 345.724 138.982C351.006 137.534 354.127 136.328 354.127 136.328C354.127 136.328 342.122 137.776 327.956 123.057C322.433 114.129 313.309 97.7217 299.143 92.1721C282.816 85.6573 228.312 82.7619 209.823 122.333C191.335 161.904 203.341 195.926 211.264 212.575C219.188 229.224 221.108 256.731 220.628 277.481C220.148 298.473 225.67 332.495 220.148 345.525C214.626 358.554 192.056 413.246 184.372 434.721C176.449 457.16 159.641 463.514 178.61 494.158C185.813 505.981 190.615 509.359 192.536 513.702C189.655 501.638 185.093 491.986 176.929 479.439C167.325 464.238 167.325 443.005 176.929 422.254C186.533 401.503 210.83 362.897 222.355 316.087C220.628 265.504 223.029 206.543 220.148 177.588C217.267 148.634 240.557 127.641 275.372 139.947C279.935 141.636 284.737 142.601 289.299 143.325H289.539C290.019 143.325 290.499 143.566 291.22 143.566C292.18 143.566 293.14 143.808 294.101 143.808C294.821 143.808 295.541 143.808 296.022 144.049C296.982 144.049 297.942 144.29 299.143 144.29H308.987C309.708 145.014 310.668 145.014 311.388 144.773Z" fill="#221B23"/>
<path d="M217.987 358.554C217.987 358.554 211.744 374.479 195.657 394.023C174.288 419.841 169.966 436.007 177.889 456.276C185.813 476.544 196.618 487.161 200.219 496.088C203.821 505.016 202.86 514.426 202.86 514.426C202.86 514.426 207.422 504.533 205.502 497.053C203.821 489.573 187.734 463.514 185.333 448.796C182.932 434.077 185.573 417.67 195.417 403.675C203.821 391.852 213.665 375.685 217.987 358.554ZM222.549 362.173C222.549 362.173 216.546 390.163 208.143 404.157C199.739 418.152 197.098 435.525 203.341 450.243C209.583 464.962 221.589 484.265 220.628 497.053C220.628 497.053 228.792 481.611 221.108 465.686C213.425 449.761 210.784 426.115 217.027 409.948C223.269 394.023 223.99 373.273 222.549 362.173Z" fill="#2A232B"/>
<path d="M289.539 144.049C290.259 144.049 290.739 144.29 291.219 144.29C292.18 144.29 293.14 144.532 294.101 144.532C294.821 144.532 295.541 144.532 296.022 144.773C296.982 144.773 297.942 145.014 299.143 145.014H302.744C296.982 142.601 290.259 138.741 284.496 131.985C272.971 117.749 264.087 111.234 245.599 113.164C227.111 115.094 207.662 140.188 208.863 166.489C210.063 192.548 218.467 209.197 223.75 223.433C222.309 217.159 221.108 211.368 220.628 205.819C217.987 176.864 240.557 128.124 275.372 140.43C280.174 142.119 284.737 143.084 289.539 144.049Z" fill="#1B141C"/>
<path d="M341.018 106.912C341.018 106.912 356.916 106.833 341.018 127.519C378.542 115.107 393.252 175.573 390.168 204.777C387.084 233.981 359.058 340.245 371.395 387.458C383.731 434.671 393.38 428.059 403.661 448.988C413.942 469.918 447.226 465.908 436.945 481.24C426.664 496.572 440.543 476.201 437.716 492.263C437.716 492.263 422.552 514.824 437.716 504.116C461.619 487.324 471.385 467.368 469.843 436.217C468.301 405.067 453.908 380.73 441.314 355.664C437.5 328 426.761 306.429 435.5 285.5C444.239 264.571 434.889 227.745 431.291 176.151C427.693 124.801 398.057 108.883 360.533 87.9533C323.008 67.0238 369.176 86.7124 334.736 106.912C300.296 127.111 346.614 105.598 346.614 105.598C346.614 105.598 350.157 84.7655 334.736 106.912C319.315 129.058 336.415 88.1726 347.467 106.912C356.205 90.3629 337.933 120.784 341.018 106.912Z" fill="#2A232B"/>
<path d="M376.262 319.746C376.262 319.746 372.142 333.587 370.45 333.5C368.758 333.413 363.4 340.753 362.736 341.5C362.072 342.247 358.809 342.851 358.987 345.5C359.166 348.149 357.722 347.975 358.987 350.15C360.262 352.318 364.417 357.063 367.007 358.375C369.605 359.681 370.353 357.604 370.45 356.642C370.555 355.673 376.262 319.746 376.262 319.746Z" fill="#221B23"/>
<path d="M454.987 700.383C449.491 669.586 445.846 643.897 443.429 623.369C443.883 612.346 443.532 601.047 442.857 591.159C442.158 580.931 441.109 572.186 440.234 566.776C439.799 564.089 439.4 562.182 439.098 561.336C439.03 561.144 438.938 560.92 438.806 560.775C438.747 560.71 438.555 560.525 438.263 560.581C437.992 560.633 437.875 560.853 437.841 560.924C437.758 561.097 437.723 561.338 437.703 561.568C437.68 561.822 437.669 562.15 437.669 562.549L438.169 562.549C437.669 562.549 437.669 562.549 437.669 562.55L437.669 562.552L437.669 562.558L437.669 562.584L437.67 562.688C437.67 562.779 437.671 562.916 437.673 563.099C437.677 563.463 437.685 564.008 437.701 564.735C437.733 566.187 437.797 568.363 437.925 571.259C438.18 577.051 438.691 585.724 439.713 597.256C440.377 604.763 441.259 613.482 442.426 623.407C441.948 634.919 440.588 646.097 437.802 655.003C432.266 655.114 428.253 657.73 425.858 662.186C423.431 666.704 422.687 673.072 423.589 680.562C425.374 695.389 433.636 714.832 448.612 733.687C423.572 739.332 409.769 744.219 399.543 747.842L399.522 747.85C389.215 751.502 382.597 753.847 371.742 754.412C261.869 758.66 215.751 754.051 161.373 743.988C163.559 737.363 166.541 729.131 169.775 720.205C172.087 713.825 174.527 707.09 176.896 700.334C177.953 697.321 178.995 694.304 180.005 691.313C191.27 682.422 196.271 672.617 197.126 662.262C197.876 653.183 195.432 643.738 191.335 634.193C190.911 628.719 189.856 623.772 188.345 619.231C185.081 609.423 179.698 601.541 173.999 594.368C172.139 592.026 170.25 589.766 168.392 587.541C164.536 582.927 160.806 578.463 157.71 573.731C156.425 571.767 155.253 569.763 154.232 567.69C151.708 561.517 150.127 555.59 150.001 549.988L149.002 549.999C149.002 556.817 150.665 562.7 153.319 568.099C155.662 573.825 158.79 579.723 162.283 585.72C165.193 590.717 168.367 595.798 171.564 600.917C172.392 602.241 173.22 603.568 174.046 604.897C178.068 611.364 182.031 617.876 185.473 624.36C187.264 627.734 188.911 631.097 190.351 634.436C190.818 640.661 190.46 647.59 189.01 655.408L189.009 655.416C187.409 664.867 183.61 677.498 179.153 690.712C177.039 692.365 174.7 693.989 172.121 695.581L171.982 695.667L171.921 695.817C165.485 711.525 162.822 727.982 160.233 744.25C160.011 744.844 159.548 745.444 158.83 746.139C158.187 746.761 157.38 747.423 156.428 748.204C156.292 748.316 156.153 748.43 156.011 748.547C153.752 750.405 150.848 752.865 147.824 756.67C141.771 764.286 135.284 777.227 132.341 801.447L132.34 801.453C132.295 801.867 132.348 802.228 132.455 802.539C132.404 802.524 132.352 802.508 132.299 802.492C128.407 801.341 117.302 798.73 88.2218 795.086C89.8325 791.194 89.8403 788.382 89.3375 784.332C89.2203 783.388 89.0756 782.376 88.9169 781.267C88.3638 777.402 87.6399 772.343 87.3127 764.771C86.4706 745.284 88.2643 709.188 102.492 634.597C107.364 610.84 122.983 501.655 132.776 432.94C133.318 431.997 133.718 431.164 134.054 430.43C134.15 430.218 134.241 430.018 134.327 429.826C134.553 429.323 134.751 428.882 134.963 428.476C135.523 427.4 136.136 426.65 137.471 426.027C138.853 425.383 141.013 424.873 144.692 424.371C148.359 423.871 153.481 423.384 160.756 422.764C190.413 420.998 208.361 414.499 219.886 407.698C225.648 404.299 229.793 400.831 232.984 397.859C234.133 396.79 235.162 395.781 236.093 394.868C236.452 394.516 236.797 394.179 237.128 393.857C238.327 392.693 239.35 391.745 240.294 391.058L240.304 391.051L240.313 391.044C246.034 386.451 246.463 381.261 246.835 376.762C246.899 375.994 246.961 375.245 247.047 374.523C247.344 372.039 247.916 369.883 249.7 368.13C251.496 366.366 254.594 364.939 260.116 364.12L260.12 364.119C268.074 362.875 275.944 366.263 284.049 370.244C284.913 370.668 285.779 371.099 286.649 371.532C293.876 375.127 301.292 378.817 308.952 379.498C324.241 381.079 339.768 373.741 351.517 367.806C352.283 367.418 353.033 367.037 353.765 366.665C358.681 364.168 362.801 362.074 365.863 361.179C367.632 360.662 368.923 360.586 369.781 360.949C370.57 361.283 371.127 362.056 371.265 363.656C371.422 367.541 373.203 370.86 376.194 373.829C379.18 376.792 383.389 379.426 388.452 381.962C394.643 385.062 402.192 388.051 410.449 391.32C415.672 393.388 421.179 395.568 426.804 397.96L426.812 397.963C437.826 402.42 447.894 405.739 456.893 408.706C458.302 409.171 459.684 409.626 461.04 410.077C471.07 413.407 479.623 416.424 486.582 420.351C493.528 424.27 498.866 429.085 502.477 436.002C506.092 442.929 508 452.01 508 464.5L508 464.515L508.001 464.53C511.723 525.614 518.711 581.049 524.795 629.313C527.701 652.366 530.401 673.783 532.44 693.397C535.596 723.753 537.169 749.787 535.494 770.924C533.826 791.963 528.944 808.071 519.279 818.767C507.772 818.768 500.959 818.883 495.52 818.974C487.383 819.111 482.321 819.197 469.216 818.773C449.623 798.818 447.369 773.865 449.383 751.563C450.191 742.619 451.682 734.125 453.011 726.555C453.344 724.661 453.666 722.825 453.965 721.054C454.711 716.637 455.312 712.621 455.554 709.142C455.795 705.685 455.686 702.712 454.987 700.383ZM438.701 564.713C438.693 564.365 438.688 564.058 438.683 563.794C438.856 564.643 439.046 565.696 439.246 566.936C440.116 572.31 441.162 581.024 441.859 591.227C442.389 598.988 442.717 607.595 442.615 616.24C441.836 609.192 441.21 602.834 440.709 597.168C439.689 585.65 439.179 576.992 438.924 571.215C438.797 568.326 438.733 566.158 438.701 564.713ZM187.396 619.547C188.601 623.169 189.513 627.059 190.038 631.283C188.901 628.822 187.665 626.357 186.356 623.891C182.897 617.375 178.919 610.839 174.896 604.369C174.067 603.036 173.237 601.706 172.408 600.38C169.212 595.263 166.049 590.199 163.147 585.217C161.383 582.187 159.719 579.195 158.206 576.247C161.051 580.316 164.331 584.241 167.672 588.241C169.522 590.456 171.391 592.693 173.216 594.99C178.886 602.127 184.187 609.901 187.396 619.547ZM172.785 696.346C174.866 695.056 176.795 693.744 178.578 692.41C177.721 694.93 176.842 697.467 175.953 700.003C173.592 706.733 171.156 713.459 168.845 719.838C166.397 726.594 164.09 732.961 162.164 738.533C164.494 724.257 167.209 710.011 172.785 696.346Z" fill="#535353" stroke="black"/>
<path d="M454.5 746C550.751 1271.63 588.835 1368.98 609 1521C594.383 1524.67 541.461 1529.24 527.5 1535.16C511.952 1541.48 460.174 1395.03 444 1396.5C426 1352.5 413.368 1252.62 396 1255C389.744 1205.45 309.297 1059.33 309.088 1057.78C307.066 1040.08 310.269 1079.27 309.088 1088.5C310.152 1085.22 318 1334 309.088 1546C300 1501.5 275.329 1534.42 225.5 1535.16C186.5 1370 105.583 1042.42 114.5 912C113.847 892.108 134.5 790.5 134.5 756.5C182.46 762.372 189.734 804.956 290.832 798.5C313.093 797.812 433.241 753.306 454.5 746Z" fill="black"/>
</svg>
