<svg width="115" height="130" viewBox="0 0 115 130" fill="none" xmlns="http://www.w3.org/2000/svg">
<path d="M110.5 26C110.5 31.6486 105.565 37.519 95.8224 42.1246C86.2721 46.6393 72.9026 49.5 58 49.5C43.0974 49.5 29.7279 46.6393 20.1776 42.1246C10.4349 37.519 5.5 31.6486 5.5 26C5.5 20.3514 10.4349 14.481 20.1776 9.8754C29.7279 5.36069 43.0974 2.5 58 2.5C72.9026 2.5 86.2721 5.36069 95.8224 9.8754C105.565 14.481 110.5 20.3514 110.5 26Z" stroke="white" stroke-width="5"/>
<path d="M99.377 112.029C103.322 109.829 106.709 107.629 109.411 105.73C109.048 106.245 108.653 106.765 108.224 107.291C105.493 110.635 101.54 114.008 96.5763 117.022C86.6498 123.05 72.9134 127.5 57.5026 127.5C42.1491 127.5 28.6487 122.624 18.8086 116.363C13.8884 113.232 9.92971 109.784 7.1284 106.482C6.5624 105.814 6.05014 105.161 5.59014 104.524C8.22557 106.354 11.5488 108.585 15.4131 110.868C26.0266 117.138 40.9701 123.949 57.5026 123.949C73.9674 123.949 88.7717 117.942 99.377 112.029Z" stroke="white" stroke-width="5"/>
<path d="M10.71 90.1984C9.34177 89.0391 8.32731 87.9278 7.63095 86.9008C7.84483 87.0068 8.07123 87.1197 8.31042 87.2396C8.62886 87.3993 8.96604 87.5691 9.32134 87.7482C11.913 89.0538 15.4693 90.8455 19.7563 92.6957C29.5 96.9008 43.1277 101.459 58.254 101.459C73.4026 101.459 86.824 96.6233 96.4262 91.821C101.234 89.4168 105.102 87.0119 107.772 85.2046C107.912 85.11 108.048 85.0171 108.182 84.9258C107.542 86.0428 106.667 87.192 105.55 88.3538C103.042 90.9623 99.4089 93.5244 94.8256 95.7819C85.6634 100.295 72.885 103.5 58.254 103.5C43.6071 103.5 30.8461 100.561 21.6158 96.5997C16.9973 94.6176 13.3057 92.3978 10.71 90.1984Z" stroke="white" stroke-width="3"/>
<path d="M10.71 64.1984C9.34177 63.0391 8.32731 61.9278 7.63095 60.9008C7.84483 61.0068 8.07123 61.1197 8.31042 61.2396C8.62886 61.3993 8.96604 61.5691 9.32134 61.7482C11.913 63.0538 15.4693 64.8455 19.7563 66.6957C29.5 70.9008 43.1277 75.4589 58.254 75.4589C73.4026 75.4589 86.824 70.6233 96.4262 65.821C101.234 63.4168 105.102 61.0119 107.772 59.2046C107.912 59.11 108.048 59.0171 108.182 58.9258C107.542 60.0428 106.667 61.192 105.55 62.3538C103.042 64.9623 99.4089 67.5244 94.8256 69.7819C85.6634 74.2948 72.885 77.5 58.254 77.5C43.6071 77.5 30.8461 74.5612 21.6158 70.5997C16.9973 68.6176 13.3057 66.3978 10.71 64.1984Z" stroke="white" stroke-width="3"/>
<path d="M3 106C3 107.381 4.11929 108.5 5.5 108.5C6.88071 108.5 8 107.381 8 106H3ZM3 26L3 106H8L8 26H3Z" fill="white"/>
<path d="M106.5 106.984C106.491 108.364 107.603 109.491 108.984 109.5C110.364 109.509 111.491 108.397 111.5 107.016L106.5 106.984ZM107 29.9838L106.5 106.984L111.5 107.016L112 30.0162L107 29.9838Z" fill="white"/>
</svg>
