<svg width="605" height="582" viewBox="0 0 605 582" fill="none" xmlns="http://www.w3.org/2000/svg">
<path id="Line 16" d="M62.9435 131.766L33.9894 112.098L62.9435 131.766ZM-114.077 260.09L-141.817 239.315L-114.077 260.09ZM186.562 -23.9953L157.698 -43.7495L186.562 -23.9953ZM286.693 -104.305L258.206 -124.412L286.693 -104.305ZM33.9894 112.098C6.86362 137.991 -18.7832 154.587 -47.2021 172.351C-75.6876 190.156 -107.602 209.491 -141.817 239.315L-86.3363 280.866C-57.3939 255.638 -30.8073 239.457 -1.57648 221.186C27.7209 202.873 59.0054 182.833 91.8975 151.435L33.9894 112.098ZM-141.817 239.315C-175.665 268.819 -213.637 308.939 -242.593 340.954C-257.202 357.107 -269.764 371.473 -278.679 381.808C-283.14 386.978 -286.694 391.148 -289.144 394.037C-290.369 395.482 -291.319 396.607 -291.968 397.378C-292.292 397.763 -292.541 398.06 -292.712 398.264C-292.798 398.366 -292.864 398.445 -292.91 398.5C-292.933 398.527 -292.951 398.549 -292.964 398.564C-292.97 398.572 -292.975 398.578 -292.979 398.583C-292.981 398.585 -292.983 398.588 -292.984 398.589C-292.986 398.591 -292.988 398.593 -261.381 415.431C-229.774 432.27 -229.774 432.271 -229.775 432.271C-229.774 432.271 -229.775 432.271 -229.774 432.27C-229.773 432.269 -229.771 432.266 -229.767 432.262C-229.76 432.253 -229.748 432.239 -229.731 432.219C-229.696 432.178 -229.642 432.113 -229.569 432.026C-229.422 431.85 -229.197 431.583 -228.898 431.227C-228.3 430.517 -227.404 429.454 -226.234 428.075C-223.895 425.316 -220.464 421.292 -216.14 416.279C-207.486 406.248 -195.282 392.291 -181.106 376.617C-152.49 344.978 -116.81 307.428 -86.3363 280.866L-141.817 239.315ZM157.698 -43.7495C125.472 -13.2011 107.254 14.8153 90.7992 40.0337C74.3886 65.1843 59.7649 87.4935 33.9894 112.098L91.8975 151.435C123.964 120.825 142.111 92.7807 158.53 67.6174C174.905 42.522 189.575 20.2645 215.426 -4.24115L157.698 -43.7495ZM343.397 -161.46C313.047 -179.719 313.047 -179.72 313.048 -179.72C313.047 -179.72 313.048 -179.72 313.048 -179.72C313.047 -179.72 313.046 -179.719 313.045 -179.717C313.043 -179.715 313.038 -179.71 313.032 -179.703C313.018 -179.689 312.997 -179.666 312.969 -179.636C312.911 -179.574 312.822 -179.48 312.704 -179.353C312.467 -179.101 312.111 -178.722 311.646 -178.228C310.717 -177.242 309.354 -175.799 307.643 -173.996C304.217 -170.388 299.408 -165.354 293.888 -159.665C282.716 -148.153 269.108 -134.454 258.206 -124.412L315.18 -84.1984C327.629 -95.6654 342.373 -110.544 353.716 -122.232C359.452 -128.143 364.441 -133.366 367.999 -137.113C369.779 -138.989 371.205 -140.499 372.191 -141.545C372.684 -142.069 373.067 -142.476 373.33 -142.757C373.462 -142.897 373.563 -143.005 373.633 -143.08C373.668 -143.117 373.695 -143.146 373.714 -143.166C373.724 -143.177 373.731 -143.185 373.737 -143.191C373.74 -143.194 373.742 -143.196 373.744 -143.198C373.745 -143.199 373.746 -143.2 373.746 -143.2C373.747 -143.201 373.748 -143.202 343.397 -161.46ZM258.206 -124.412C241.81 -109.309 227.379 -98.8767 211.27 -87.1556C195.089 -75.3825 177.427 -62.4521 157.698 -43.7495L215.426 -4.24115C231.437 -19.4196 245.673 -29.91 261.539 -41.4544C277.477 -53.0508 295.242 -65.8332 315.18 -84.1984L258.206 -124.412Z" fill="#5F1EC4"/>
<path id="Line 17" d="M121.943 167.767L92.9894 148.098L121.943 167.767ZM-55.0768 296.09L-82.8173 275.315L-55.0768 296.09ZM245.562 12.0047L216.698 -7.74949L245.562 12.0047ZM345.693 -68.3051L317.206 -88.4119L345.693 -68.3051ZM92.9894 148.098C65.8636 173.991 40.2168 190.587 11.7979 208.351C-16.6876 226.156 -48.6021 245.491 -82.8173 275.315L-27.3363 316.866C1.60609 291.638 28.1927 275.457 57.4235 257.186C86.7209 238.873 118.005 218.833 150.898 187.435L92.9894 148.098ZM-82.8173 275.315C-116.665 304.819 -154.637 344.939 -183.593 376.954C-198.202 393.107 -210.764 407.474 -219.679 417.808C-224.14 422.979 -227.694 427.148 -230.144 430.037C-231.369 431.482 -232.319 432.607 -232.968 433.378C-233.292 433.763 -233.541 434.06 -233.712 434.264C-233.798 434.366 -233.864 434.445 -233.91 434.5C-233.933 434.527 -233.951 434.549 -233.964 434.564C-233.97 434.572 -233.975 434.578 -233.979 434.583C-233.981 434.586 -233.983 434.588 -233.984 434.589C-233.986 434.591 -233.988 434.593 -202.381 451.431C-170.774 468.27 -170.774 468.271 -170.775 468.271C-170.774 468.271 -170.775 468.271 -170.774 468.27C-170.773 468.269 -170.771 468.266 -170.767 468.262C-170.76 468.254 -170.748 468.239 -170.731 468.219C-170.696 468.178 -170.642 468.113 -170.569 468.026C-170.422 467.85 -170.197 467.583 -169.898 467.228C-169.3 466.517 -168.404 465.454 -167.234 464.075C-164.895 461.316 -161.464 457.292 -157.14 452.279C-148.486 442.248 -136.282 428.291 -122.106 412.617C-93.4901 380.978 -57.8098 343.428 -27.3363 316.866L-82.8173 275.315ZM216.698 -7.74949C184.472 22.799 166.254 50.8154 149.799 76.0338C133.389 101.184 118.765 123.494 92.9894 148.098L150.898 187.435C182.964 156.825 201.111 128.781 217.53 103.617C233.905 78.5221 248.575 56.2646 274.426 31.7589L216.698 -7.74949ZM402.397 -125.46C372.047 -143.719 372.047 -143.72 372.048 -143.72C372.047 -143.72 372.048 -143.72 372.048 -143.72C372.047 -143.72 372.046 -143.719 372.045 -143.717C372.043 -143.715 372.038 -143.71 372.032 -143.703C372.018 -143.689 371.997 -143.666 371.969 -143.636C371.911 -143.574 371.822 -143.479 371.704 -143.353C371.467 -143.101 371.111 -142.722 370.646 -142.228C369.717 -141.242 368.354 -139.799 366.643 -137.996C363.217 -134.388 358.408 -129.354 352.888 -123.665C341.716 -112.153 328.108 -98.4539 317.206 -88.4119L374.18 -48.1984C386.629 -59.6653 401.373 -74.5438 412.716 -86.2322C418.452 -92.1433 423.441 -97.3655 426.999 -101.113C428.779 -102.989 430.205 -104.498 431.191 -105.545C431.684 -106.069 432.067 -106.476 432.33 -106.757C432.462 -106.897 432.563 -107.005 432.633 -107.079C432.668 -107.117 432.695 -107.146 432.714 -107.166C432.724 -107.176 432.731 -107.185 432.737 -107.191C432.74 -107.193 432.742 -107.196 432.744 -107.198C432.745 -107.199 432.746 -107.2 432.746 -107.2C432.747 -107.201 432.748 -107.202 402.397 -125.46ZM317.206 -88.4119C300.81 -73.3087 286.379 -62.8767 270.27 -51.1556C254.089 -39.3824 236.427 -26.4521 216.698 -7.74949L274.426 31.7589C290.437 16.5805 304.673 6.09008 320.539 -5.45432C336.477 -17.0508 354.242 -29.8332 374.18 -48.1984L317.206 -88.4119Z" fill="#E41A92"/>
<path id="Line 18" d="M176.943 203.767L147.989 184.098L176.943 203.767ZM-0.0767778 332.09L-27.8173 311.315L-0.0767778 332.09ZM300.562 48.0047L271.698 28.2505L300.562 48.0047ZM400.693 -32.3051L372.206 -52.4119L400.693 -32.3051ZM147.989 184.098C120.864 209.991 95.2168 226.587 66.7979 244.351C38.3124 262.156 6.39793 281.491 -27.8173 311.315L27.6637 352.866C56.6061 327.638 83.1927 311.457 112.424 293.186C141.721 274.873 173.005 254.833 205.898 223.435L147.989 184.098ZM-27.8173 311.315C-61.6651 340.819 -99.6367 380.939 -128.593 412.954C-143.202 429.107 -155.764 443.474 -164.679 453.808C-169.14 458.979 -172.694 463.148 -175.144 466.037C-176.369 467.482 -177.319 468.607 -177.968 469.378C-178.292 469.763 -178.541 470.06 -178.712 470.264C-178.798 470.366 -178.864 470.445 -178.91 470.5C-178.933 470.527 -178.951 470.549 -178.964 470.564C-178.97 470.572 -178.975 470.578 -178.979 470.583C-178.981 470.586 -178.983 470.588 -178.984 470.589C-178.986 470.591 -178.988 470.593 -147.381 487.431C-115.774 504.27 -115.774 504.271 -115.775 504.271C-115.774 504.271 -115.775 504.271 -115.774 504.27C-115.773 504.269 -115.771 504.266 -115.767 504.262C-115.76 504.254 -115.748 504.239 -115.731 504.219C-115.696 504.178 -115.642 504.113 -115.569 504.026C-115.422 503.85 -115.197 503.583 -114.898 503.228C-114.3 502.517 -113.404 501.454 -112.234 500.075C-109.895 497.316 -106.464 493.292 -102.14 488.279C-93.4858 478.248 -81.2818 464.291 -67.1057 448.617C-38.4901 416.978 -2.80976 379.428 27.6637 352.866L-27.8173 311.315ZM271.698 28.2505C239.472 58.799 221.254 86.8154 204.799 112.034C188.389 137.184 173.765 159.494 147.989 184.098L205.898 223.435C237.964 192.825 256.111 164.781 272.53 139.617C288.905 114.522 303.575 92.2646 329.426 67.7589L271.698 28.2505ZM457.397 -89.4604C427.047 -107.719 427.047 -107.72 427.048 -107.72C427.047 -107.72 427.048 -107.72 427.048 -107.72C427.047 -107.72 427.046 -107.719 427.045 -107.717C427.043 -107.715 427.038 -107.71 427.032 -107.703C427.018 -107.689 426.997 -107.666 426.969 -107.636C426.911 -107.574 426.822 -107.479 426.704 -107.353C426.467 -107.101 426.111 -106.722 425.646 -106.228C424.717 -105.242 423.354 -103.799 421.643 -101.996C418.217 -98.3879 413.408 -93.3542 407.888 -87.6651C396.716 -76.153 383.108 -62.4539 372.206 -52.4119L429.18 -12.1984C441.629 -23.6653 456.373 -38.5438 467.716 -50.2322C473.452 -56.1433 478.441 -61.3655 481.999 -65.1133C483.779 -66.9886 485.205 -68.4984 486.191 -69.5451C486.684 -70.0686 487.067 -70.4764 487.33 -70.7565C487.462 -70.8966 487.563 -71.0048 487.633 -71.0795C487.668 -71.1168 487.695 -71.1458 487.714 -71.1663C487.724 -71.1765 487.731 -71.1846 487.737 -71.1905C487.74 -71.1935 487.742 -71.1959 487.744 -71.1978C487.745 -71.1987 487.746 -71.1997 487.746 -71.2002C487.747 -71.2011 487.748 -71.2018 457.397 -89.4604ZM372.206 -52.4119C355.81 -37.3087 341.379 -26.8767 325.27 -15.1556C309.089 -3.38241 291.427 9.54792 271.698 28.2505L329.426 67.7589C345.437 52.5805 359.673 42.0901 375.539 30.5457C391.477 18.9492 409.242 6.16683 429.18 -12.1984L372.206 -52.4119Z" fill="#FFD600"/>
<path id="Line 19" d="M176.943 203.767L147.989 184.098L176.943 203.767ZM-0.0767778 332.09L-27.8173 311.315L-0.0767778 332.09ZM300.562 48.0047L271.698 28.2505L300.562 48.0047ZM400.693 -32.3051L372.206 -52.4119L400.693 -32.3051ZM147.989 184.098C120.864 209.991 95.2168 226.587 66.7979 244.351C38.3124 262.156 6.39793 281.491 -27.8173 311.315L27.6637 352.866C56.6061 327.638 83.1927 311.457 112.424 293.186C141.721 274.873 173.005 254.833 205.898 223.435L147.989 184.098ZM-27.8173 311.315C-61.6651 340.819 -99.6367 380.939 -128.593 412.954C-143.202 429.107 -155.764 443.474 -164.679 453.808C-169.14 458.979 -172.694 463.148 -175.144 466.037C-176.369 467.482 -177.319 468.607 -177.968 469.378C-178.292 469.763 -178.541 470.06 -178.712 470.264C-178.798 470.366 -178.864 470.445 -178.91 470.5C-178.933 470.527 -178.951 470.549 -178.964 470.564C-178.97 470.572 -178.975 470.578 -178.979 470.583C-178.981 470.586 -178.983 470.588 -178.984 470.589C-178.986 470.591 -178.988 470.593 -147.381 487.431C-115.774 504.27 -115.774 504.271 -115.775 504.271C-115.774 504.271 -115.775 504.271 -115.774 504.27C-115.773 504.269 -115.771 504.266 -115.767 504.262C-115.76 504.254 -115.748 504.239 -115.731 504.219C-115.696 504.178 -115.642 504.113 -115.569 504.026C-115.422 503.85 -115.197 503.583 -114.898 503.228C-114.3 502.517 -113.404 501.454 -112.234 500.075C-109.895 497.316 -106.464 493.292 -102.14 488.279C-93.4858 478.248 -81.2818 464.291 -67.1057 448.617C-38.4901 416.978 -2.80976 379.428 27.6637 352.866L-27.8173 311.315ZM271.698 28.2505C239.472 58.799 221.254 86.8154 204.799 112.034C188.389 137.184 173.765 159.494 147.989 184.098L205.898 223.435C237.964 192.825 256.111 164.781 272.53 139.617C288.905 114.522 303.575 92.2646 329.426 67.7589L271.698 28.2505ZM457.397 -89.4604C427.047 -107.719 427.047 -107.72 427.048 -107.72C427.047 -107.72 427.048 -107.72 427.048 -107.72C427.047 -107.72 427.046 -107.719 427.045 -107.717C427.043 -107.715 427.038 -107.71 427.032 -107.703C427.018 -107.689 426.997 -107.666 426.969 -107.636C426.911 -107.574 426.822 -107.479 426.704 -107.353C426.467 -107.101 426.111 -106.722 425.646 -106.228C424.717 -105.242 423.354 -103.799 421.643 -101.996C418.217 -98.3879 413.408 -93.3542 407.888 -87.6651C396.716 -76.153 383.108 -62.4539 372.206 -52.4119L429.18 -12.1984C441.629 -23.6653 456.373 -38.5438 467.716 -50.2322C473.452 -56.1433 478.441 -61.3655 481.999 -65.1133C483.779 -66.9886 485.205 -68.4984 486.191 -69.5451C486.684 -70.0686 487.067 -70.4764 487.33 -70.7565C487.462 -70.8966 487.563 -71.0048 487.633 -71.0795C487.668 -71.1168 487.695 -71.1458 487.714 -71.1663C487.724 -71.1765 487.731 -71.1846 487.737 -71.1905C487.74 -71.1935 487.742 -71.1959 487.744 -71.1978C487.745 -71.1987 487.746 -71.1997 487.746 -71.2002C487.747 -71.2011 487.748 -71.2018 457.397 -89.4604ZM372.206 -52.4119C355.81 -37.3087 341.379 -26.8767 325.27 -15.1556C309.089 -3.38241 291.427 9.54792 271.698 28.2505L329.426 67.7589C345.437 52.5805 359.673 42.0901 375.539 30.5457C391.477 18.9492 409.242 6.16683 429.18 -12.1984L372.206 -52.4119Z" fill="#F07995"/>
<path id="Line 20" d="M235.943 239.767L206.989 220.098L235.943 239.767ZM58.9232 368.09L31.1827 347.315L58.9232 368.09ZM359.562 84.0047L330.698 64.2505L359.562 84.0047ZM459.693 3.69486L431.206 -16.4119L459.693 3.69486ZM206.989 220.098C179.864 245.991 154.217 262.587 125.798 280.351C97.3124 298.156 65.3979 317.491 31.1827 347.315L86.6637 388.866C115.606 363.638 142.193 347.457 171.424 329.186C200.721 310.873 232.005 290.833 264.898 259.435L206.989 220.098ZM31.1827 347.315C-2.66508 376.819 -40.6367 416.939 -69.5926 448.954C-84.2023 465.107 -96.764 479.474 -105.679 489.808C-110.14 494.979 -113.694 499.148 -116.144 502.037C-117.369 503.482 -118.319 504.607 -118.968 505.378C-119.292 505.763 -119.541 506.06 -119.712 506.264C-119.798 506.366 -119.864 506.445 -119.91 506.5C-119.933 506.527 -119.951 506.549 -119.964 506.564C-119.97 506.572 -119.975 506.578 -119.979 506.583C-119.981 506.586 -119.983 506.588 -119.984 506.589C-119.986 506.591 -119.988 506.593 -88.3805 523.431C-56.7736 540.27 -56.7743 540.271 -56.7748 540.271C-56.7745 540.271 -56.7746 540.271 -56.7741 540.27C-56.773 540.269 -56.7707 540.266 -56.7671 540.262C-56.7599 540.254 -56.7478 540.239 -56.7306 540.219C-56.6964 540.178 -56.6423 540.113 -56.5689 540.026C-56.422 539.85 -56.1974 539.583 -55.8983 539.228C-55.3 538.517 -54.4037 537.454 -53.2342 536.075C-50.8947 533.316 -47.4639 529.292 -43.1397 524.279C-34.4858 514.248 -22.2818 500.291 -8.10572 484.617C20.5099 452.978 56.1902 415.428 86.6637 388.866L31.1827 347.315ZM330.698 64.2505C298.472 94.799 280.254 122.815 263.799 148.034C247.389 173.184 232.765 195.494 206.989 220.098L264.898 259.435C296.964 228.825 315.111 200.781 331.53 175.617C347.905 150.522 362.575 128.265 388.426 103.759L330.698 64.2505ZM516.397 -53.4604C486.047 -71.7191 486.047 -71.7195 486.048 -71.7199C486.047 -71.7198 486.048 -71.72 486.048 -71.7198C486.047 -71.7195 486.046 -71.7187 486.045 -71.7174C486.043 -71.7146 486.038 -71.7098 486.032 -71.7028C486.018 -71.6888 485.997 -71.6663 485.969 -71.6356C485.911 -71.5741 485.822 -71.4794 485.704 -71.3532C485.467 -71.1006 485.111 -70.7217 484.646 -70.2284C483.717 -69.2416 482.354 -67.7986 480.643 -65.996C477.217 -62.3879 472.408 -57.3542 466.888 -51.6651C455.716 -40.153 442.108 -26.4539 431.206 -16.4119L488.18 23.8016C500.629 12.3347 515.373 -2.54385 526.716 -14.2322C532.452 -20.1433 537.441 -25.3655 540.999 -29.1133C542.779 -30.9886 544.205 -32.4984 545.191 -33.5451C545.684 -34.0686 546.067 -34.4764 546.33 -34.7565C546.462 -34.8966 546.563 -35.0048 546.633 -35.0795C546.668 -35.1168 546.695 -35.1458 546.714 -35.1663C546.724 -35.1765 546.731 -35.1846 546.737 -35.1905C546.74 -35.1935 546.742 -35.1959 546.744 -35.1978C546.745 -35.1987 546.746 -35.1997 546.746 -35.2002C546.747 -35.2011 546.748 -35.2018 516.397 -53.4604ZM431.206 -16.4119C414.81 -1.30868 400.379 9.12333 384.27 20.8444C368.089 32.6176 350.427 45.5479 330.698 64.2505L388.426 103.759C404.437 88.5805 418.673 78.0901 434.539 66.5457C450.477 54.9492 468.242 42.1668 488.18 23.8016L431.206 -16.4119Z" fill="#FFD600"/>
<path id="Line 21" d="M291.943 274.767L262.989 255.098L291.943 274.767ZM114.923 403.09L87.1827 382.315L114.923 403.09ZM415.562 119.005L386.698 99.2505L415.562 119.005ZM515.693 38.6949L487.206 18.5881L515.693 38.6949ZM262.989 255.098C235.864 280.991 210.217 297.587 181.798 315.351C153.312 333.156 121.398 352.491 87.1827 382.315L142.664 423.866C171.606 398.638 198.193 382.457 227.424 364.186C256.721 345.873 288.005 325.833 320.898 294.435L262.989 255.098ZM87.1827 382.315C53.3349 411.819 15.3633 451.939 -13.5926 483.954C-28.2023 500.107 -40.764 514.474 -49.6793 524.808C-54.1397 529.979 -57.6944 534.148 -60.1443 537.037C-61.3695 538.482 -62.3188 539.607 -62.9675 540.378C-63.2919 540.763 -63.5411 541.06 -63.7122 541.264C-63.7977 541.366 -63.8636 541.445 -63.9097 541.5C-63.9327 541.527 -63.9507 541.549 -63.9637 541.564C-63.9702 541.572 -63.9754 541.578 -63.9794 541.583C-63.9814 541.586 -63.9834 541.588 -63.9844 541.589C-63.9861 541.591 -63.9875 541.593 -32.3805 558.431C-0.773552 575.27 -0.774317 575.271 -0.774766 575.271C-0.774495 575.271 -0.774631 575.271 -0.774091 575.27C-0.773012 575.269 -0.770678 575.266 -0.767093 575.262C-0.759924 575.254 -0.747755 575.239 -0.730635 575.219C-0.696394 575.178 -0.64235 575.113 -0.56889 575.026C-0.421967 574.85 -0.1974 574.583 0.101717 574.228C0.699983 573.517 1.59627 572.454 2.76583 571.075C5.10529 568.316 8.53606 564.292 12.8603 559.279C21.5142 549.248 33.7182 535.291 47.8943 519.617C76.5099 487.978 112.19 450.428 142.664 423.866L87.1827 382.315ZM386.698 99.2505C354.472 129.799 336.254 157.815 319.799 183.034C303.389 208.184 288.765 230.494 262.989 255.098L320.898 294.435C352.964 263.825 371.111 235.781 387.53 210.617C403.905 185.522 418.575 163.265 444.426 138.759L386.698 99.2505ZM572.397 -18.4604C542.047 -36.7191 542.047 -36.7195 542.048 -36.7199C542.047 -36.7198 542.048 -36.72 542.048 -36.7198C542.047 -36.7195 542.046 -36.7187 542.045 -36.7174C542.043 -36.7146 542.038 -36.7098 542.032 -36.7028C542.018 -36.6888 541.997 -36.6663 541.969 -36.6356C541.911 -36.5741 541.822 -36.4794 541.704 -36.3532C541.467 -36.1006 541.111 -35.7217 540.646 -35.2284C539.717 -34.2416 538.354 -32.7986 536.643 -30.996C533.217 -27.3879 528.408 -22.3542 522.888 -16.6651C511.716 -5.15303 498.108 8.5461 487.206 18.5881L544.18 58.8016C556.629 47.3347 571.373 32.4562 582.716 20.7678C588.452 14.8567 593.441 9.63449 596.999 5.88673C598.779 4.01142 600.205 2.50155 601.191 1.45487C601.684 0.93144 602.067 0.523567 602.33 0.243453C602.462 0.103388 602.563 -0.00476058 602.633 -0.0794688C602.668 -0.116824 602.695 -0.145821 602.714 -0.166271C602.724 -0.176496 602.731 -0.184584 602.737 -0.190512C602.74 -0.193476 602.742 -0.1959 602.744 -0.19778C602.745 -0.19872 602.746 -0.199724 602.746 -0.200194C602.747 -0.20106 602.748 -0.20179 572.397 -18.4604ZM487.206 18.5881C470.81 33.6913 456.379 44.1233 440.27 55.8444C424.089 67.6176 406.427 80.5479 386.698 99.2505L444.426 138.759C460.437 123.58 474.673 113.09 490.539 101.546C506.477 89.9492 524.242 77.1668 544.18 58.8016L487.206 18.5881Z" fill="#01D3F6"/>
</svg>
