<svg width="538" height="1023" viewBox="0 0 838 1023" fill="none" xmlns="http://www.w3.org/2000/svg">
<path id="focus" d="M272.81 233.031C294.978 233.031 312.948 212.212 312.948 186.531C312.948 160.849 294.978 140.031 272.81 140.031C250.642 140.031 232.672 160.849 232.672 186.531C232.672 212.212 250.642 233.031 272.81 233.031Z" fill="white"/>
<path fill-rule="evenodd" clip-rule="evenodd" d="M173 192L0 1023H538L372.63 192H173Z" fill="#717171" fill-opacity="0.62"/>

<path id="starA" d="M145.413 680L148.107 688.292H156.826L149.772 693.416L152.466 701.708L145.413 696.584L138.36 701.708L141.054 693.416L134 688.292H142.719L145.413 680Z" fill="#D9D9D9"/>
<path id="starB" d="M357.413 582L360.107 590.292H368.826L361.772 595.416L364.466 603.708L357.413 598.584L350.36 603.708L353.054 595.416L346 590.292H354.719L357.413 582Z" fill="#D9D9D9"/>
<path id="starC" d="M403.413 827L406.107 835.292H414.826L407.772 840.416L410.466 848.708L403.413 843.584L396.36 848.708L399.054 840.416L392 835.292H400.719L403.413 827Z" fill="#D9D9D9"/>
<path id="starD" d="M206.413 233L209.107 241.292H217.826L210.772 246.416L213.466 254.708L206.413 249.584L199.36 254.708L202.054 246.416L195 241.292H203.719L206.413 233Z" fill="#D9D9D9"/>
<path id="starE" d="M205.413 815L208.107 823.292H216.826L209.772 828.416L212.466 836.708L205.413 831.584L198.36 836.708L201.054 828.416L194 823.292H202.719L205.413 815Z" fill="#D9D9D9"/>
<path id="starF" d="M229.413 489L232.107 497.292H240.826L233.772 502.416L236.466 510.708L229.413 505.584L222.36 510.708L225.054 502.416L218 497.292H226.719L229.413 489Z" fill="#D9D9D9"/>

<path fill-rule="evenodd" clip-rule="evenodd" d="M172.996 191.5C180.466 143.1 222.346 106 272.816 106C323.286 106 365.165 143.1 372.635 191.5H172.996Z" fill="#3C3A3A"/>
<path d="M274.417 175C274.417 175 273.663 120.117 274.417 11" stroke="#3C3A3A" stroke-width="21" stroke-miterlimit="1.5" stroke-linecap="round" stroke-linejoin="round"/>
<path id="starG" d="M320.5 312L323.98 324.092L335.241 324.092L326.131 331.566L329.611 343.658L320.5 336.184L311.389 343.658L314.869 331.566L305.759 324.092L317.02 324.092L320.5 312Z" fill="#D9D9D9"/>
<path id="starH" d="M118.5 945L121.98 957.092L133.241 957.092L124.131 964.566L127.611 976.658L118.5 969.184L109.389 976.658L112.869 964.566L103.759 957.092L115.02 957.092L118.5 945Z" fill="#D9D9D9"/>
<style>
 #starA, #starG {
  animation: flicker 1.5s linear infinite both;
  transform-origin: center;
  transform-box: fill-box;
}
 #starB {
  animation: flicker 2s linear infinite both;
  transform-origin: center;
  transform-box: fill-box;
  animation-delay: 1.5s;
}
 #starC {
  animation: flicker 2s linear infinite both;
  transform-origin: center;
  transform-box: fill-box;
  animation-delay: 4s;
}
 #starD {
  animation: flicker 2s linear infinite both;
  transform-origin: center;
  transform-box: fill-box;
  animation-delay: 6s;
}


 #focus {
  animation: vibrate 2s linear infinite both;
  transform-origin: center;
  transform-box: fill-box;
}


@keyframes flicker{0%,100%{opacity:1}41.99%{opacity:1}42%{opacity:0}43%{opacity:0}43.01%{opacity:1}47.99%{opacity:1}48%{opacity:0}49%{opacity:0}49.01%{opacity:1}}
@keyframes vibrate{0%{transform:translate(0)}20%{transform:translate(-2px,2px)}40%{transform:translate(-2px,-2px)}60%{transform:translate(2px,2px)}80%{transform:translate(2px,-2px)}100%{transform:translate(0)}}

</style>
</svg>
