<svg width="538" height="1023" viewBox="0 0 838 1023" fill="none" xmlns="http://www.w3.org/2000/svg">
<path d="M272.81 233.031C294.978 233.031 312.948 212.212 312.948 186.531C312.948 160.849 294.978 140.031 272.81 140.031C250.642 140.031 232.672 160.849 232.672 186.531C232.672 212.212 250.642 233.031 272.81 233.031Z" fill="white"/>
<path fill-rule="evenodd" clip-rule="evenodd" d="M173 192L0 1023H538L372.63 192H173Z" fill="none" fill-opacity="0.51"/>
<path fill-rule="evenodd" clip-rule="evenodd" d="M172.996 191.5C180.466 143.1 222.346 106 272.816 106C323.286 106 365.165 143.1 372.635 191.5H172.996Z" fill="#3C3A3A"/>
<path d="M274.417 175C274.417 175 273.663 120.117 274.417 11" stroke="#3C3A3A" stroke-width="21" stroke-miterlimit="1.5" stroke-linecap="round" stroke-linejoin="round"/>
<path d="M321 1H231V34H321V1Z" fill="#3C3A3A"/>
<line x1="271.5" y1="245.036" x2="270.5" y2="287.036" stroke="white" stroke-width="3"/>
<line x1="235.178" y1="233.928" x2="209.178" y2="266.928" stroke="white" stroke-width="3"/>
<line x1="314.227" y1="232.138" x2="340.227" y2="269.138" stroke="white" stroke-width="3"/>
</svg>

